<svg id="_025---Lamps-and-Snooker-Table" data-name="025---Lamps-and-Snooker-Table" xmlns="http://www.w3.org/2000/svg" xmlns:xlink="http://www.w3.org/1999/xlink" width="43.714" height="43.714" viewBox="0 0 43.714 43.714">
  <defs>
    <linearGradient id="linear-gradient" x1="0.144" y1="-0.076" x2="0.679" y2="0.885" gradientUnits="objectBoundingBox">
      <stop offset="0" stop-color="#4366c9"/>
      <stop offset="0.125" stop-color="#7e3ec9"/>
      <stop offset="0.579" stop-color="#e8486b"/>
      <stop offset="1" stop-color="#ffb84f"/>
    </linearGradient>
  </defs>
  <rect id="Rectangle-path" width="42.355" height="3.472" rx="1.736" transform="translate(0.803 23.93)" fill="#e8edfc"/>
  <path id="Shape" d="M56.186,33H54a1.457,1.457,0,0,1,1.457,1.457v.729A1.457,1.457,0,0,1,54,36.643h2.186a1.457,1.457,0,0,0,1.457-1.457v-.729A1.457,1.457,0,0,0,56.186,33Z" transform="translate(-14.658 -8.957)" fill="#cad9fc"/>
  <path id="Shape-2" data-name="Shape" d="M16.114,17.027V17.1a.729.729,0,0,1-.729.729H3.729A.729.729,0,0,1,3,17.1v-.073a3.643,3.643,0,0,1,1.836-3.162L8.1,12h2.914l3.264,1.865A3.643,3.643,0,0,1,16.114,17.027Z" transform="translate(-0.814 -3.257)" fill="#e8edfc"/>
  <path id="Shape-3" data-name="Shape" d="M16.45,13.865,13.186,12H11l3.264,1.865A3.643,3.643,0,0,1,16.1,17.027V17.1a.729.729,0,0,1-.729.729h2.186a.729.729,0,0,0,.729-.729v-.073a3.643,3.643,0,0,0-1.836-3.162Z" transform="translate(-2.986 -3.257)" fill="#cad9fc"/>
  <path id="Rectangle-path-2" data-name="Rectangle-path" d="M10,5h2.914v5.1H10Z" transform="translate(-2.714 -1.357)" fill="#cad9fc"/>
  <path id="Shape-4" data-name="Shape" d="M34.114,17.027V17.1a.729.729,0,0,1-.729.729H21.729A.729.729,0,0,1,21,17.1v-.073a3.643,3.643,0,0,1,1.836-3.162L26.1,12h2.914l3.264,1.865A3.643,3.643,0,0,1,34.114,17.027Z" transform="translate(-5.7 -3.257)" fill="#e8edfc"/>
  <path id="Shape-5" data-name="Shape" d="M34.45,13.865,31.186,12H29l3.264,1.865A3.643,3.643,0,0,1,34.1,17.027V17.1a.729.729,0,0,1-.729.729h2.186a.729.729,0,0,0,.729-.729v-.073a3.643,3.643,0,0,0-1.836-3.162Z" transform="translate(-7.872 -3.257)" fill="#cad9fc"/>
  <path id="Rectangle-path-3" data-name="Rectangle-path" d="M28,5h2.914v5.1H28Z" transform="translate(-7.6 -1.357)" fill="#cad9fc"/>
  <path id="Shape-6" data-name="Shape" d="M52.114,17.027V17.1a.729.729,0,0,1-.729.729H39.729A.729.729,0,0,1,39,17.1v-.073a3.643,3.643,0,0,1,1.836-3.162L44.1,12h2.914l3.264,1.865A3.643,3.643,0,0,1,52.114,17.027Z" transform="translate(-10.586 -3.257)" fill="#e8edfc"/>
  <path id="Shape-7" data-name="Shape" d="M52.45,13.865,49.186,12H47l3.264,1.865A3.643,3.643,0,0,1,52.1,17.027V17.1a.729.729,0,0,1-.729.729h2.186a.729.729,0,0,0,.729-.729v-.073a3.643,3.643,0,0,0-1.836-3.162Z" transform="translate(-12.758 -3.257)" fill="#cad9fc"/>
  <path id="Rectangle-path-4" data-name="Rectangle-path" d="M46,5h2.914v5.1H46Z" transform="translate(-12.486 -1.357)" fill="#cad9fc"/>
  <path id="Shape-8" data-name="Shape" d="M43.257,2.457a1.424,1.424,0,0,1-.43,1.027,1.424,1.424,0,0,1-1.027.43H2.457A1.461,1.461,0,0,1,1,2.457,1.424,1.424,0,0,1,1.43,1.43,1.424,1.424,0,0,1,2.457,1H41.8A1.462,1.462,0,0,1,43.257,2.457Z" transform="translate(-0.271 -0.271)" fill="#e8edfc"/>
  <path id="Shape-9" data-name="Shape" d="M56.186,1H54a1.457,1.457,0,1,1,0,2.914h2.186a1.457,1.457,0,1,0,0-2.914Z" transform="translate(-14.658 -0.271)" fill="#cad9fc"/>
  <path id="Shape-10" data-name="Shape" d="M4,38H41.885v4.371a.729.729,0,0,1-.729.729H4.729A.729.729,0,0,1,4,42.371Z" transform="translate(-1.086 -10.315)" fill="#cad9fc"/>
  <g id="Group_368" data-name="Group 368" transform="translate(3.643 14.571)">
    <path id="Shape-11" data-name="Shape" d="M27.478,45.006h3.416c1.515,3.107-1.125,6.212-.323,9.321a.721.721,0,0,1-.713.874H28.518a.721.721,0,0,1-.713-.874C28.607,51.218,25.963,48.113,27.478,45.006Z" transform="translate(-10.972 -26.788)" fill="#e8edfc"/>
    <path id="Shape-12" data-name="Shape" d="M5.478,45.006H8.893c1.515,3.107-1.125,6.212-.323,9.321a.72.72,0,0,1-.716.874H6.518a.721.721,0,0,1-.716-.874c.805-3.109-1.838-6.215-.323-9.321Z" transform="translate(-5 -26.788)" fill="#e8edfc"/>
    <path id="Shape-13" data-name="Shape" d="M49.478,45.006h3.415c1.515,3.107-1.125,6.212-.323,9.321a.721.721,0,0,1-.713.874H50.518a.72.72,0,0,1-.713-.874C50.607,51.218,47.963,48.113,49.478,45.006Z" transform="translate(-16.943 -26.788)" fill="#e8edfc"/>
    <path id="Shape-14" data-name="Shape" d="M13.24,20a2.02,2.02,0,0,1,.131.729,2.186,2.186,0,0,1-4.371,0A2.019,2.019,0,0,1,9.131,20" transform="translate(-6.086 -20)" fill="#e8edfc"/>
    <path id="Shape-15" data-name="Shape" d="M31.24,20a2.02,2.02,0,0,1,.131.729,2.186,2.186,0,0,1-4.371,0A2.02,2.02,0,0,1,27.131,20" transform="translate(-10.972 -20)" fill="#e8edfc"/>
    <path id="Shape-16" data-name="Shape" d="M49.24,20a2.02,2.02,0,0,1,.131.729,2.186,2.186,0,0,1-4.371,0A2.019,2.019,0,0,1,45.131,20" transform="translate(-15.858 -20)" fill="#e8edfc"/>
  </g>
  <path id="Shape-17" data-name="Shape" d="M11.186,22.914a2.167,2.167,0,0,0,1.093-.3,2.173,2.173,0,0,1-1.093-1.883A2.02,2.02,0,0,1,11.317,20H9.131A2.019,2.019,0,0,0,9,20.729,2.186,2.186,0,0,0,11.186,22.914Z" transform="translate(-2.443 -5.429)" fill="#fff"/>
  <path id="Shape-18" data-name="Shape" d="M3,15.127V15.2a.729.729,0,0,0,.729.729H5.914a.729.729,0,0,1-.729-.729v-.073a3.643,3.643,0,0,1,1.836-3.162L10.286,10.1V5H8.1v5.1L4.836,11.965A3.643,3.643,0,0,0,3,15.127Z" transform="translate(-0.814 -1.357)" fill="#fff"/>
  <path id="Shape-19" data-name="Shape" d="M6.517,55.2H7.853a.737.737,0,0,0,.425-.138.693.693,0,0,1-.291-.737c.8-3.106-1.841-6.212-.326-9.318H5.475c-1.512,3.1,1.131,6.21.326,9.318a.721.721,0,0,0,.716.874Z" transform="translate(-1.357 -12.217)" fill="#fff"/>
  <path id="Shape-20" data-name="Shape" d="M2.457,36.643h.729v4.371a.729.729,0,0,0,.729.729H6.1a.729.729,0,0,1-.729-.729V36.643H4.643a1.457,1.457,0,0,1-1.457-1.457v-.729A1.457,1.457,0,0,1,4.643,33H2.457A1.457,1.457,0,0,0,1,34.457v.729A1.457,1.457,0,0,0,2.457,36.643Z" transform="translate(-0.271 -8.957)" fill="#fff"/>
  <path id="Shape-21" data-name="Shape" d="M2.457,3.914H4.643A1.461,1.461,0,0,1,3.186,2.457a1.424,1.424,0,0,1,.43-1.027A1.424,1.424,0,0,1,4.643,1H2.457a1.424,1.424,0,0,0-1.027.43A1.424,1.424,0,0,0,1,2.457,1.461,1.461,0,0,0,2.457,3.914Z" transform="translate(-0.271 -0.271)" fill="#fff"/>
  <path id="Rectangle-path-5" data-name="Rectangle-path" d="M3,32H8.828v1.457H3Z" transform="translate(-0.814 -8.686)" fill="#fff"/>
  <circle id="Oval" cx="0.694" cy="0.694" r="0.694" transform="translate(4.275 23.236)"/>
  <path id="Shape-22" data-name="Shape" d="M41.528,32H8.014a.729.729,0,0,0,0,1.457H41.528a.729.729,0,0,1,.729.729v.729a.729.729,0,0,1-.729.729H2.186a.729.729,0,0,1-.729-.729v-.729a.729.729,0,0,1,.729-.729.729.729,0,0,0,0-1.457A2.186,2.186,0,0,0,0,34.186v.729A2.186,2.186,0,0,0,2.186,37.1v3.643A1.457,1.457,0,0,0,3.12,42.1a9.115,9.115,0,0,0,.291,4.646,8,8,0,0,1,.327,3.867,1.4,1.4,0,0,0,.254,1.216,1.482,1.482,0,0,0,1.166.572H6.5a1.483,1.483,0,0,0,1.166-.571,1.4,1.4,0,0,0,.254-1.217,8,8,0,0,1,.327-3.867A9.253,9.253,0,0,0,8.562,42.2H19.126a9.253,9.253,0,0,0,.32,4.545,8,8,0,0,1,.327,3.867,1.4,1.4,0,0,0,.254,1.216,1.482,1.482,0,0,0,1.166.572h1.336a1.482,1.482,0,0,0,1.166-.572,1.4,1.4,0,0,0,.254-1.216,8,8,0,0,1,.327-3.867A9.253,9.253,0,0,0,24.59,42.2H35.155a9.253,9.253,0,0,0,.32,4.544,8.006,8.006,0,0,1,.326,3.869,1.4,1.4,0,0,0,.255,1.216,1.483,1.483,0,0,0,1.166.571h1.336a1.483,1.483,0,0,0,1.166-.571,1.4,1.4,0,0,0,.254-1.217,8.014,8.014,0,0,1,.327-3.868A9.065,9.065,0,0,0,40.6,42.1a1.457,1.457,0,0,0,.932-1.356V37.1a2.186,2.186,0,0,0,2.186-2.186v-.729A2.186,2.186,0,0,0,41.528,32ZM22.855,46.4a9.22,9.22,0,0,0-.33,4.544l-1.344.034a9.2,9.2,0,0,0-.322-4.578,7.311,7.311,0,0,1-.227-4.194h2.449A7.311,7.311,0,0,1,22.855,46.4Zm-16.028,0a9.22,9.22,0,0,0-.33,4.544l-1.344.034A9.2,9.2,0,0,0,4.83,46.4,7.311,7.311,0,0,1,4.6,42.2H7.053A7.311,7.311,0,0,1,6.827,46.4Zm32.057,0a9.232,9.232,0,0,0-.33,4.545l-1.345.034a9.2,9.2,0,0,0-.321-4.578,7.309,7.309,0,0,1-.227-4.194H39.11a7.306,7.306,0,0,1-.227,4.193Zm1.188-5.656H3.643V37.1H40.071Z" transform="translate(0 -8.686)" fill="url(#linear-gradient)"/>
  <path id="Shape-23" data-name="Shape" d="M41.528,0H2.186a2.186,2.186,0,1,0,0,4.371H6.557V8.32L3.66,9.975a4.412,4.412,0,0,0-2.2,3.867A1.457,1.457,0,0,0,2.914,15.3H5.828a2.914,2.914,0,0,0,5.828,0h2.914a1.417,1.417,0,0,0,.729-.2,1.448,1.448,0,0,0,.729.2h2.914a2.914,2.914,0,0,0,5.828,0h2.914a1.417,1.417,0,0,0,.729-.2,1.448,1.448,0,0,0,.729.2h2.914a2.914,2.914,0,0,0,5.828,0H40.8a1.475,1.475,0,0,0,1.457-1.53,4.381,4.381,0,0,0-2.2-3.8l-2.9-1.654V4.371h4.371a2.186,2.186,0,1,0,0-4.371ZM19.671,4.371V8.32l-2.9,1.655a4.32,4.32,0,0,0-1.474,1.4,4.362,4.362,0,0,0-1.476-1.4l-2.9-1.655V4.371Zm13.114,0V8.32l-2.9,1.655a4.32,4.32,0,0,0-1.474,1.4,4.362,4.362,0,0,0-1.476-1.4l-2.9-1.655V4.371Zm-10.2,3.643H21.128V4.371h1.457Zm-13.114,0H8.014V4.371H9.471Zm-.729,8.743A1.457,1.457,0,0,1,7.286,15.3H10.2A1.457,1.457,0,0,1,8.743,16.757ZM2.914,13.77a2.919,2.919,0,0,1,1.469-2.53l3.1-1.768h2.527l3.1,1.77a2.954,2.954,0,0,1,1.469,2.594v.008Zm18.943,2.987A1.457,1.457,0,0,1,20.4,15.3h2.914A1.457,1.457,0,0,1,21.857,16.757ZM16.028,13.77A2.919,2.919,0,0,1,17.5,11.24l3.1-1.768H23.12l3.1,1.77a2.954,2.954,0,0,1,1.469,2.594v.008Zm18.943,2.987A1.457,1.457,0,0,1,33.514,15.3h2.914A1.457,1.457,0,0,1,34.971,16.757ZM40.8,13.843,29.142,13.77a2.919,2.919,0,0,1,1.469-2.53l3.1-1.768h2.527l3.1,1.77A2.952,2.952,0,0,1,40.8,13.843ZM35.7,8.014H34.242V4.371H35.7Zm5.829-5.1H2.186a.729.729,0,1,1,0-1.457H41.528a.729.729,0,0,1,0,1.457Z" transform="translate(0)" fill="#545454"/>
</svg>
