<svg id="Group_2968" data-name="Group 2968" xmlns="http://www.w3.org/2000/svg" xmlns:xlink="http://www.w3.org/1999/xlink" width="46.249" height="46.249" viewBox="0 0 46.249 46.249">
  <defs>
    <linearGradient id="linear-gradient" x1="0.08" y1="-0.243" x2="0.745" y2="0.895" gradientUnits="objectBoundingBox">
      <stop offset="0" stop-color="#4366c9"/>
      <stop offset="0.125" stop-color="#7e3ec9"/>
      <stop offset="0.579" stop-color="#e8486b"/>
      <stop offset="1" stop-color="#ffb84f"/>
    </linearGradient>
  </defs>
  <path id="Path_530" data-name="Path 530" d="M365.489,198.745A6.745,6.745,0,1,1,358.745,192,6.745,6.745,0,0,1,365.489,198.745Zm0,0" transform="translate(-320.204 -174.657)" fill="#fff"/>
  <path id="Path_531" data-name="Path 531" d="M269.489,298.668l-.713,6.744h-1.214c-1.927,0-1.927-1.927-3.854-1.927s-1.927,1.927-3.854,1.927-1.927-1.927-3.854-1.927v-4.818Zm0,0" transform="translate(-232.876 -271.689)" fill="#fff"/>
  <path id="Path_532" data-name="Path 532" d="M267.966,361.635l-.4,3.854H256V352c1.927,0,1.927,1.927,3.854,1.927S261.781,352,263.708,352s1.927,1.927,3.854,1.927h1.214Zm0,0" transform="translate(-232.875 -320.204)" fill="url(#linear-gradient)"/>
  <path id="Path_533" data-name="Path 533" d="M29.938,213.332H10.668v22.161h19.27Zm0,0" transform="translate(-9.704 -194.062)" fill="url(#linear-gradient)"/>
  <path id="Path_534" data-name="Path 534" d="M10.668,458.668v1.927a1.933,1.933,0,0,0,1.927,1.927H28.011a1.933,1.933,0,0,0,1.927-1.927v-1.927Zm0,0" transform="translate(-9.704 -417.237)" fill="#fff"/>
  <path id="Path_535" data-name="Path 535" d="M29.938,67.785v-.963a3.854,3.854,0,0,0-3.854-3.854,1.933,1.933,0,0,1-1.927-1.927V53.332H16.449V61.04a1.933,1.933,0,0,1-1.927,1.927,3.849,3.849,0,0,0-3.854,3.854v.963Zm0,0" transform="translate(-9.704 -48.514)" fill="#fff"/>
  <path id="Path_536" data-name="Path 536" d="M64.894,14.522V12.595a1.933,1.933,0,0,0-1.927-1.927H55.259a1.933,1.933,0,0,0-1.927,1.927v1.927Zm0,0" transform="translate(-48.515 -9.704)" fill="#fff"/>
  <g id="Group_371" data-name="Group 371" transform="translate(0)">
    <path id="Path_537" data-name="Path 537" d="M16.38,13.489a.963.963,0,0,1-.963-.963V5.781h.963a.964.964,0,0,0,.964-.964V2.89A2.891,2.891,0,0,0,14.453,0H6.745A2.89,2.89,0,0,0,3.854,2.89V4.817a.963.963,0,0,0,.963.964h.964v6.745a.963.963,0,0,1-.964.963A4.813,4.813,0,0,0,0,18.307V43.358a2.891,2.891,0,0,0,2.891,2.891H18.307A2.891,2.891,0,0,0,21.2,43.358V18.307a4.824,4.824,0,0,0-4.818-4.818ZM5.781,2.89a.964.964,0,0,1,.964-.964h7.708a.964.964,0,0,1,.964.964v.964H5.781ZM19.27,43.358a.963.963,0,0,1-.963.964H2.891a.964.964,0,0,1-.964-.964v-.964H13.489V40.468H1.927V20.234H17.343V18.307H1.927a2.886,2.886,0,0,1,2.891-2.891,2.89,2.89,0,0,0,2.891-2.891V5.781h5.781v6.745a2.891,2.891,0,0,0,2.891,2.891,2.89,2.89,0,0,1,2.891,2.891Zm0,0" transform="translate(0 0)"/>
    <path id="Path_538" data-name="Path 538" d="M170.668,448h1.927v1.927h-1.927Zm0,0" transform="translate(-155.252 -407.532)"/>
    <path id="Path_539" data-name="Path 539" d="M349.04,181.332a7.717,7.717,0,0,0-7.708,7.708h1.927a5.781,5.781,0,1,1,5.781,5.781v1.927a7.708,7.708,0,0,0,0-15.416Zm0,0" transform="translate(-310.5 -164.952)"/>
    <path id="Path_540" data-name="Path 540" d="M271.815,228.817h3.455v-1.927h-2.891V224h-1.927v3.455l-2.326,2.326H256v1.927h12.419l-.507,4.818h-.35c-.542,0-.771-.209-1.246-.681a3.353,3.353,0,0,0-5.217,0c-.472.472-.7.681-1.246.681s-.771-.209-1.246-.681A3.436,3.436,0,0,0,256,234.6v1.927c.542,0,.771.209,1.246.681a3.353,3.353,0,0,0,5.217,0c.472-.472.7-.681,1.246-.681s.771.209,1.246.681a3.435,3.435,0,0,0,2.608,1.246h.146l-.608,5.781h-7.247v1.927H266.9l-.2,1.927H256v1.927h11.562a.963.963,0,0,0,.958-.867l1.927-18.307a.946.946,0,0,0-.122-.539Zm0,0" transform="translate(-232.875 -203.766)"/>
    <path id="Path_541" data-name="Path 541" d="M256,448h1.927v1.927H256Zm0,0" transform="translate(-232.876 -407.532)"/>
    <path id="Path_542" data-name="Path 542" d="M256,103.708a3.434,3.434,0,0,0,1.246,2.608c.472.472.681.7.681,1.246h1.927a3.435,3.435,0,0,0-1.246-2.608c-.472-.475-.681-.7-.681-1.246s.209-.771.681-1.246a3.353,3.353,0,0,0,0-5.217c-.472-.475-.681-.7-.681-1.246H256a3.435,3.435,0,0,0,1.246,2.608c.472.472.681.7.681,1.246s-.209.771-.681,1.246A3.435,3.435,0,0,0,256,103.708Zm0,0" transform="translate(-232.876 -87.328)"/>
    <path id="Path_543" data-name="Path 543" d="M384,29.04a3.435,3.435,0,0,0,1.246,2.608c.472.472.681.7.681,1.246h1.927a3.435,3.435,0,0,0-1.246-2.608c-.472-.475-.681-.7-.681-1.246s.209-.771.681-1.246a3.353,3.353,0,0,0,0-5.217c-.472-.475-.681-.7-.681-1.246H384a3.433,3.433,0,0,0,1.246,2.608c.472.475.681.7.681,1.246s-.209.771-.681,1.246A3.434,3.434,0,0,0,384,29.04Zm0,0" transform="translate(-349.313 -19.405)"/>
    <path id="Path_544" data-name="Path 544" d="M320,61.04a3.435,3.435,0,0,0,1.246,2.608c.472.472.681.7.681,1.246h1.927a3.435,3.435,0,0,0-1.246-2.608c-.472-.475-.681-.7-.681-1.246s.209-.771.681-1.246a3.353,3.353,0,0,0,0-5.217c-.472-.475-.681-.7-.681-1.246H320a3.433,3.433,0,0,0,1.246,2.608c.472.475.681.7.681,1.246s-.209.771-.681,1.246A3.434,3.434,0,0,0,320,61.04Zm0,0" transform="translate(-291.094 -48.515)"/>
    <path id="Path_545" data-name="Path 545" d="M277.332,245.332h1.927v1.927h-1.927Zm0,0" transform="translate(-252.281 -223.171)"/>
  </g>
</svg>
