<svg id="_005-add-user" data-name="005-add-user" xmlns="http://www.w3.org/2000/svg" xmlns:xlink="http://www.w3.org/1999/xlink" width="38.325" height="43.017" viewBox="0 0 38.325 43.017">
  <defs>
    <linearGradient id="linear-gradient" y1="-0.256" x2="0.838" y2="1" gradientUnits="objectBoundingBox">
      <stop offset="0" stop-color="#4366c9"/>
      <stop offset="0.125" stop-color="#7e3ec9"/>
      <stop offset="0.579" stop-color="#e8486b"/>
      <stop offset="1" stop-color="#ffb84f"/>
      <stop offset="1"/>
    </linearGradient>
  </defs>
  <g id="Group_372" data-name="Group 372" transform="translate(0 0)">
    <path id="Path_546" data-name="Path 546" d="M42.443,186.963a8.074,8.074,0,0,0,1.305,4.412H20.419v-4.907A14.625,14.625,0,0,1,35.041,171.84h.925a14.619,14.619,0,0,1,12.617,7.226A8.148,8.148,0,0,0,42.443,186.963Z" transform="translate(-20.419 -152.098)" fill="url(#linear-gradient)"/>
    <ellipse id="Ellipse_65" data-name="Ellipse 65" cx="9.908" cy="9.871" rx="9.908" ry="9.871" transform="translate(5.178 0)" fill="#fff"/>
    <path id="Path_547" data-name="Path 547" d="M228.429,240.684a8.151,8.151,0,1,1-10.161-7.9,8.062,8.062,0,0,1,2.01-.253A8.153,8.153,0,0,1,228.429,240.684Z" transform="translate(-190.103 -205.819)"/>
    <path id="Path_548" data-name="Path 548" d="M8.365,3.676H5.643V.962a.962.962,0,0,0-1.924,0V3.676H.962a.962.962,0,1,0,0,1.924H3.718V8.348a.962.962,0,0,0,1.924,0V5.6H8.364a.962.962,0,1,0,0-1.924Z" transform="translate(23.585 34.887) rotate(-45)" fill="#fff"/>
  </g>
</svg>
