<svg xmlns="http://www.w3.org/2000/svg" xmlns:xlink="http://www.w3.org/1999/xlink" width="1315.392" height="1332.25" viewBox="0 0 1315.392 1332.25">
  <defs>
    <linearGradient id="linear-gradient" x1="0.5" x2="0.5" y2="1" gradientUnits="objectBoundingBox">
      <stop offset="0" stop-color="#4366c9"/>
      <stop offset="0.125" stop-color="#7e3ec9"/>
      <stop offset="0.579" stop-color="#e8486b"/>
      <stop offset="1" stop-color="#ffb84f"/>
    </linearGradient>
    <clipPath id="clip-path">
      <path id="Path_72" data-name="Path 72" d="M0,0S9.529,37.382,13.928,46.91,33.719,68.164,42.514,73.3,133.4,126.07,142.2,129.736s16.858,13.192,17.591,15.391-2.93,27.853-6.6,40.315-5.863,19.058-1.467,19.791,11.729-5.133,21.99-14.661,8.8-23.454,13.192-32.982,7.332-14.661,7.332-21.99-13.928-9.529-20.524-13.925S150.994,101.883,128.273,75.5,65.235,41.778,63.038,41.044,61.572,5.862,61.572,5.862,27.12,10.992,0,0Z" fill="#fff" stroke="#263238" stroke-linecap="round" stroke-linejoin="round" stroke-width="1"/>
    </clipPath>
    <clipPath id="clip-path-2">
      <path id="Path_79" data-name="Path 79" d="M0,13.925S2.2,48.377,8.062,54.973s62.305,42.511,79.163,59.372,46.911,39.578,47.644,41.778,2.93,24.923,2.2,36.649-2.2,24.923,8.8,24.923,16.858-7.332,20.521-27.12,1.467-28.586,1.467-36.652,2.2-21.987-5.863-27.853-16.125-5.863-19.791-5.129-25.653-14.658-34.449-29.319S93.088,53.506,77.7,42.511,48.377,21.257,48.377,21.257L43.978,0S21.257,12.458,0,13.925Z" fill="#fff" stroke="#263238" stroke-linecap="round" stroke-linejoin="round" stroke-width="1"/>
    </clipPath>
    <clipPath id="clip-path-3">
      <path id="Path_87" data-name="Path 87" d="M16.694,1.467S2.766,37.382.566,51.307,6.432,79.16,2.033,93.088,1.74,178.4,1.74,178.4s25.653,16.858,47.644,21.99,26.386-1.467,26.386-1.467v9.529s19.058,5.863,36.649,2.2,47.644-21.991,47.644-21.991-22.427-85.312-22.427-97.04,1.466-24.92-1.467-43.244S120.777,0,120.777,0,60.672,18.324,16.694,1.467Z" fill="#c6ff00" stroke="#263238" stroke-linecap="round" stroke-linejoin="round" stroke-width="1"/>
    </clipPath>
    <clipPath id="clip-path-4">
      <path id="Path_96" data-name="Path 96" d="M115.84,242.392s-11.223-5.612-26.021-14.287a230.157,230.157,0,0,1-24.066-16s-5.527-22.776-14.71-38.082-11.738-19.9-11.738-19.9,19.9-22.45,27.553-37.757,22.45-44.9,30.1-48.471,22.962-10.715,27.553-10.715,6.632-7.652,11.223-11.735,11.227-5.1,11.227-8.675-9.7-.508-9.7-.508,17.35-18.882,17.35-23.473-5.1-3.06-5.1-3.06,0-7.143-2.552-7.655a16.034,16.034,0,0,0-6.123.512S136.25-2.008,133.7,1.052s-5.612,7.143-5.612,7.143-6.635,1.02-9.183,4.592S93.39,34.217,89.307,41.36s-3.572,16.33-3.572,16.33-43.88,37.245-59.186,57.146S-.493,148,.016,155.653s23.473,58.678,32.145,75,29.085,50,29.085,50-22.962,35.208-25,57.658-4.083,59.186-6.123,68.37-5.612,17.35-3.06,21.941,22.45,15.815,34.185,17.858,48.983-5.615,63.778-9.7,19.39-12.246,19.39-15.307-5.1-20.922-4.592-25.513,6.123-38.776,15.818-46.94,27.55-28.065,27.55-28.065,27.553,34.188,42.86,44.9,31.125,28.573,38.268,27.045,42.351-58.678,51.023-77.556,11.227-32.656,15.818-36.228,11.227-21.427,12.247-25-3.063-35.208-3.063-35.208l-4.08-2.04-4.083-2.552s-3.572.512-5.612,1.02-4.083,28.065-4.083,28.065l-9.183,7.652-1.02-17.858s-4.083-3.06-5.612-.508,0,17.347-2.043,22.45-2.04,15.815-.508,18.878a27.338,27.338,0,0,1,2.04,7.652,46.866,46.866,0,0,1-10.2,20.41c-8.163,9.183-41.84,44.9-41.84,44.9s-24.493-39.8-30.613-49.491-5.615-21.43-18.882-29.082-32.145-7.655-32.145-7.655-19.387-8.675-29.081-11.735S115.84,242.392,115.84,242.392Z" fill="#fff" stroke="#263238" stroke-linecap="round" stroke-linejoin="round" stroke-width="1"/>
    </clipPath>
    <clipPath id="clip-path-5">
      <path id="Path_100" data-name="Path 100" d="M97.483,60.317c13.237-18.415,37.76-31.405,47.689-36.14-4.223-1.867-19.638-8.607-27.954-11.233-9.695-3.063-27.553-6.635-27.553-6.635S85,3.973,77.731,0C51.56,11.477,35.07,44.577,35.07,44.577s-22.962,35.2-25,57.658-4.083,59.186-6.123,68.37-5.612,17.35-3.06,21.942S23.335,208.361,35.07,210.4s48.983-5.615,63.778-9.695,19.39-12.247,19.39-15.307-5.1-20.921-4.592-25.513,6.123-38.777,15.818-46.94c1.264-1.066,2.672-2.337,4.155-3.731C107.549,111.946,81.339,82.78,97.483,60.317Z" fill="#c6ff00" stroke="#263238" stroke-linecap="round" stroke-linejoin="round" stroke-width="1"/>
    </clipPath>
    <clipPath id="clip-path-6">
      <path id="Path_111" data-name="Path 111" d="M75.293,70.142S92.125,57.052,92.125,38.819,73.423.485,55.659.016,27.141,9.365,23.4,14.042s-6.078,7.013-6.078,9.35S18.261,29,16.857,30.4s-7.948,4.676-8.88,9.816-1.871,9.353-2.34,12.155S-.441,74.349.028,79.492,14.52,92.113,14.52,92.113a13.394,13.394,0,0,1,1.871,12.155c-2.34,7.013-11.22,15.893-6.547,18.233s36.932-2.34,43.945-3.272,2.806-5.146,2.806-11.22S49.581,85.1,75.293,70.142Z" fill="#fff" stroke="#263238" stroke-linecap="round" stroke-linejoin="round" stroke-width="1"/>
    </clipPath>
    <clipPath id="clip-path-7">
      <circle id="Ellipse_28" data-name="Ellipse 28" cx="53.084" cy="53.084" r="53.084" fill="#c6ff00" stroke="#263238" stroke-linecap="round" stroke-linejoin="round" stroke-width="1"/>
    </clipPath>
    <clipPath id="clip-path-8">
      <path id="Path_131" data-name="Path 131" d="M111.959,0,104.02,18.578S75.154,31.213,61.444,58.711,25.362,114.453,13.813,127.83-.617,144.922.1,156.814s15.154,15.61,26.7,31.216c3.418,4.618,7.938,17.092,25.259,27.5,9.737,5.85,13.71,1.486,12.99-11.891s-14.433-33.442-16.6-48.308-5.775-17.093,0-22.294,59.9-55,78.658-76.553S154.535,5.2,154.535,5.2,127.112,7.43,111.959,0Z" fill="#fff" stroke="#263238" stroke-linecap="round" stroke-linejoin="round" stroke-width="1"/>
    </clipPath>
    <clipPath id="clip-path-9">
      <path id="Path_136" data-name="Path 136" d="M163.045,37.693,154.386,58.5s-25.979,13.377-45.464,28.241S64.9,137.282,55.521,146.2s-27.341,16.522-27.341,16.522-24.536,4.461-26.7,14.867S-.687,221.438,2.92,231.843,30.343,269,37.561,269s8.659-5.944,8.659-11.148-3.607-25.269-3.607-33.442,4.328-37.906,4.328-37.906,57.651-35.844,81.467-53.682,61.341-31.956,70-40.875,21.648-54.256,21.648-54.256,7.218-25.269,6.495-29.727S191.191-1.7,179.645.533,163.045,37.693,163.045,37.693Z" fill="#fff" stroke="#263238" stroke-linecap="round" stroke-linejoin="round" stroke-width="1"/>
    </clipPath>
    <clipPath id="clip-path-10">
      <path id="Path_142" data-name="Path 142" d="M41.133,0s-16.6,33.445-20.2,49.052.72,43.107,4.328,52.766,2.167,17.839-.72,30.473S0,197.692,0,197.692,21.648,215.531,32.474,218.5s22.372,5.2,22.372,5.2L72.886,202.9l-5.051,23.783s25.979,5.2,29.587,5.2h10.826c15.033-69.514,36.886-135.5,25.256-207.354-1.444-8.919-2.164-14.12-2.164-14.12s-26.7,6.687-44.743,1.486S41.133,0,41.133,0Z" fill="#c6ff00" stroke="#263238" stroke-linecap="round" stroke-linejoin="round" stroke-width="1"/>
    </clipPath>
    <clipPath id="clip-path-11">
      <path id="Path_147" data-name="Path 147" d="M6.951,110.659s18.3,10.125,28.472,18.152c0,0,6.778-18.152,11.184-32.464s10.51-35.954,10.51-35.954-6.782-11.52-11.527-14.313S36.779,33.862,34.406,30.02s4.067-4.536,4.067-4.536S32.712,13.267,31.356,8.727,33.39,1.4,35.084,3.49s3.389,6.635,5.084,9.776,7.456,8.727,7.456,8.727S43.218,11.869,42.2,8.727,38.812,0,40.846,0s5.084,3.141,6.778,6.283,9.154,14.661,9.154,14.661L51.013,6.984s-.339-4.54,2.376-3.493S60.845,17.8,60.845,17.8,59.15,5.586,61.523,5.934s1.356,6.632,2.711,10.125,3.389,15.707,5.423,20.6,2.372,12.566,2.034,15.01-1.017,11.52-1.017,11.52S70,119.038,67.962,133.7s-10.506,31.418-13.557,37.352-9.493,6.632-12.882,5.934-19.66-7.332-19.66-7.332A81.387,81.387,0,0,0,12.035,135.1C2.545,118.34-1.522,106.82.512,107.518A61.444,61.444,0,0,1,6.951,110.659Z" fill="#fff" stroke="#263238" stroke-linecap="round" stroke-linejoin="round" stroke-width="1"/>
    </clipPath>
    <clipPath id="clip-path-12">
      <path id="Path_153" data-name="Path 153" d="M102.2.557S68.281,74.877,63.951,89s-2.887,23.783-3.607,31.959-23.815,57.225-25.979,61.686S5.5,219.8,1.89,243.585s-1.444,38.646,1.444,44.59S28.589,324.6,32.92,334.255s4.331,26.755,4.331,34.931-10.106,24.526-5.051,29.73,30.307,16.349,49.071,19.322,35.361,4.461,41.856-2.229,12.99-20.811,14.433-29.727,2.164-55-.723-77.3-28.866-58.714-32.474-66.144-29.587-40.135-29.587-40.135,23.815-61.686,25.979-81.75S115.909,3.529,115.909,3.529A15.372,15.372,0,0,0,102.2.557Z" fill="#fff" stroke="#263238" stroke-linecap="round" stroke-linejoin="round" stroke-width="1"/>
    </clipPath>
    <clipPath id="clip-path-13">
      <path id="Path_158" data-name="Path 158" d="M58.9,71.348C47.353,84.726,25.705,69.119,18.487,53.513,12.836,41.289,13.824,19.1,14.518,10.024,8.629,20.13,3.353,31.229,1.89,40.878-1.718,64.661.446,79.525,3.334,85.469s25.256,36.42,29.587,46.079,4.331,26.755,4.331,34.931-10.106,24.526-5.051,29.73,30.307,16.349,49.071,19.322,35.361,4.461,41.856-2.229,12.99-20.811,14.433-29.727,2.164-55-.723-77.3S107.97,47.565,104.363,40.135,74.776,0,74.776,0V13.381C74.776,21.554,70.445,57.971,58.9,71.348Z" fill="#c6ff00" stroke="#263238" stroke-linecap="round" stroke-linejoin="round" stroke-width="1"/>
    </clipPath>
  </defs>
  <g id="Group_70" data-name="Group 70" transform="matrix(0.966, -0.259, 0.259, 0.966, -40.489, 138.747)">
    <g id="Background_Simple" data-name="Background Simple" transform="translate(0 156.438)">
      <g id="Group_5" data-name="Group 5" transform="translate(0 0)">
        <path id="Path_5" data-name="Path 5" d="M1034.832,361.971C980.7,225.672,874.662,107.83,740.1,50.7,598.25-9.516,398.006-30.083,268.423,68.141c-91.243,69.165-102.056,195.505-98.185,301.143,1.913,52.173,8.453,103.917,13.684,155.813,2.728,27.048,11.572,65.287.192,91.458C153.231,687.588-72.219,761.709,23.521,922.3c67.307,112.9,254,145.8,371.862,154.578,187.169,13.944,386.585-35.15,524.749-167.757C1070.689,764.626,1111.5,555.016,1034.832,361.971Z" fill="url(#linear-gradient)"/>
        <path id="Path_6" data-name="Path 6" d="M1034.832,361.971C980.7,225.672,874.662,107.83,740.1,50.7,598.25-9.516,398.006-30.083,268.423,68.141c-91.243,69.165-102.056,195.505-98.185,301.143,1.913,52.173,8.453,103.917,13.684,155.813,2.728,27.048,11.572,65.287.192,91.458C153.231,687.588-72.219,761.709,23.521,922.3c67.307,112.9,254,145.8,371.862,154.578,187.169,13.944,386.585-35.15,524.749-167.757C1070.689,764.626,1111.5,555.016,1034.832,361.971Z" opacity="0.8" fill="url(#linear-gradient)"/>
      </g>
    </g>
    <g id="Background" transform="translate(15.234 335.902)">
      <g id="Group_29" data-name="Group 29" transform="translate(0 0)">
        <g id="Group_6" data-name="Group 6" transform="translate(0 483.526)">
          <path id="Path_7" data-name="Path 7" d="M0,41.547l167.913,84.947,312.109,44.893,449.64-61.458a479.452,479.452,0,0,0,30.121-75.216L475.746,100.84,163.638,55.947,51.486,0C35.961,13.094,17.936,26.8,0,41.547Z" transform="translate(76.367 0)" opacity="0.2"/>
          <path id="Path_8" data-name="Path 8" d="M205.8,140.536l329.208,40.618,426.9-62.719a492.947,492.947,0,0,0,29.89-45.34l-451.677,58.4-317.222-44.4L51.6,0C31.024,18.839,12.348,39.438,0,62.517Z" transform="translate(0 62.914)" opacity="0.2"/>
        </g>
        <g id="Group_27" data-name="Group 27" transform="translate(4.364 642.24)">
          <g id="Group_7" data-name="Group 7" transform="translate(69.808 68.688)">
            <ellipse id="Ellipse_2" data-name="Ellipse 2" cx="12.353" cy="12.353" rx="12.353" ry="12.353" fill="#c6ff00"/>
            <ellipse id="Ellipse_3" data-name="Ellipse 3" cx="12.353" cy="12.353" rx="12.353" ry="12.353" transform="translate(65.886 10.295)" fill="#fff"/>
            <path id="Path_9" data-name="Path 9" d="M24.705,12.354A12.353,12.353,0,1,1,12.354,0,12.352,12.352,0,0,1,24.705,12.354Z" transform="translate(37.061 26.766)" fill="#c6ff00"/>
            <path id="Path_10" data-name="Path 10" d="M24.705,12.354A12.353,12.353,0,1,1,12.354,0,12.352,12.352,0,0,1,24.705,12.354Z" transform="translate(37.061 26.766)" fill="#fff" opacity="0.5"/>
          </g>
          <g id="Group_8" data-name="Group 8" transform="translate(69.808 21.333)">
            <ellipse id="Ellipse_4" data-name="Ellipse 4" cx="12.353" cy="12.353" rx="12.353" ry="12.353" fill="#c6ff00"/>
            <ellipse id="Ellipse_5" data-name="Ellipse 5" cx="12.353" cy="12.353" rx="12.353" ry="12.353" transform="translate(65.886 10.295)" fill="#fff"/>
            <path id="Path_11" data-name="Path 11" d="M24.705,12.354A12.353,12.353,0,1,1,12.354,0,12.352,12.352,0,0,1,24.705,12.354Z" transform="translate(37.061 26.767)" fill="#c6ff00"/>
            <path id="Path_12" data-name="Path 12" d="M24.705,12.354A12.353,12.353,0,1,1,12.354,0,12.352,12.352,0,0,1,24.705,12.354Z" transform="translate(37.061 26.767)" fill="#fff" opacity="0.5"/>
          </g>
          <g id="Group_9" data-name="Group 9" transform="translate(71.867 116.043)">
            <ellipse id="Ellipse_6" data-name="Ellipse 6" cx="12.353" cy="12.353" rx="12.353" ry="12.353" fill="#c6ff00"/>
            <ellipse id="Ellipse_7" data-name="Ellipse 7" cx="12.353" cy="12.353" rx="12.353" ry="12.353" transform="translate(65.886 10.295)" fill="#fff"/>
            <path id="Path_13" data-name="Path 13" d="M24.7,12.354A12.352,12.352,0,1,1,12.351,0,12.353,12.353,0,0,1,24.7,12.354Z" transform="translate(37.062 26.764)" fill="#c6ff00"/>
            <path id="Path_14" data-name="Path 14" d="M24.7,12.354A12.352,12.352,0,1,1,12.351,0,12.353,12.353,0,0,1,24.7,12.354Z" transform="translate(37.062 26.764)" fill="#fff" opacity="0.5"/>
          </g>
          <g id="Group_10" data-name="Group 10" transform="translate(185.8 67.985)">
            <path id="Path_15" data-name="Path 15" d="M5.883,1.834A12.353,12.353,0,1,1,1.836,18.828,12.353,12.353,0,0,1,5.883,1.834Z" transform="translate(25.761 61.507)" fill="#c6ff00"/>
            <path id="Path_16" data-name="Path 16" d="M5.883,1.834A12.353,12.353,0,1,1,1.836,18.829,12.351,12.351,0,0,1,5.883,1.834Z" transform="translate(0 0)" fill="#fff"/>
            <path id="Path_17" data-name="Path 17" d="M5.881,1.834A12.353,12.353,0,1,1,1.834,18.828,12.354,12.354,0,0,1,5.881,1.834Z" transform="translate(29.136 15.917)" fill="#c6ff00"/>
            <path id="Path_18" data-name="Path 18" d="M5.881,1.834A12.353,12.353,0,1,1,1.834,18.828,12.354,12.354,0,0,1,5.881,1.834Z" transform="translate(29.136 15.917)" fill="#fff" opacity="0.5"/>
          </g>
          <g id="Group_11" data-name="Group 11" transform="translate(351.877 109.865)">
            <ellipse id="Ellipse_8" data-name="Ellipse 8" cx="12.354" cy="12.354" rx="12.354" ry="12.354" transform="translate(23.244 83.028) rotate(-76.643)" fill="#c6ff00"/>
            <path id="Path_19" data-name="Path 19" d="M5.881,1.834A12.354,12.354,0,1,1,1.834,18.828,12.354,12.354,0,0,1,5.881,1.834Z" transform="translate(0 0)" fill="#fff"/>
            <path id="Path_20" data-name="Path 20" d="M5.88,1.834a12.354,12.354,0,1,1-4.044,17A12.357,12.357,0,0,1,5.88,1.834Z" transform="translate(29.135 15.916)" fill="#c6ff00"/>
            <path id="Path_21" data-name="Path 21" d="M5.88,1.834a12.354,12.354,0,1,1-4.044,17A12.357,12.357,0,0,1,5.88,1.834Z" transform="translate(29.135 15.916)" fill="#fff" opacity="0.5"/>
          </g>
          <g id="Group_12" data-name="Group 12" transform="translate(451.394 138.684)">
            <path id="Path_22" data-name="Path 22" d="M.739,16.553a12.353,12.353,0,1,1,15.815,7.42A12.351,12.351,0,0,1,.739,16.553Z" transform="translate(65.463 16.633)" fill="#c6ff00"/>
            <path id="Path_23" data-name="Path 23" d="M.739,16.554a12.353,12.353,0,1,1,15.815,7.42A12.35,12.35,0,0,1,.739,16.554Z" transform="translate(0 29.341)" fill="#fff"/>
            <ellipse id="Ellipse_9" data-name="Ellipse 9" cx="12.354" cy="12.354" rx="12.354" ry="12.354" transform="matrix(0.422, -0.907, 0.907, 0.422, 17.458, 22.403)" fill="#c6ff00"/>
            <ellipse id="Ellipse_10" data-name="Ellipse 10" cx="12.354" cy="12.354" rx="12.354" ry="12.354" transform="matrix(0.422, -0.907, 0.907, 0.422, 17.458, 22.403)" fill="#fff" opacity="0.5"/>
          </g>
          <g id="Group_13" data-name="Group 13" transform="translate(622.016 130.227)">
            <path id="Path_24" data-name="Path 24" d="M.738,16.556a12.355,12.355,0,1,1,15.818,7.417A12.357,12.357,0,0,1,.738,16.556Z" transform="translate(65.463 12.579)" fill="#c6ff00"/>
            <path id="Path_25" data-name="Path 25" d="M.738,16.556a12.355,12.355,0,1,1,15.818,7.42A12.357,12.357,0,0,1,.738,16.556Z" transform="translate(0 25.288)" fill="#fff"/>
            <path id="Path_26" data-name="Path 26" d="M.738,16.556a12.355,12.355,0,1,1,15.818,7.42A12.358,12.358,0,0,1,.738,16.556Z" transform="translate(21.511 0)" fill="#c6ff00"/>
            <path id="Path_27" data-name="Path 27" d="M.738,16.556a12.355,12.355,0,1,1,15.818,7.42A12.358,12.358,0,0,1,.738,16.556Z" transform="translate(21.511 0)" fill="#fff" opacity="0.5"/>
          </g>
          <g id="Group_14" data-name="Group 14" transform="translate(727.021 117.874)">
            <path id="Path_28" data-name="Path 28" d="M.738,16.556a12.355,12.355,0,1,1,15.818,7.42A12.358,12.358,0,0,1,.738,16.556Z" transform="translate(65.463 12.577)" fill="#c6ff00"/>
            <path id="Path_29" data-name="Path 29" d="M.738,16.556a12.355,12.355,0,1,1,15.818,7.42A12.357,12.357,0,0,1,.738,16.556Z" transform="translate(0 25.286)" fill="#fff"/>
            <path id="Path_30" data-name="Path 30" d="M.738,16.554a12.354,12.354,0,1,1,15.818,7.42A12.353,12.353,0,0,1,.738,16.554Z" transform="translate(21.511 0)" fill="#c6ff00"/>
            <path id="Path_31" data-name="Path 31" d="M.738,16.554a12.354,12.354,0,1,1,15.818,7.42A12.353,12.353,0,0,1,.738,16.554Z" transform="translate(21.511 0)" fill="#fff" opacity="0.5"/>
          </g>
          <g id="Group_15" data-name="Group 15" transform="translate(760.866 59.788)">
            <ellipse id="Ellipse_11" data-name="Ellipse 11" cx="12.354" cy="12.354" rx="12.354" ry="12.354" transform="matrix(0.422, -0.907, 0.907, 0.422, 61.408, 30.928)" fill="#c6ff00"/>
            <path id="Path_32" data-name="Path 32" d="M.74,16.553a12.353,12.353,0,1,1,15.815,7.42A12.351,12.351,0,0,1,.74,16.553Z" transform="translate(0 25.288)" fill="#fff"/>
            <path id="Path_33" data-name="Path 33" d="M.74,16.556a12.353,12.353,0,1,1,15.815,7.42A12.353,12.353,0,0,1,.74,16.556Z" transform="translate(21.511 0)" fill="#c6ff00"/>
            <path id="Path_34" data-name="Path 34" d="M.74,16.556a12.353,12.353,0,1,1,15.815,7.42A12.353,12.353,0,0,1,.74,16.556Z" transform="translate(21.511 0)" fill="#fff" opacity="0.5"/>
          </g>
          <g id="Group_16" data-name="Group 16" transform="translate(594.892 175.232)">
            <path id="Path_35" data-name="Path 35" d="M.739,16.556a12.353,12.353,0,1,1,15.815,7.42A12.355,12.355,0,0,1,.739,16.556Z" transform="translate(69.516 16.632)" fill="#c6ff00"/>
            <ellipse id="Ellipse_12" data-name="Ellipse 12" cx="12.354" cy="12.354" rx="12.354" ry="12.354" transform="translate(0 47.69) rotate(-65.059)" fill="#fff"/>
            <ellipse id="Ellipse_13" data-name="Ellipse 13" cx="12.354" cy="12.354" rx="12.354" ry="12.354" transform="translate(21.511 22.403) rotate(-65.059)" fill="#c6ff00"/>
            <ellipse id="Ellipse_14" data-name="Ellipse 14" cx="12.354" cy="12.354" rx="12.354" ry="12.354" transform="translate(21.511 22.403) rotate(-65.059)" fill="#fff" opacity="0.5"/>
          </g>
          <g id="Group_17" data-name="Group 17" transform="translate(543.778 97.285)">
            <path id="Path_36" data-name="Path 36" d="M.739,16.556a12.353,12.353,0,1,1,15.815,7.42A12.355,12.355,0,0,1,.739,16.556Z" transform="translate(65.463 12.577)" fill="#c6ff00"/>
            <path id="Path_37" data-name="Path 37" d="M.739,16.556a12.353,12.353,0,1,1,15.815,7.42A12.355,12.355,0,0,1,.739,16.556Z" transform="translate(0 25.286)" fill="#fff"/>
            <path id="Path_38" data-name="Path 38" d="M.738,16.554a12.353,12.353,0,1,1,15.815,7.42A12.353,12.353,0,0,1,.738,16.554Z" transform="translate(21.513 0)" fill="#c6ff00"/>
            <path id="Path_39" data-name="Path 39" d="M.738,16.554a12.353,12.353,0,1,1,15.815,7.42A12.353,12.353,0,0,1,.738,16.554Z" transform="translate(21.513 0)" fill="#fff" opacity="0.5"/>
          </g>
          <g id="Group_18" data-name="Group 18" transform="translate(393.478 185.145)">
            <path id="Path_40" data-name="Path 40" d="M.738,16.556a12.355,12.355,0,1,1,15.818,7.42A12.358,12.358,0,0,1,.738,16.556Z" transform="translate(65.461 17.368)" fill="#c6ff00"/>
            <path id="Path_41" data-name="Path 41" d="M.74,16.556a12.353,12.353,0,1,1,15.815,7.42A12.353,12.353,0,0,1,.74,16.556Z" transform="translate(0 30.078)" fill="#fff"/>
            <ellipse id="Ellipse_15" data-name="Ellipse 15" cx="12.354" cy="12.354" rx="12.354" ry="12.354" transform="matrix(0.559, -0.829, 0.829, 0.559, 16.72, 20.49)" fill="#c6ff00"/>
            <ellipse id="Ellipse_16" data-name="Ellipse 16" cx="12.354" cy="12.354" rx="12.354" ry="12.354" transform="matrix(0.559, -0.829, 0.829, 0.559, 16.72, 20.49)" fill="#fff" opacity="0.5"/>
          </g>
          <g id="Group_19" data-name="Group 19" transform="translate(291.244 192.219)">
            <path id="Path_42" data-name="Path 42" d="M.738,16.556a12.355,12.355,0,1,1,15.818,7.417A12.356,12.356,0,0,1,.738,16.556Z" transform="translate(65.463 12.579)" fill="#c6ff00"/>
            <path id="Path_43" data-name="Path 43" d="M.738,16.557a12.355,12.355,0,1,1,15.818,7.417A12.356,12.356,0,0,1,.738,16.557Z" transform="translate(0 25.287)" fill="#fff"/>
            <path id="Path_44" data-name="Path 44" d="M.74,16.556a12.353,12.353,0,1,1,15.815,7.42A12.353,12.353,0,0,1,.74,16.556Z" transform="translate(21.513 0)" fill="#c6ff00"/>
            <path id="Path_45" data-name="Path 45" d="M.74,16.556a12.353,12.353,0,1,1,15.815,7.42A12.353,12.353,0,0,1,.74,16.556Z" transform="translate(21.513 0)" fill="#fff" opacity="0.5"/>
          </g>
          <g id="Group_20" data-name="Group 20" transform="translate(238.323 156.913)">
            <path id="Path_46" data-name="Path 46" d="M.739,16.554a12.353,12.353,0,1,1,15.815,7.42A12.35,12.35,0,0,1,.739,16.554Z" transform="translate(65.463 12.578)" fill="#c6ff00"/>
            <path id="Path_47" data-name="Path 47" d="M.739,16.554a12.353,12.353,0,1,1,15.815,7.42A12.35,12.35,0,0,1,.739,16.554Z" transform="translate(0 25.287)" fill="#fff"/>
            <path id="Path_48" data-name="Path 48" d="M.739,16.556a12.353,12.353,0,1,1,15.815,7.42A12.355,12.355,0,0,1,.739,16.556Z" transform="translate(21.511 0)" fill="#c6ff00"/>
            <path id="Path_49" data-name="Path 49" d="M.739,16.556a12.353,12.353,0,1,1,15.815,7.42A12.355,12.355,0,0,1,.739,16.556Z" transform="translate(21.511 0)" fill="#fff" opacity="0.5"/>
          </g>
          <g id="Group_21" data-name="Group 21" transform="translate(420.277 82.401)">
            <path id="Path_50" data-name="Path 50" d="M.738,16.556a12.355,12.355,0,1,1,15.818,7.42A12.357,12.357,0,0,1,.738,16.556Z" transform="translate(70.26 17.391)" fill="#c6ff00"/>
            <ellipse id="Ellipse_17" data-name="Ellipse 17" cx="12.354" cy="12.354" rx="12.354" ry="12.354" transform="translate(0 45.762) rotate(-55.905)" fill="#fff"/>
            <ellipse id="Ellipse_18" data-name="Ellipse 18" cx="12.354" cy="12.354" rx="12.354" ry="12.354" transform="translate(21.496 20.396) rotate(-55.64)" fill="#c6ff00"/>
            <ellipse id="Ellipse_19" data-name="Ellipse 19" cx="12.354" cy="12.354" rx="12.354" ry="12.354" transform="translate(21.496 20.396) rotate(-55.64)" fill="#fff" opacity="0.5"/>
          </g>
          <g id="Group_22" data-name="Group 22" transform="translate(253.112 57.81)">
            <ellipse id="Ellipse_20" data-name="Ellipse 20" cx="12.354" cy="12.354" rx="12.354" ry="12.354" transform="translate(65.463 30.927) rotate(-65.059)" fill="#c6ff00"/>
            <ellipse id="Ellipse_21" data-name="Ellipse 21" cx="12.354" cy="12.354" rx="12.354" ry="12.354" transform="translate(0 43.637) rotate(-65.059)" fill="#fff"/>
            <path id="Path_51" data-name="Path 51" d="M.739,16.556a12.353,12.353,0,1,1,15.815,7.42A12.355,12.355,0,0,1,.739,16.556Z" transform="translate(25.565 0)" fill="#c6ff00"/>
            <path id="Path_52" data-name="Path 52" d="M.739,16.556a12.353,12.353,0,1,1,15.815,7.42A12.355,12.355,0,0,1,.739,16.556Z" transform="translate(25.565 0)" fill="#fff" opacity="0.5"/>
          </g>
          <g id="Group_23" data-name="Group 23" transform="translate(511.585 155.104)">
            <path id="Path_53" data-name="Path 53" d="M20.532,3.094A12.354,12.354,0,1,1,3.094,4.176,12.355,12.355,0,0,1,20.532,3.094Z" transform="translate(0 42.57)" fill="#c6ff00"/>
            <path id="Path_54" data-name="Path 54" d="M20.53,3.094A12.353,12.353,0,1,1,3.093,4.176,12.351,12.351,0,0,1,20.53,3.094Z" transform="translate(51.328 0)" fill="#fff"/>
            <path id="Path_55" data-name="Path 55" d="M20.532,3.1A12.353,12.353,0,1,1,3.094,4.177,12.351,12.351,0,0,1,20.532,3.1Z" transform="translate(44.594 32.509)" fill="#c6ff00"/>
            <path id="Path_56" data-name="Path 56" d="M20.532,3.1A12.353,12.353,0,1,1,3.094,4.177,12.351,12.351,0,0,1,20.532,3.1Z" transform="translate(44.594 32.509)" fill="#fff" opacity="0.5"/>
          </g>
          <g id="Group_24" data-name="Group 24" transform="translate(668.073 66.686)">
            <path id="Path_57" data-name="Path 57" d="M20.532,3.094A12.354,12.354,0,1,1,3.094,4.176,12.351,12.351,0,0,1,20.532,3.094Z" transform="translate(0 42.573)" fill="#c6ff00"/>
            <path id="Path_58" data-name="Path 58" d="M20.529,3.094A12.353,12.353,0,1,1,3.094,4.176,12.355,12.355,0,0,1,20.529,3.094Z" transform="translate(51.329 0)" fill="#fff"/>
            <path id="Path_59" data-name="Path 59" d="M20.532,3.094A12.353,12.353,0,1,1,3.094,4.176,12.355,12.355,0,0,1,20.532,3.094Z" transform="translate(44.594 32.51)" fill="#c6ff00"/>
            <path id="Path_60" data-name="Path 60" d="M20.532,3.094A12.353,12.353,0,1,1,3.094,4.176,12.355,12.355,0,0,1,20.532,3.094Z" transform="translate(44.594 32.51)" fill="#fff" opacity="0.5"/>
          </g>
          <g id="Group_25" data-name="Group 25" transform="translate(166.77 109.124)">
            <path id="Path_61" data-name="Path 61" d="M13.094,24.685A12.354,12.354,0,1,1,24.685,11.611,12.355,12.355,0,0,1,13.094,24.685Z" transform="translate(24.493 0)" fill="#c6ff00"/>
            <path id="Path_62" data-name="Path 62" d="M13.1,24.685A12.354,12.354,0,1,1,24.685,11.611,12.358,12.358,0,0,1,13.1,24.685Z" transform="translate(18.174 66.385)" fill="#fff"/>
            <path id="Path_63" data-name="Path 63" d="M13.1,24.685A12.354,12.354,0,1,1,24.685,11.611,12.353,12.353,0,0,1,13.1,24.685Z" transform="translate(0 38.601)" fill="#c6ff00"/>
            <path id="Path_64" data-name="Path 64" d="M13.1,24.685A12.354,12.354,0,1,1,24.685,11.611,12.353,12.353,0,0,1,13.1,24.685Z" transform="translate(0 38.601)" fill="#fff" opacity="0.5"/>
          </g>
          <g id="Group_26" data-name="Group 26" transform="translate(0 0)">
            <path id="Path_65" data-name="Path 65" d="M13.1,24.685A12.354,12.354,0,1,1,24.685,11.611,12.353,12.353,0,0,1,13.1,24.685Z" transform="translate(24.49 0)" fill="#c6ff00"/>
            <ellipse id="Ellipse_22" data-name="Ellipse 22" cx="12.354" cy="12.354" rx="12.354" ry="12.354" transform="translate(16.684 89.399) rotate(-82.598)" fill="#fff"/>
            <path id="Path_66" data-name="Path 66" d="M13.094,24.685A12.354,12.354,0,1,1,24.685,11.611,12.357,12.357,0,0,1,13.094,24.685Z" transform="translate(0 38.604)" fill="#c6ff00"/>
            <path id="Path_67" data-name="Path 67" d="M13.094,24.685A12.354,12.354,0,1,1,24.685,11.611,12.357,12.357,0,0,1,13.094,24.685Z" transform="translate(0 38.604)" fill="#fff" opacity="0.5"/>
          </g>
        </g>
        <path id="Path_68" data-name="Path 68" d="M0,0,128.369,64.037l312.108,44.892L951.571,39.106" transform="translate(111.637 475.437)" fill="none" stroke="#263238" stroke-linecap="round" stroke-linejoin="round" stroke-width="1"/>
        <path id="Path_69" data-name="Path 69" d="M0,0,181.707,91.922l312.108,44.892,479.313-62.86" transform="translate(41.198 541.612)" fill="none" stroke="#263238" stroke-linecap="round" stroke-linejoin="round" stroke-width="1"/>
        <g id="Group_28" data-name="Group 28" transform="translate(198.518 0)">
          <ellipse id="Ellipse_23" data-name="Ellipse 23" cx="53.682" cy="53.682" rx="53.682" ry="53.682" fill="#fff"/>
          <ellipse id="Ellipse_24" data-name="Ellipse 24" cx="53.682" cy="53.682" rx="53.682" ry="53.682" transform="translate(653.941 245.634)" fill="#fff"/>
          <ellipse id="Ellipse_25" data-name="Ellipse 25" cx="53.682" cy="53.682" rx="53.682" ry="53.682" transform="translate(582.365 217.98)" fill="#fff"/>
          <ellipse id="Ellipse_26" data-name="Ellipse 26" cx="53.682" cy="53.682" rx="53.682" ry="53.682" transform="translate(40.668 344.864)" fill="#fff"/>
        </g>
      </g>
    </g>
    <g id="Character_2" data-name="Character 2" transform="translate(545.992 183.685)">
      <g id="Group_47" data-name="Group 47" transform="translate(0 0)">
        <g id="Group_31" data-name="Group 31" transform="translate(35.406 608.936)">
          <path id="Path_70" data-name="Path 70" d="M0,0S9.529,37.382,13.928,46.91,33.719,68.164,42.514,73.3,133.4,126.07,142.2,129.736s16.858,13.192,17.591,15.391-2.93,27.853-6.6,40.315-5.863,19.058-1.467,19.791,11.729-5.133,21.99-14.661,8.8-23.454,13.192-32.982,7.332-14.661,7.332-21.99-13.928-9.529-20.524-13.925S150.994,101.883,128.273,75.5,65.235,41.778,63.038,41.044,61.572,5.862,61.572,5.862,27.12,10.992,0,0Z" transform="translate(0 0)" fill="#fff"/>
          <g id="Group_30" data-name="Group 30" transform="translate(0 0)" clip-path="url(#clip-path)">
            <path id="Path_71" data-name="Path 71" d="M0,0S9.529,37.382,13.928,46.91,33.719,68.164,42.514,73.3,133.4,126.07,142.2,129.736s16.858,13.192,17.591,15.391-2.93,27.853-6.6,40.315-5.863,19.058-1.467,19.791,11.729-5.133,21.99-14.661,8.8-23.454,13.192-32.982,7.332-14.661,7.332-21.99-13.928-9.529-20.524-13.925S150.994,101.883,128.273,75.5,65.235,41.778,63.038,41.044,61.572,5.862,61.572,5.862,27.12,10.992,0,0Z" opacity="0.27"/>
          </g>
          <path id="Path_73" data-name="Path 73" d="M0,0S9.529,37.382,13.928,46.91,33.719,68.164,42.514,73.3,133.4,126.07,142.2,129.736s16.858,13.192,17.591,15.391-2.93,27.853-6.6,40.315-5.863,19.058-1.467,19.791,11.729-5.133,21.99-14.661,8.8-23.454,13.192-32.982,7.332-14.661,7.332-21.99-13.928-9.529-20.524-13.925S150.994,101.883,128.273,75.5,65.235,41.778,63.038,41.044,61.572,5.862,61.572,5.862,27.12,10.992,0,0Z" transform="translate(0 0)" fill="none" stroke="#263238" stroke-linecap="round" stroke-linejoin="round" stroke-width="1"/>
        </g>
        <path id="Path_74" data-name="Path 74" d="M27.84,15.336C24.474,13.091,18.614,7.968,10.676,0,9.379,12.26,4.553,20.315,0,25.285,7.254,29.629,13.283,36.9,13.912,38.79c.733,2.2-2.93,27.853-6.6,40.315S1.453,98.162,5.85,98.895s11.728-5.133,21.99-14.661,8.8-23.454,13.192-32.982,7.332-14.661,7.332-21.99S34.436,19.732,27.84,15.336Z" transform="translate(181.284 715.274)" fill="#fff" stroke="#263238" stroke-linecap="round" stroke-linejoin="round" stroke-width="1"/>
        <path id="Path_75" data-name="Path 75" d="M44.954,11.178c0-5.661-8.3-8.261-15.121-11.178a15.2,15.2,0,0,1-1.74,10.444C22.23,20.706,10.5,20.706,10.5,20.706c.733,2.2-2.93,27.853-6.6,40.315S-1.957,80.079,2.439,80.812,14.168,75.679,24.43,66.15s8.8-23.454,13.192-32.982S44.954,18.507,44.954,11.178Z" transform="translate(184.694 733.357)" fill="#c6ff00" stroke="#263238" stroke-linecap="round" stroke-linejoin="round" stroke-width="1"/>
        <g id="Group_33" data-name="Group 33" transform="translate(112.37 616.265)">
          <path id="Path_76" data-name="Path 76" d="M0,13.925S2.2,48.377,8.062,54.973s62.305,42.511,79.163,59.372,46.911,39.578,47.644,41.778,2.93,24.923,2.2,36.649-2.2,24.923,8.8,24.923,16.858-7.332,20.521-27.12,1.467-28.586,1.467-36.652,2.2-21.987-5.863-27.853-16.125-5.863-19.791-5.129-25.653-14.658-34.449-29.319S93.088,53.506,77.7,42.511,48.377,21.257,48.377,21.257L43.978,0S21.257,12.458,0,13.925Z" transform="translate(0 0)" fill="#fff"/>
          <g id="Group_32" data-name="Group 32" transform="translate(0 0)" clip-path="url(#clip-path-2)">
            <path id="Path_77" data-name="Path 77" d="M0,13.925S2.2,48.377,8.062,54.973s62.305,42.511,79.163,59.372,46.911,39.578,47.644,41.778,2.93,24.923,2.2,36.649-2.2,24.923,8.8,24.923,16.858-7.332,20.521-27.12,1.467-28.586,1.467-36.652,2.2-21.987-5.863-27.853-16.125-5.863-19.791-5.129-25.653-14.658-34.449-29.319S93.088,53.506,77.7,42.511,48.377,21.257,48.377,21.257L43.978,0S21.257,12.458,0,13.925Z" opacity="0.1"/>
            <path id="Path_78" data-name="Path 78" d="M60.016,0s-2.278,17.083,7.971,23.913,11.386,17.079,2.275,22.776S65.709,63.768,85.067,85.4s78.57,62.628,75.151,72.877-13.664,15.939-27.328,10.246S46.352,87.678,20.161,69.462.8,9.112.8,9.112,45.211,22.776,60.016,0Z" transform="translate(-8.716 -6.694)" opacity="0.2"/>
          </g>
          <path id="Path_80" data-name="Path 80" d="M0,13.925S2.2,48.377,8.062,54.973s62.305,42.511,79.163,59.372,46.911,39.578,47.644,41.778,2.93,24.923,2.2,36.649-2.2,24.923,8.8,24.923,16.858-7.332,20.521-27.12,1.467-28.586,1.467-36.652,2.2-21.987-5.863-27.853-16.125-5.863-19.791-5.129-25.653-14.658-34.449-29.319S93.088,53.506,77.7,42.511,48.377,21.257,48.377,21.257L43.978,0S21.257,12.458,0,13.925Z" transform="translate(0 0)" fill="none" stroke="#263238" stroke-linecap="round" stroke-linejoin="round" stroke-width="1"/>
        </g>
        <path id="Path_81" data-name="Path 81" d="M67.268,18.895C55.53,10.431,46.3,3.63,46.3,3.63L45.548,0C35.3,7.678,17.532,18.3,0,16.108,1.29,25.028,3.233,34.25,5.983,37.346,7.515,39.07,12.52,42.8,19.348,47.67,24.923,47.973,55.37,48.217,67.268,18.895Z" transform="translate(114.449 633.892)" fill="#263238" stroke="#263238" stroke-linecap="round" stroke-linejoin="round" stroke-width="1"/>
        <path id="Path_82" data-name="Path 82" d="M41.537,8.841C33.474,2.979,25.412,2.979,21.746,3.712c-1.173.235-4.233-1.2-8.128-3.712A28.388,28.388,0,0,1,6.355,19.836C4.028,22.424,1.916,24.532,0,26.286c8.072,6.68,14.094,11.64,14.417,12.608.733,2.2,2.93,24.923,2.2,36.649s-2.2,24.923,8.8,24.923,16.858-7.332,20.521-27.12S47.4,44.76,47.4,36.694,49.6,14.707,41.537,8.841Z" transform="translate(232.822 733.494)" fill="#fff" stroke="#263238" stroke-linecap="round" stroke-linejoin="round" stroke-width="1"/>
        <path id="Path_83" data-name="Path 83" d="M31.516,69.967c3.666-19.791,1.467-28.586,1.467-36.652s2.2-21.987-5.863-27.853S11-.4,7.329.333c0,0,10.262,3.666,11.728,12.462s-.733,20.521-7.329,24.187S0,35.515,0,35.515c.733,2.2,2.93,24.923,2.2,36.649S0,97.087,11,97.087,27.853,89.755,31.516,69.967Z" transform="translate(247.238 736.873)" fill="#c6ff00" stroke="#263238" stroke-linecap="round" stroke-linejoin="round" stroke-width="1"/>
        <g id="Group_35" data-name="Group 35" transform="translate(17.542 426.137)">
          <path id="Path_84" data-name="Path 84" d="M16.694,1.467S2.766,37.382.566,51.307,6.432,79.16,2.033,93.088,1.74,178.4,1.74,178.4s25.653,16.858,47.644,21.99,26.386-1.467,26.386-1.467v9.529s19.058,5.863,36.649,2.2,47.644-21.991,47.644-21.991-22.427-85.312-22.427-97.04,1.466-24.92-1.467-43.244S120.777,0,120.777,0,60.672,18.324,16.694,1.467Z" transform="translate(0 0)" fill="#c6ff00"/>
          <g id="Group_34" data-name="Group 34" transform="translate(0 0)" clip-path="url(#clip-path-3)">
            <path id="Path_85" data-name="Path 85" d="M100.772,91.621c0-11.728,1.466-24.92-1.467-43.244S83.914,0,83.914,0,40.162,13.322,0,6.765L6.84,20.351S28.277,35.267,39.552,35.267s4.23-21.15,8.46-15.509,14.1,22.557,21.146,50.753,8.46,43.7,12.69,73.31,21.146,50.756,12.69,52.164-25.379-15.509-25.379-5.638c0,6.55-11.556,12.814-19,20.5,7.019,1.053,16.4,1.675,25.4-.2,17.591-3.666,47.644-21.991,47.644-21.991S100.772,103.35,100.772,91.621Z" transform="translate(36.863 0)" opacity="0.2"/>
            <path id="Path_86" data-name="Path 86" d="M9,102.854s2.526-81.4-.632-72.567S-1.1,61.207.164,49.218,12.154,0,12.154,0s10.728,5.048,10.1,16.4,10.728,89.6,10.728,89.6v11.36" transform="translate(43.539 99.019)" opacity="0.2"/>
            <line id="Line_1" data-name="Line 1" x1="18.03" y1="114.632" transform="translate(62.871 109.213)"/>
          </g>
          <path id="Path_88" data-name="Path 88" d="M16.694,1.467S2.766,37.382.566,51.307,6.432,79.16,2.033,93.088,1.74,178.4,1.74,178.4s25.653,16.858,47.644,21.99,26.386-1.467,26.386-1.467v9.529s19.058,5.863,36.649,2.2,47.644-21.991,47.644-21.991-22.427-85.312-22.427-97.04,1.466-24.92-1.467-43.244S120.777,0,120.777,0,60.672,18.324,16.694,1.467Z" transform="translate(0 0)" fill="none" stroke="#263238" stroke-linecap="round" stroke-linejoin="round" stroke-width="1"/>
        </g>
        <g id="Group_36" data-name="Group 36" transform="translate(119.402 427.303)">
          <path id="Path_89" data-name="Path 89" d="M39.493,178.8c-5.53-9.675-27.149-91.374-24.985-117.33C16.255,40.481,9.134,11.979,5.775,0,4,.385,2.066.782,0,1.176c3.194,11.4,10.337,39.741,8.665,59.8C6.43,87.786,27.934,170.4,34.4,181.708a68.988,68.988,0,0,1,5.576,13.811c1.841-.945,3.614-1.88,5.279-2.78A72.289,72.289,0,0,0,39.493,178.8Z" transform="translate(0 2.112)" fill="#263238"/>
          <path id="Path_90" data-name="Path 90" d="M28.035,139.552C16.444,113.468,12.9,77.446,14.313,57.681c1.1-15.427-4.989-41.9-8.258-56.12Q5.874.779,5.693,0C4.162.4,2.245.877,0,1.395c.111.482.215.948.339,1.48C3.539,16.8,9.5,42.71,8.463,57.261,7.023,77.452,13.869,126.2,26.005,153.5A269.926,269.926,0,0,1,39.66,193c2.02-1.121,3.8-2.131,5.266-2.975C42.162,179.779,34.39,153.845,28.035,139.552Z" transform="translate(8.994 0)" fill="#263238"/>
        </g>
        <line id="Line_2" data-name="Line 2" x1="14.821" y1="7.712" transform="translate(168.371 313.257)" fill="none" stroke="#263238" stroke-linecap="round" stroke-linejoin="round" stroke-width="1"/>
        <line id="Line_3" data-name="Line 3" x1="11.728" y2="4.398" transform="translate(161.774 311.791)" fill="none" stroke="#263238" stroke-linecap="round" stroke-linejoin="round" stroke-width="1"/>
        <g id="Group_42" data-name="Group 42">
          <g id="Group_38" data-name="Group 38">
            <path id="Path_91" data-name="Path 91" d="M115.84,242.392s-11.223-5.612-26.021-14.287a230.157,230.157,0,0,1-24.066-16s-5.527-22.776-14.71-38.082-11.738-19.9-11.738-19.9,19.9-22.45,27.553-37.757,22.45-44.9,30.1-48.471,22.962-10.715,27.553-10.715,6.632-7.652,11.223-11.735,11.227-5.1,11.227-8.675-9.7-.508-9.7-.508,17.35-18.882,17.35-23.473-5.1-3.06-5.1-3.06,0-7.143-2.552-7.655a16.034,16.034,0,0,0-6.123.512S136.25-2.008,133.7,1.052s-5.612,7.143-5.612,7.143-6.635,1.02-9.183,4.592S93.39,34.217,89.307,41.36s-3.572,16.33-3.572,16.33-43.88,37.245-59.186,57.146S-.493,148,.016,155.653s23.473,58.678,32.145,75,29.085,50,29.085,50-22.962,35.208-25,57.658-4.083,59.186-6.123,68.37-5.612,17.35-3.06,21.941,22.45,15.815,34.185,17.858,48.983-5.615,63.778-9.7,19.39-12.246,19.39-15.307-5.1-20.922-4.592-25.513,6.123-38.776,15.818-46.94,27.55-28.065,27.55-28.065,27.553,34.188,42.86,44.9,31.125,28.573,38.268,27.045,42.351-58.678,51.023-77.556,11.227-32.656,15.818-36.228,11.227-21.427,12.247-25-3.063-35.208-3.063-35.208l-4.08-2.04-4.083-2.552s-3.572.512-5.612,1.02-4.083,28.065-4.083,28.065l-9.183,7.652-1.02-17.858s-4.083-3.06-5.612-.508,0,17.347-2.043,22.45-2.04,15.815-.508,18.878a27.338,27.338,0,0,1,2.04,7.652,46.866,46.866,0,0,1-10.2,20.41c-8.163,9.183-41.84,44.9-41.84,44.9s-24.493-39.8-30.613-49.491-5.615-21.43-18.882-29.082-32.145-7.655-32.145-7.655-19.387-8.675-29.081-11.735S115.84,242.392,115.84,242.392Z" fill="#fff"/>
            <g id="Group_37" data-name="Group 37" clip-path="url(#clip-path-4)">
              <path id="Path_92" data-name="Path 92" d="M115.84,242.392s-11.223-5.612-26.021-14.287a230.157,230.157,0,0,1-24.066-16s-5.527-22.776-14.71-38.082-11.738-19.9-11.738-19.9,19.9-22.45,27.553-37.757,22.45-44.9,30.1-48.471,22.962-10.715,27.553-10.715,6.632-7.652,11.223-11.735,11.227-5.1,11.227-8.675-9.7-.508-9.7-.508,17.35-18.882,17.35-23.473-5.1-3.06-5.1-3.06,0-7.143-2.552-7.655a16.034,16.034,0,0,0-6.123.512S136.25-2.008,133.7,1.052s-5.612,7.143-5.612,7.143-6.635,1.02-9.183,4.592S93.39,34.217,89.307,41.36s-3.572,16.33-3.572,16.33-43.88,37.245-59.186,57.146S-.493,148,.016,155.653s23.473,58.678,32.145,75,29.085,50,29.085,50-22.962,35.208-25,57.658-4.083,59.186-6.123,68.37-5.612,17.35-3.06,21.941,22.45,15.815,34.185,17.858,48.983-5.615,63.778-9.7,19.39-12.246,19.39-15.307-5.1-20.922-4.592-25.513,6.123-38.776,15.818-46.94,27.55-28.065,27.55-28.065,27.553,34.188,42.86,44.9,31.125,28.573,38.268,27.045,42.351-58.678,51.023-77.556,11.227-32.656,15.818-36.228,11.227-21.427,12.247-25-3.063-35.208-3.063-35.208l-4.08-2.04-4.083-2.552s-3.572.512-5.612,1.02-4.083,28.065-4.083,28.065l-9.183,7.652-1.02-17.858s-4.083-3.06-5.612-.508,0,17.347-2.043,22.45-2.04,15.815-.508,18.878a27.338,27.338,0,0,1,2.04,7.652,46.866,46.866,0,0,1-10.2,20.41c-8.163,9.183-41.84,44.9-41.84,44.9s-24.493-39.8-30.613-49.491-5.615-21.43-18.882-29.082-32.145-7.655-32.145-7.655-19.387-8.675-29.081-11.735S115.84,242.392,115.84,242.392Z" opacity="0.1"/>
              <path id="Path_93" data-name="Path 93" d="M29.425,60.708s41.9,11.8,44.688,11.8c3.373,0-21.078,5.9-34.569,26.983S8.347,150.081,1.6,158.515s9.275,12.647,21.078,1.685S58.092,90.217,67.367,84.315,91.818,73.356,102.78,65.766s20.234-20.234,25.295-32.881S109.526,0,109.526,0,69.055,59.864,29.425,60.708Z" transform="translate(29.38 -9.347)" opacity="0.2"/>
              <path id="Path_94" data-name="Path 94" d="M2.558,27.132S-5.029-11.655,5.93,3.522s25.295,62.393,37.1,75.044,14.332,5.9,14.332,5.9L54.835,123.25S10.991,67.6,2.558,27.132Z" transform="translate(8.186 165.88)" opacity="0.2"/>
              <path id="Path_95" data-name="Path 95" d="M0,43.828s20.1,1.629,33.132-12.491,24.982-18.468,35.3-10.321,53.226,60.832,67.891,70.064,24.985-7.6,30.418-15.209,31.5-48.338,36.388-57.029A191.169,191.169,0,0,1,215.837,0S201.5,52.519,187.925,73.157s-27.7,43.45-36.935,45.623-40.735-10.862-54.311-28.244S70.609,55.778,64.091,58.492,49.967,72.072,41.279,72.072,6.518,67.724,0,43.828Z" transform="translate(115.322 279.129)" opacity="0.2"/>
            </g>
            <path id="Path_97" data-name="Path 97" d="M115.84,242.392s-11.223-5.612-26.021-14.287a230.157,230.157,0,0,1-24.066-16s-5.527-22.776-14.71-38.082-11.738-19.9-11.738-19.9,19.9-22.45,27.553-37.757,22.45-44.9,30.1-48.471,22.962-10.715,27.553-10.715,6.632-7.652,11.223-11.735,11.227-5.1,11.227-8.675-9.7-.508-9.7-.508,17.35-18.882,17.35-23.473-5.1-3.06-5.1-3.06,0-7.143-2.552-7.655a16.034,16.034,0,0,0-6.123.512S136.25-2.008,133.7,1.052s-5.612,7.143-5.612,7.143-6.635,1.02-9.183,4.592S93.39,34.217,89.307,41.36s-3.572,16.33-3.572,16.33-43.88,37.245-59.186,57.146S-.493,148,.016,155.653s23.473,58.678,32.145,75,29.085,50,29.085,50-22.962,35.208-25,57.658-4.083,59.186-6.123,68.37-5.612,17.35-3.06,21.941,22.45,15.815,34.185,17.858,48.983-5.615,63.778-9.7,19.39-12.246,19.39-15.307-5.1-20.922-4.592-25.513,6.123-38.776,15.818-46.94,27.55-28.065,27.55-28.065,27.553,34.188,42.86,44.9,31.125,28.573,38.268,27.045,42.351-58.678,51.023-77.556,11.227-32.656,15.818-36.228,11.227-21.427,12.247-25-3.063-35.208-3.063-35.208l-4.08-2.04-4.083-2.552s-3.572.512-5.612,1.02-4.083,28.065-4.083,28.065l-9.183,7.652-1.02-17.858s-4.083-3.06-5.612-.508,0,17.347-2.043,22.45-2.04,15.815-.508,18.878a27.338,27.338,0,0,1,2.04,7.652,46.866,46.866,0,0,1-10.2,20.41c-8.163,9.183-41.84,44.9-41.84,44.9s-24.493-39.8-30.613-49.491-5.615-21.43-18.882-29.082-32.145-7.655-32.145-7.655-19.387-8.675-29.081-11.735S115.84,242.392,115.84,242.392Z" fill="none" stroke="#263238" stroke-linecap="round" stroke-linejoin="round" stroke-width="1"/>
          </g>
          <g id="Group_40" data-name="Group 40" transform="translate(26.175 236.083)">
            <path id="Path_98" data-name="Path 98" d="M97.483,60.317c13.237-18.415,37.76-31.405,47.689-36.14-4.223-1.867-19.638-8.607-27.954-11.233-9.695-3.063-27.553-6.635-27.553-6.635S85,3.973,77.731,0C51.56,11.477,35.07,44.577,35.07,44.577s-22.962,35.2-25,57.658-4.083,59.186-6.123,68.37-5.612,17.35-3.06,21.942S23.335,208.361,35.07,210.4s48.983-5.615,63.778-9.695,19.39-12.247,19.39-15.307-5.1-20.921-4.592-25.513,6.123-38.777,15.818-46.94c1.264-1.066,2.672-2.337,4.155-3.731C107.549,111.946,81.339,82.78,97.483,60.317Z" transform="translate(0 0)" fill="#c6ff00"/>
            <g id="Group_39" data-name="Group 39" transform="translate(0 0)" clip-path="url(#clip-path-5)">
              <path id="Path_99" data-name="Path 99" d="M115.267,29.148c1.265-1.066,2.672-2.337,4.155-3.731-16.222,1.7-32.5-8.958-38.588-22.662l-5.885.316S28.348-4.6,40.966,4.31s28.127,17.373,33.768,35.7-45.115-14.1-32.425,4.23S78.964,66.8,81.783,85.125s-12.69,28.2-42.3,32.425c-12.644,1.805-27.85,1.3-39.487.893,6.834,3.708,14.906,7.12,20.873,8.16,11.735,2.04,48.983-5.615,63.778-9.695s19.39-12.247,19.39-15.307-5.1-20.921-4.592-25.513S105.572,37.312,115.267,29.148Z" transform="translate(14.198 83.802)" opacity="0.2"/>
            </g>
            <path id="Path_101" data-name="Path 101" d="M97.483,60.317c13.237-18.415,37.76-31.405,47.689-36.14-4.223-1.867-19.638-8.607-27.954-11.233-9.695-3.063-27.553-6.635-27.553-6.635S85,3.973,77.731,0C51.56,11.477,35.07,44.577,35.07,44.577s-22.962,35.2-25,57.658-4.083,59.186-6.123,68.37-5.612,17.35-3.06,21.942S23.335,208.361,35.07,210.4s48.983-5.615,63.778-9.695,19.39-12.247,19.39-15.307-5.1-20.921-4.592-25.513,6.123-38.777,15.818-46.94c1.264-1.066,2.672-2.337,4.155-3.731C107.549,111.946,81.339,82.78,97.483,60.317Z" transform="translate(0 0)" fill="none" stroke="#263238" stroke-linecap="round" stroke-linejoin="round" stroke-width="1"/>
          </g>
          <line id="Line_4" data-name="Line 4" y1="39.235" x2="3.775" transform="translate(61.246 241.426)" fill="none" stroke="#263238" stroke-linecap="round" stroke-linejoin="round" stroke-width="1"/>
          <path id="Path_102" data-name="Path 102" d="M3.386,0S0,1.981,0,7.844.73,29.1.73,29.1" transform="translate(336.957 218.922)" fill="none" stroke="#263238" stroke-linecap="round" stroke-linejoin="round" stroke-width="1"/>
          <path id="Path_103" data-name="Path 103" d="M2.649,0S0,2.868,0,5.739V28.7" transform="translate(332.714 217.179)" fill="none" stroke="#263238" stroke-linecap="round" stroke-linejoin="round" stroke-width="1"/>
          <path id="Path_104" data-name="Path 104" d="M4.194,0S1.545,4.637,1.326,7.945,0,28.7,0,28.7" transform="translate(326.975 215.191)" fill="none" stroke="#263238" stroke-linecap="round" stroke-linejoin="round" stroke-width="1"/>
          <line id="Line_5" data-name="Line 5" x2="15.232" y2="5.96" transform="translate(324.548 243.888)" fill="none" stroke="#263238" stroke-linecap="round" stroke-linejoin="round" stroke-width="1"/>
          <path id="Path_105" data-name="Path 105" d="M.2,18.543s-.662-5.077.443-8.167S9.25,0,9.25,0" transform="translate(319.052 261.547)" fill="none" stroke="#263238" stroke-linecap="round" stroke-linejoin="round" stroke-width="1"/>
          <g id="Group_41" data-name="Group 41" transform="translate(102.401 2.583)">
            <path id="Path_106" data-name="Path 106" d="M34.869,0,23.946,5.064S5.866,1.154,0,11.9" transform="translate(0 33.676)" fill="none" stroke="#263238" stroke-linecap="round" stroke-linejoin="round" stroke-width="1"/>
            <line id="Line_6" data-name="Line 6" x1="21.215" y2="22.801" transform="translate(25.9 7.143)" fill="none" stroke="#263238" stroke-linecap="round" stroke-linejoin="round" stroke-width="1"/>
            <line id="Line_7" data-name="Line 7" x1="22.314" y2="26.523" transform="translate(16.127 0)" fill="none" stroke="#263238" stroke-linecap="round" stroke-linejoin="round" stroke-width="1"/>
            <line id="Line_8" data-name="Line 8" x1="18.354" y2="19.445" transform="translate(7.332 5.612)" fill="none" stroke="#263238" stroke-linecap="round" stroke-linejoin="round" stroke-width="1"/>
            <line id="Line_9" data-name="Line 9" x2="24.921" y2="6.352" transform="translate(5.377 25.057)" fill="none" stroke="#263238" stroke-linecap="round" stroke-linejoin="round" stroke-width="1"/>
          </g>
          <line id="Line_10" data-name="Line 10" x1="14.821" y1="7.712" transform="translate(168.371 313.257)" fill="none" stroke="#263238" stroke-linecap="round" stroke-linejoin="round" stroke-width="1"/>
          <line id="Line_11" data-name="Line 11" x1="11.728" y2="4.398" transform="translate(161.774 311.791)" fill="none" stroke="#263238" stroke-linecap="round" stroke-linejoin="round" stroke-width="1"/>
        </g>
        <line id="Line_12" data-name="Line 12" x1="13.632" y1="102.905" transform="translate(79.681 522.156)" fill="none" stroke="#263238" stroke-linecap="round" stroke-linejoin="round" stroke-width="1"/>
        <line id="Line_13" data-name="Line 13" x1="27.12" y1="22.722" transform="translate(51.827 507.496)" fill="none" stroke="#263238" stroke-linecap="round" stroke-linejoin="round" stroke-width="1"/>
        <line id="Line_14" data-name="Line 14" x1="19.79" y1="5.864" transform="translate(60.623 529.485)" fill="none" stroke="#263238" stroke-linecap="round" stroke-linejoin="round" stroke-width="1"/>
        <g id="Group_43" data-name="Group 43" transform="translate(41.259 296.29)">
          <path id="Path_107" data-name="Path 107" d="M22.437,94.727l-6.85-.8C3.937,92.566-2.626,80.6,1,67.653L4.237,56.081c1.134-4.041,5.012-6.863,8.659-6.338,3.63.521,5.716,4.168,4.66,8.189l-3.018,11.5c-1.15,4.383,1.095,8.391,5,8.887l6.7.847c3.858.489,7.824-2.685,8.848-7.026l5.635-23.887c.772-3.278-1-6.283-3.956-6.729l-19.5-2.939c-3.582-.538-5.628-4.1-4.566-7.922L19.736,5.39a7.232,7.232,0,0,1,7.906-5.3L57.616,5.344a5.883,5.883,0,0,1,4.494,7.3,6.7,6.7,0,0,1-7.368,5.384L30.389,13.957,27.283,25.868l12.8,2.037c9.675,1.545,15.58,11.37,13.208,22.192L48.081,73.851C45.3,86.521,33.827,96.06,22.437,94.727Z" transform="translate(0 0)" fill="#263238"/>
        </g>
        <g id="Group_46" data-name="Group 46" transform="translate(96.354 139.271)">
          <g id="Group_45" data-name="Group 45" transform="translate(0 0)">
            <path id="Path_108" data-name="Path 108" d="M75.293,70.142S92.125,57.052,92.125,38.819,73.423.485,55.659.016,27.141,9.365,23.4,14.042s-6.078,7.013-6.078,9.35S18.261,29,16.857,30.4s-7.948,4.676-8.88,9.816-1.871,9.353-2.34,12.155S-.441,74.349.028,79.492,14.52,92.113,14.52,92.113a13.394,13.394,0,0,1,1.871,12.155c-2.34,7.013-11.22,15.893-6.547,18.233s36.932-2.34,43.945-3.272,2.806-5.146,2.806-11.22S49.581,85.1,75.293,70.142Z" fill="#fff"/>
            <g id="Group_44" data-name="Group 44" clip-path="url(#clip-path-6)">
              <path id="Path_109" data-name="Path 109" d="M75.293,70.142S92.125,57.052,92.125,38.819,73.423.485,55.659.016,27.141,9.365,23.4,14.042s-6.078,7.013-6.078,9.35S18.261,29,16.857,30.4s-7.948,4.676-8.88,9.816-1.871,9.353-2.34,12.155S-.441,74.349.028,79.492,14.52,92.113,14.52,92.113a13.394,13.394,0,0,1,1.871,12.155c-2.34,7.013-11.22,15.893-6.547,18.233s36.932-2.34,43.945-3.272,2.806-5.146,2.806-11.22S49.581,85.1,75.293,70.142Z" opacity="0.1"/>
              <path id="Path_110" data-name="Path 110" d="M82.848,0s7.6,20.1,1.63,30.959S64.924,42.364,56.233,49.971,36.139,71.153,25.275,72.782-2.425,69.523.292,76.041s16.294,8.147,15.75,13.576-20.1,26.07-11.95,28.244,51.6.544,55.944-5.432.544-26.611,3.8-31.5S98.6,53.229,97.512,35.847,92.08,6.518,82.848,0Z" transform="translate(-0.333 7.166)" opacity="0.2"/>
            </g>
            <path id="Path_112" data-name="Path 112" d="M75.293,70.142S92.125,57.052,92.125,38.819,73.423.485,55.659.016,27.141,9.365,23.4,14.042s-6.078,7.013-6.078,9.35S18.261,29,16.857,30.4s-7.948,4.676-8.88,9.816-1.871,9.353-2.34,12.155S-.441,74.349.028,79.492,14.52,92.113,14.52,92.113a13.394,13.394,0,0,1,1.871,12.155c-2.34,7.013-11.22,15.893-6.547,18.233s36.932-2.34,43.945-3.272,2.806-5.146,2.806-11.22S49.581,85.1,75.293,70.142Z" fill="none" stroke="#263238" stroke-linecap="round" stroke-linejoin="round" stroke-width="1"/>
          </g>
          <path id="Path_113" data-name="Path 113" d="M5.142,3.4s11.22-7.948,12.155.469A15.028,15.028,0,0,1,7.482,19.76C2.34,21.631,0,15.087,0,15.087" transform="translate(59.732 53.12)" fill="none" stroke="#263238" stroke-linecap="round" stroke-linejoin="round" stroke-width="1"/>
          <path id="Path_114" data-name="Path 114" d="M3.219,23.73.413,21.859s-1.867-5.608,2.34-7.948S12.1,5.966,12.1,5.966c.935-1.4-4.676-7.482-6.078-5.612" transform="translate(14.573 22.102)" fill="none" stroke="#263238" stroke-linecap="round" stroke-linejoin="round" stroke-width="1"/>
          <path id="Path_115" data-name="Path 115" d="M0,0A12.73,12.73,0,0,0,5.142,2.34,2.786,2.786,0,0,0,8.414,0" transform="translate(19.662 43.961)" fill="none" stroke="#263238" stroke-linecap="round" stroke-linejoin="round" stroke-width="1"/>
          <path id="Path_116" data-name="Path 116" d="M0,.469S3.738,3.275,15.427,0" transform="translate(16.39 51.44)" fill="none" stroke="#263238" stroke-linecap="round" stroke-linejoin="round" stroke-width="1"/>
          <path id="Path_117" data-name="Path 117" d="M3.873,4.155c-.58,1.981-1.854,3.353-2.845,3.06S-.295,5.083.285,3.1,2.143-.251,3.134.039,4.457,2.173,3.873,4.155Z" transform="translate(39.086 23.972)" fill="#263238"/>
          <path id="Path_118" data-name="Path 118" d="M3.877,4.155C3.293,6.136,2.019,7.508,1.028,7.218S-.295,5.083.285,3.1,2.143-.251,3.134.039,4.457,2.173,3.877,4.155Z" transform="translate(18.591 24.379)" fill="#263238"/>
          <path id="Path_119" data-name="Path 119" d="M0,3.065S9.819-4.417,18.233,4" transform="translate(34.62 19.861)" fill="none" stroke="#263238" stroke-linecap="round" stroke-linejoin="round" stroke-width="1"/>
          <path id="Path_120" data-name="Path 120" d="M0,2.337s20.1,4.207,27.113,1.87S36.932,0,36.932,0" transform="translate(8.442 83.699)" fill="none" stroke="#263238" stroke-linecap="round" stroke-linejoin="round" stroke-width="1"/>
        </g>
      </g>
    </g>
    <g id="Ball" transform="translate(576.66 132.671)">
      <g id="Group_50" data-name="Group 50" transform="translate(0 0)">
        <g id="Group_49" data-name="Group 49" transform="translate(0 0.001)">
          <circle id="Ellipse_27" data-name="Ellipse 27" cx="53.084" cy="53.084" r="53.084" fill="#ff9b17"/>
          <g id="Group_48" data-name="Group 48" clip-path="url(#clip-path-7)">
            <path id="Path_121" data-name="Path 121" d="M78.583,0A53,53,0,0,1,29.2,72.456,52.8,52.8,0,0,1,0,63.684,53.064,53.064,0,1,0,78.583,0Z" transform="translate(3.699 8.774)" opacity="0.2"/>
          </g>
          <circle id="Ellipse_29" data-name="Ellipse 29" cx="53.084" cy="53.084" r="53.084" fill="none" stroke="#263238" stroke-linecap="round" stroke-linejoin="round" stroke-width="1"/>
        </g>
        <path id="Path_122" data-name="Path 122" d="M81.48,71.954A60.737,60.737,0,0,0,82.6,60.327,60.359,60.359,0,0,0,0,4.246" transform="translate(14.496 12.337)" fill="none" stroke="#263238" stroke-linecap="round" stroke-linejoin="round" stroke-width="1"/>
        <path id="Path_123" data-name="Path 123" d="M0,47.028c28.391,16.3,66.818,2.662,85.834-30.457A80.162,80.162,0,0,0,93.023,0" transform="translate(11.09 38.173)" fill="none" stroke="#263238" stroke-linecap="round" stroke-linejoin="round" stroke-width="1"/>
        <path id="Path_124" data-name="Path 124" d="M0,0C10.477,5.677,22.593,5.494,36.28,4.865c11.194-.515,50.091-10.148,53.311,8.7,1.8,10.539-11.93,23.206-25.875,31.265" transform="translate(0.978 59.792)" fill="none" stroke="#263238" stroke-linecap="round" stroke-linejoin="round" stroke-width="1"/>
        <path id="Path_125" data-name="Path 125" d="M0,0S17.907-.6,29.87,17.887C36.6,28.289,42.3,47.639,52,60.642" transform="translate(53.083 0)" fill="none" stroke="#263238" stroke-linecap="round" stroke-linejoin="round" stroke-width="1"/>
      </g>
    </g>
    <g id="Character_1" data-name="Character 1" transform="translate(269.358 298.498)">
      <g id="Group_64" data-name="Group 64" transform="translate(0 0)">
        <path id="Path_126" data-name="Path 126" d="M100.215,21.449S89.54,11.086,69.609,7.762c-6.8-1.131-8-6.335-14.075-7.153-19.393-2.6-40.471,2.6-51.43,26.048S5.387,75.308,26.025,82.229c12.23,4.1,39.624,6.078,39.624,6.078Z" transform="translate(95.577 201.547)" fill="#fff" stroke="#263238" stroke-linecap="round" stroke-linejoin="round" stroke-width="1"/>
        <path id="Path_127" data-name="Path 127" d="M57.431,54.125c-7.753-7.749,7.749-8.857,5.533-12.178s-12.178-3.324-18.823-3.324c-4.706,0-3.845-3.894-.984-9.307l.984-.658a29.685,29.685,0,0,0,3.109-6.3l.212-.342a3.4,3.4,0,0,0,.652-2.288,39.306,39.306,0,0,0,1.564-11c0-12.181-29.9-9.965-31-3.321l-1.108,6.641S3.172,19.8.955,29.765c-1.763,7.938,4.191,6.742,6.69,5.928A53.193,53.193,0,0,0,4.1,42.015C-6.856,65.459,5.387,90.666,26.025,97.587c12.23,4.1,39.624,6.078,39.624,6.078L81.044,73.889C76.175,67.3,64.017,60.714,57.431,54.125Z" transform="translate(95.577 186.189)" fill="#263238" stroke="#263238" stroke-linecap="round" stroke-linejoin="round" stroke-width="1"/>
        <path id="Path_128" data-name="Path 128" d="M9.827,1.2S4.769-3.139.552,4.676s16.861,10.418,23.607,9.551-1.685-9.551-1.685-9.551" transform="translate(142.969 233.08)" fill="#fff" stroke="#263238" stroke-linecap="round" stroke-linejoin="round" stroke-width="1"/>
        <g id="Group_52" data-name="Group 52" transform="translate(35.933 651.956)">
          <path id="Path_129" data-name="Path 129" d="M111.959,0,104.02,18.578S75.154,31.213,61.444,58.711,25.362,114.453,13.813,127.83-.617,144.922.1,156.814s15.154,15.61,26.7,31.216c3.418,4.618,7.938,17.092,25.259,27.5,9.737,5.85,13.71,1.486,12.99-11.891s-14.433-33.442-16.6-48.308-5.775-17.093,0-22.294,59.9-55,78.658-76.553S154.535,5.2,154.535,5.2,127.112,7.43,111.959,0Z" transform="translate(0 0)" fill="#fff"/>
          <g id="Group_51" data-name="Group 51" transform="translate(0 0)" clip-path="url(#clip-path-8)">
            <path id="Path_130" data-name="Path 130" d="M111.959,0,104.02,18.578S75.154,31.213,61.444,58.711,25.362,114.453,13.813,127.83-.617,144.922.1,156.814s15.154,15.61,26.7,31.216c3.418,4.618,7.938,17.092,25.259,27.5,9.737,5.85,13.71,1.486,12.99-11.891s-14.433-33.442-16.6-48.308-5.775-17.093,0-22.294,59.9-55,78.658-76.553S154.535,5.2,154.535,5.2,127.112,7.43,111.959,0Z" opacity="0.1"/>
          </g>
          <path id="Path_132" data-name="Path 132" d="M111.959,0,104.02,18.578S75.154,31.213,61.444,58.711,25.362,114.453,13.813,127.83-.617,144.922.1,156.814s15.154,15.61,26.7,31.216c3.418,4.618,7.938,17.092,25.259,27.5,9.737,5.85,13.71,1.486,12.99-11.891s-14.433-33.442-16.6-48.308-5.775-17.093,0-22.294,59.9-55,78.658-76.553S154.535,5.2,154.535,5.2,127.112,7.43,111.959,0Z" transform="translate(0 0)" fill="none" stroke="#263238" stroke-linecap="round" stroke-linejoin="round" stroke-width="1"/>
        </g>
        <g id="Group_54" data-name="Group 54" transform="translate(0 623.922)">
          <path id="Path_133" data-name="Path 133" d="M163.045,37.693,154.386,58.5s-25.979,13.377-45.464,28.241S64.9,137.282,55.521,146.2s-27.341,16.522-27.341,16.522-24.536,4.461-26.7,14.867S-.687,221.438,2.92,231.843,30.343,269,37.561,269s8.659-5.944,8.659-11.148-3.607-25.269-3.607-33.442,4.328-37.906,4.328-37.906,57.651-35.844,81.467-53.682,61.341-31.956,70-40.875,21.648-54.256,21.648-54.256,7.218-25.269,6.495-29.727S191.191-1.7,179.645.533,163.045,37.693,163.045,37.693Z" transform="translate(0 0)" fill="#fff"/>
          <g id="Group_53" data-name="Group 53" transform="translate(0 0)" clip-path="url(#clip-path-9)">
            <path id="Path_134" data-name="Path 134" d="M144.031,98.416C130.367,114.358,37,171.293,13.083,182.679-.132,188.972-2.553,213.69,2.335,235.318c8.447,12.041,23.77,27.833,29.319,27.833,7.215,0,8.659-5.944,8.659-11.148s-3.607-25.269-3.607-33.442,4.328-37.906,4.328-37.906,57.651-35.844,81.467-53.682,61.34-31.956,70-40.875,21.648-54.256,21.648-54.256,7.218-25.269,6.495-29.727c-.111-.7-1.053-1.411-2.6-2.115L204.381.489S157.7,82.474,144.031,98.416Z" transform="translate(5.907 5.851)" fill="#c6ff00"/>
            <path id="Path_135" data-name="Path 135" d="M144.031,98.416C130.367,114.358,37,171.293,13.083,182.679-.132,188.972-2.553,213.69,2.335,235.318c8.447,12.041,23.77,27.833,29.319,27.833,7.215,0,8.659-5.944,8.659-11.148s-3.607-25.269-3.607-33.442,4.328-37.906,4.328-37.906,57.651-35.844,81.467-53.682,61.34-31.956,70-40.875,21.648-54.256,21.648-54.256,7.218-25.269,6.495-29.727c-.111-.7-1.053-1.411-2.6-2.115L204.381.489S157.7,82.474,144.031,98.416Z" transform="translate(5.907 5.851)" fill="#fff" opacity="0.5"/>
          </g>
          <path id="Path_137" data-name="Path 137" d="M163.045,37.693,154.386,58.5s-25.979,13.377-45.464,28.241S64.9,137.282,55.521,146.2s-27.341,16.522-27.341,16.522-24.536,4.461-26.7,14.867S-.687,221.438,2.92,231.843,30.343,269,37.561,269s8.659-5.944,8.659-11.148-3.607-25.269-3.607-33.442,4.328-37.906,4.328-37.906,57.651-35.844,81.467-53.682,61.341-31.956,70-40.875,21.648-54.256,21.648-54.256,7.218-25.269,6.495-29.727S191.191-1.7,179.645.533,163.045,37.693,163.045,37.693Z" transform="translate(0 0)" fill="none" stroke="#263238" stroke-linecap="round" stroke-linejoin="round" stroke-width="1"/>
        </g>
        <path id="Path_138" data-name="Path 138" d="M44.384.533c-11.546,2.229-16.6,37.16-16.6,37.16L19.128,58.5s-7.277,3.754-16.991,9.47C-.6,76.04-1.8,86.663,5.418,95.664,11.3,103,21.435,107.591,31.088,110.453c14.586-7.5,27.439-13.746,32.06-18.5C71.807,83.03,84.8,37.693,84.8,37.693s7.218-25.269,6.495-29.727S55.933-1.7,44.384.533Z" transform="translate(135.258 623.922)" fill="#263238" stroke="#263238" stroke-linecap="round" stroke-linejoin="round" stroke-width="1"/>
        <g id="Group_56" data-name="Group 56" transform="translate(134.902 453.518)">
          <path id="Path_139" data-name="Path 139" d="M41.133,0s-16.6,33.445-20.2,49.052.72,43.107,4.328,52.766,2.167,17.839-.72,30.473S0,197.692,0,197.692,21.648,215.531,32.474,218.5s22.372,5.2,22.372,5.2L72.886,202.9l-5.051,23.783s25.979,5.2,29.587,5.2h10.826c15.033-69.514,36.886-135.5,25.256-207.354-1.444-8.919-2.164-14.12-2.164-14.12s-26.7,6.687-44.743,1.486S41.133,0,41.133,0Z" transform="translate(0 0)" fill="#ff9b17"/>
          <g id="Group_55" data-name="Group 55" transform="translate(0 0)" clip-path="url(#clip-path-10)">
            <path id="Path_140" data-name="Path 140" d="M59.78,4.53C54.738,3.076,48.967,1.509,43.264,0c-3.513,10.49-9.975,32.741-7.3,47.637,3.607,20.064,6.495,62.429-1.444,83.24C28.707,146.122,9.734,187.665,0,208.808a31.893,31.893,0,0,0,5.657,2.333c10.826,2.972,22.372,5.2,22.372,5.2L46.07,195.535l-5.051,23.783s18.793,3.761,26.615,4.882c3.262-18.494,8.261-46.744,8.743-48.732.723-2.972,0,6.69,2.887-11.891s1.444-83.983,1.444-104.047c0-16.887,7.153-45.343,9.421-53.943C81.011,6.713,69.224,7.254,59.78,4.53Z" transform="translate(26.817 7.362)" fill="#fff" stroke="#263238" stroke-linecap="round" stroke-linejoin="round" stroke-width="1"/>
            <path id="Path_141" data-name="Path 141" d="M16.294,0S34.217,24.441,47.253,32.588,16.294,21.182,32.588,40.735,71.694,141.758,71.694,167.828s-26.895-16.4-26.07-6.518S29.007,200.289,9.776,211.822L0,226.487l79.841,16.294s11.406-68.435,21.182-92.876S118.946,35.847,114.058,22.812,102.4,4.852,102.4,4.852,43.994,6.518,16.294,0Z" transform="translate(28.938 5.553)" opacity="0.2"/>
          </g>
          <path id="Path_143" data-name="Path 143" d="M41.133,0s-16.6,33.445-20.2,49.052.72,43.107,4.328,52.766,2.167,17.839-.72,30.473S0,197.692,0,197.692,21.648,215.531,32.474,218.5s22.372,5.2,22.372,5.2L72.886,202.9l-5.051,23.783s25.979,5.2,29.587,5.2h10.826c15.033-69.514,36.886-135.5,25.256-207.354-1.444-8.919-2.164-14.12-2.164-14.12s-26.7,6.687-44.743,1.486S41.133,0,41.133,0Z" transform="translate(0 0)" fill="none" stroke="#263238" stroke-linecap="round" stroke-linejoin="round" stroke-width="1"/>
        </g>
        <g id="Group_59" data-name="Group 59" transform="translate(247.021 217.075)">
          <g id="Group_58" data-name="Group 58" transform="translate(0 0)">
            <path id="Path_144" data-name="Path 144" d="M6.951,110.659s18.3,10.125,28.472,18.152c0,0,6.778-18.152,11.184-32.464s10.51-35.954,10.51-35.954-6.782-11.52-11.527-14.313S36.779,33.862,34.406,30.02s4.067-4.536,4.067-4.536S32.712,13.267,31.356,8.727,33.39,1.4,35.084,3.49s3.389,6.635,5.084,9.776,7.456,8.727,7.456,8.727S43.218,11.869,42.2,8.727,38.812,0,40.846,0s5.084,3.141,6.778,6.283,9.154,14.661,9.154,14.661L51.013,6.984s-.339-4.54,2.376-3.493S60.845,17.8,60.845,17.8,59.15,5.586,61.523,5.934s1.356,6.632,2.711,10.125,3.389,15.707,5.423,20.6,2.372,12.566,2.034,15.01-1.017,11.52-1.017,11.52S70,119.038,67.962,133.7s-10.506,31.418-13.557,37.352-9.493,6.632-12.882,5.934-19.66-7.332-19.66-7.332A81.387,81.387,0,0,0,12.035,135.1C2.545,118.34-1.522,106.82.512,107.518A61.444,61.444,0,0,1,6.951,110.659Z" fill="#fff"/>
            <g id="Group_57" data-name="Group 57" clip-path="url(#clip-path-11)">
              <path id="Path_145" data-name="Path 145" d="M6.951,110.659s18.3,10.125,28.472,18.152c0,0,6.778-18.152,11.184-32.464s10.51-35.954,10.51-35.954-6.782-11.52-11.527-14.313S36.779,33.862,34.406,30.02s4.067-4.536,4.067-4.536S32.712,13.267,31.356,8.727,33.39,1.4,35.084,3.49s3.389,6.635,5.084,9.776,7.456,8.727,7.456,8.727S43.218,11.869,42.2,8.727,38.812,0,40.846,0s5.084,3.141,6.778,6.283,9.154,14.661,9.154,14.661L51.013,6.984s-.339-4.54,2.376-3.493S60.845,17.8,60.845,17.8,59.15,5.586,61.523,5.934s1.356,6.632,2.711,10.125,3.389,15.707,5.423,20.6,2.372,12.566,2.034,15.01-1.017,11.52-1.017,11.52S70,119.038,67.962,133.7s-10.506,31.418-13.557,37.352-9.493,6.632-12.882,5.934-19.66-7.332-19.66-7.332A81.387,81.387,0,0,0,12.035,135.1C2.545,118.34-1.522,106.82.512,107.518A61.444,61.444,0,0,1,6.951,110.659Z" fill="#c6ff00"/>
              <path id="Path_146" data-name="Path 146" d="M6.951,110.659s18.3,10.125,28.472,18.152c0,0,6.778-18.152,11.184-32.464s10.51-35.954,10.51-35.954-6.782-11.52-11.527-14.313S36.779,33.862,34.406,30.02s4.067-4.536,4.067-4.536S32.712,13.267,31.356,8.727,33.39,1.4,35.084,3.49s3.389,6.635,5.084,9.776,7.456,8.727,7.456,8.727S43.218,11.869,42.2,8.727,38.812,0,40.846,0s5.084,3.141,6.778,6.283,9.154,14.661,9.154,14.661L51.013,6.984s-.339-4.54,2.376-3.493S60.845,17.8,60.845,17.8,59.15,5.586,61.523,5.934s1.356,6.632,2.711,10.125,3.389,15.707,5.423,20.6,2.372,12.566,2.034,15.01-1.017,11.52-1.017,11.52S70,119.038,67.962,133.7s-10.506,31.418-13.557,37.352-9.493,6.632-12.882,5.934-19.66-7.332-19.66-7.332A81.387,81.387,0,0,0,12.035,135.1C2.545,118.34-1.522,106.82.512,107.518A61.444,61.444,0,0,1,6.951,110.659Z" fill="#fff" opacity="0.5"/>
            </g>
            <path id="Path_148" data-name="Path 148" d="M6.951,110.659s18.3,10.125,28.472,18.152c0,0,6.778-18.152,11.184-32.464s10.51-35.954,10.51-35.954-6.782-11.52-11.527-14.313S36.779,33.862,34.406,30.02s4.067-4.536,4.067-4.536S32.712,13.267,31.356,8.727,33.39,1.4,35.084,3.49s3.389,6.635,5.084,9.776,7.456,8.727,7.456,8.727S43.218,11.869,42.2,8.727,38.812,0,40.846,0s5.084,3.141,6.778,6.283,9.154,14.661,9.154,14.661L51.013,6.984s-.339-4.54,2.376-3.493S60.845,17.8,60.845,17.8,59.15,5.586,61.523,5.934s1.356,6.632,2.711,10.125,3.389,15.707,5.423,20.6,2.372,12.566,2.034,15.01-1.017,11.52-1.017,11.52S70,119.038,67.962,133.7s-10.506,31.418-13.557,37.352-9.493,6.632-12.882,5.934-19.66-7.332-19.66-7.332A81.387,81.387,0,0,0,12.035,135.1C2.545,118.34-1.522,106.82.512,107.518A61.444,61.444,0,0,1,6.951,110.659Z" fill="none" stroke="#263238" stroke-linecap="round" stroke-linejoin="round" stroke-width="1"/>
          </g>
          <path id="Path_149" data-name="Path 149" d="M0,0,7.8,10.474s11.527,1.743,16.271,9.773" transform="translate(38.473 25.484)" fill="#fff" stroke="#263238" stroke-linecap="round" stroke-linejoin="round" stroke-width="1"/>
          <line id="Line_15" data-name="Line 15" y1="0.349" x2="18.642" transform="translate(42.88 22.691)" fill="#fff" stroke="#263238" stroke-linecap="round" stroke-linejoin="round" stroke-width="1"/>
        </g>
        <g id="Group_61" data-name="Group 61" transform="translate(139.507 62.035)">
          <path id="Path_150" data-name="Path 150" d="M102.2.557S68.281,74.877,63.951,89s-2.887,23.783-3.607,31.959-23.815,57.225-25.979,61.686S5.5,219.8,1.89,243.585s-1.444,38.646,1.444,44.59S28.589,324.6,32.92,334.255s4.331,26.755,4.331,34.931-10.106,24.526-5.051,29.73,30.307,16.349,49.071,19.322,35.361,4.461,41.856-2.229,12.99-20.811,14.433-29.727,2.164-55-.723-77.3-28.866-58.714-32.474-66.144-29.587-40.135-29.587-40.135,23.815-61.686,25.979-81.75S115.909,3.529,115.909,3.529A15.372,15.372,0,0,0,102.2.557Z" transform="translate(0 0)" fill="#fff"/>
          <g id="Group_60" data-name="Group 60" transform="translate(0 0)" clip-path="url(#clip-path-12)">
            <path id="Path_151" data-name="Path 151" d="M52.319,181.388S76.134,119.7,78.3,99.638C79.879,84.97,87.24,29.056,91.089,0c-4.784,28.062-16.76,92.941-29.1,117.623C46.046,149.508,27.829,190.5,27.829,204.164S20.911,218.975,8.472,226.94s-11.39,26.188,4.553,39.852c15.15,12.986,47.774-30.584,60.747-57.42C64.9,197.233,52.319,181.388,52.319,181.388Z" transform="translate(22.457 21.318)" fill="#ff9b17" opacity="0.2"/>
          </g>
          <path id="Path_154" data-name="Path 154" d="M102.2.557S68.281,74.877,63.951,89s-2.887,23.783-3.607,31.959-23.815,57.225-25.979,61.686S5.5,219.8,1.89,243.585s-1.444,38.646,1.444,44.59S28.589,324.6,32.92,334.255s4.331,26.755,4.331,34.931-10.106,24.526-5.051,29.73,30.307,16.349,49.071,19.322,35.361,4.461,41.856-2.229,12.99-20.811,14.433-29.727,2.164-55-.723-77.3-28.866-58.714-32.474-66.144-29.587-40.135-29.587-40.135,23.815-61.686,25.979-81.75S115.909,3.529,115.909,3.529A15.372,15.372,0,0,0,102.2.557Z" transform="translate(0 0)" fill="none" stroke="#263238" stroke-linecap="round" stroke-linejoin="round" stroke-width="1"/>
        </g>
        <g id="Group_63" data-name="Group 63" transform="translate(139.507 264.742)">
          <path id="Path_155" data-name="Path 155" d="M58.9,71.348C47.353,84.726,25.705,69.119,18.487,53.513,12.836,41.289,13.824,19.1,14.518,10.024,8.629,20.13,3.353,31.229,1.89,40.878-1.718,64.661.446,79.525,3.334,85.469s25.256,36.42,29.587,46.079,4.331,26.755,4.331,34.931-10.106,24.526-5.051,29.73,30.307,16.349,49.071,19.322,35.361,4.461,41.856-2.229,12.99-20.811,14.433-29.727,2.164-55-.723-77.3S107.97,47.565,104.363,40.135,74.776,0,74.776,0V13.381C74.776,21.554,70.445,57.971,58.9,71.348Z" transform="translate(0 0)" fill="#ff9b17"/>
          <g id="Group_62" data-name="Group 62" transform="translate(0 0)" clip-path="url(#clip-path-13)">
            <path id="Path_156" data-name="Path 156" d="M50.635,68.966C47.028,56.332,41.973,30.32,39.81,16.2,38.933,10.48,38.06,4.781,37.326,0c-2.49,9.366-5.921,18.318-10.506,23.63C19.778,31.79,8.991,29.144,0,22.316,2.995,39.94,8.2,65.655,14.554,76.4c10.1,17.093,25.256,44.59,23.812,52.767-1.075,6.1-7.378,22.965-10.506,32.979a127.192,127.192,0,0,0,21.332,5.667c10.125,1.6,19.6,2.764,27.218,2.451a196.609,196.609,0,0,0,1.649-29.205C77.335,120.247,54.243,81.6,50.635,68.966Z" transform="translate(32.079 47.719)" fill="#fff" stroke="#263238" stroke-linecap="round" stroke-linejoin="round" stroke-width="1"/>
            <path id="Path_157" data-name="Path 157" d="M5.56,43.059A232.779,232.779,0,0,0,35.847,81.222c17.923,17.923,53.77,30.959,39.106,35.847s-53.77-19.553-37.476,6.518,68.435,47.253,52.141,60.288-42.365,8.147-61.917,0S0,167.581,0,175.728s78.211,58.658,94.505,60.288,40.735,1.629,47.253-6.518S154.793,99.146,127.093,43.746s-23.411,1.29-25.556,8.792S55.4,6.27,43.994,1.382,4.6,3.265,5.56,43.059Z" transform="translate(12.927 10.454)" opacity="0.2"/>
          </g>
          <path id="Path_159" data-name="Path 159" d="M58.9,71.348C47.353,84.726,25.705,69.119,18.487,53.513,12.836,41.289,13.824,19.1,14.518,10.024,8.629,20.13,3.353,31.229,1.89,40.878-1.718,64.661.446,79.525,3.334,85.469s25.256,36.42,29.587,46.079,4.331,26.755,4.331,34.931-10.106,24.526-5.051,29.73,30.307,16.349,49.071,19.322,35.361,4.461,41.856-2.229,12.99-20.811,14.433-29.727,2.164-55-.723-77.3S107.97,47.565,104.363,40.135,74.776,0,74.776,0V13.381C74.776,21.554,70.445,57.971,58.9,71.348Z" transform="translate(0 0)" fill="none" stroke="#263238" stroke-linecap="round" stroke-linejoin="round" stroke-width="1"/>
        </g>
        <path id="Path_160" data-name="Path 160" d="M79.382,31.575C65.457,24.845,63.9,10.353,64.838,0a129.281,129.281,0,0,1-9.317,10.663c-9.382,8.919-27.341,16.522-27.341,16.522S3.644,31.646,1.477,42.052-.687,85.9,2.92,96.3s27.423,37.16,34.641,37.16,8.659-5.944,8.659-11.148-3.607-25.269-3.607-33.442S46.94,50.968,46.94,50.968,52.767,49.716,79.382,31.575Z" transform="translate(0 759.461)" fill="#fff" stroke="#263238" stroke-linecap="round" stroke-linejoin="round" stroke-width="1"/>
        <path id="Path_161" data-name="Path 161" d="M1.477,14.867C-.687,25.269-.687,58.714,2.92,69.119s27.423,37.16,34.641,37.16,8.659-5.944,8.659-11.148-3.607-25.269-3.607-33.442c0-7.244,3.389-31.356,4.168-36.776a35.275,35.275,0,0,0-8.5-1.131c-6.495,0-7.215,8.919-11.546.743S28.179,0,28.179,0,3.644,4.461,1.477,14.867Z" transform="translate(0 786.646)" fill="#fff" stroke="#263238" stroke-linecap="round" stroke-linejoin="round" stroke-width="1"/>
        <path id="Path_162" data-name="Path 162" d="M26.56,63.846,24.423,43.668s1.427.733,0-1.835S.2,2.571.2,2.571-.872,0,1.976,0,13.023,9.907,13.023,9.907s-2.5-8.437.355-6.237S24.067,16.147,24.067,16.147s-1.424-6.606,0-6.241,8.551,16.512,8.551,16.512S44.018,44.4,44.731,45.868A11.956,11.956,0,0,1,45.445,51c0,1.835-4.989,19.084-4.989,19.084A14.29,14.29,0,0,0,26.56,63.846Z" transform="translate(214.781 0)" fill="#fff" stroke="#263238" stroke-linecap="round" stroke-linejoin="round" stroke-width="1"/>
        <path id="Path_163" data-name="Path 163" d="M10.931,27.163s-1.424-9.91-3.562-13.211S-4.034.376,2.024.008s9.265,12.11,11.4,15.411,13.9,7.339,14.251,13.944a49.347,49.347,0,0,0,1.069,9.174" transform="translate(228.272 16.505)" fill="#fff" stroke="#263238" stroke-linecap="round" stroke-linejoin="round" stroke-width="1"/>
        <line id="Line_16" data-name="Line 16" x2="4.988" y2="6.972" transform="translate(227.803 9.908)" fill="#fff" stroke="#263238" stroke-linecap="round" stroke-linejoin="round" stroke-width="1"/>
        <line id="Line_17" data-name="Line 17" x2="3.919" y2="7.705" transform="translate(238.848 16.146)" fill="#fff" stroke="#263238" stroke-linecap="round" stroke-linejoin="round" stroke-width="1"/>
        <path id="Path_164" data-name="Path 164" d="M36.319.556S8.427,61.672,0,83.591c10.154-.753,25.709.44,38.024,11.585C42.583,59.358,50.029,3.529,50.029,3.529A15.372,15.372,0,0,0,36.319.556Z" transform="translate(205.387 62.035)" fill="#ff9b17" stroke="#263238" stroke-linecap="round" stroke-linejoin="round" stroke-width="1"/>
      </g>
    </g>
    <g id="Basket" transform="translate(141.449 0)">
      <g id="Group_69" data-name="Group 69" transform="translate(0)">
        <g id="Group_67" data-name="Group 67" transform="translate(188.611 95.106)">
          <g id="Group_65" data-name="Group 65" transform="translate(0 0)">
            <path id="Path_165" data-name="Path 165" d="M87.646,7.4c45.565,0,83,15.264,87.235,34.781a17.217,17.217,0,0,0,.414-3.7C175.294,17.226,136.052,0,87.646,0S0,17.226,0,38.48a17.428,17.428,0,0,0,.411,3.7C4.654,22.662,42.084,7.4,87.646,7.4Z" transform="translate(0 0)" fill="#ff9b17" stroke="#263238" stroke-linecap="round" stroke-linejoin="round" stroke-width="1"/>
            <path id="Path_166" data-name="Path 166" d="M87.646,34.778C42.084,34.778,4.654,19.514.411,0A17.4,17.4,0,0,0,0,3.7c0,21.251,39.239,38.48,87.646,38.48S175.294,24.949,175.294,3.7A17.2,17.2,0,0,0,174.88,0C170.641,19.514,133.21,34.778,87.646,34.778Z" transform="translate(0 42.179)" fill="#ff9b17" stroke="#263238" stroke-linecap="round" stroke-linejoin="round" stroke-width="1"/>
          </g>
          <path id="Path_167" data-name="Path 167" d="M0,3.7S-.2,24.223,13.286,55.335s24.891,70.521,24.891,80.89a70.532,70.532,0,0,1-2.076,17.63l18.666-5.185L73.434,158,92.1,146.6l13.482,7.257,18.666-10.37,16.594,13.482,14.518-13.482s-12.445-34.224-4.148-56S166.4,32.813,174.881,0" transform="translate(0 42.179)" fill="none" stroke="#263238" stroke-linecap="round" stroke-linejoin="round" stroke-width="1"/>
          <g id="Group_66" data-name="Group 66" transform="translate(0.411 5.214)">
            <path id="Path_168" data-name="Path 168" d="M134.817,165.932s-21.779-28-37.333-41.481S66.372,95.411,64.3,92.3,28,49.782,21.775,40.448,0,0,0,0,37.333,128.6,15.554,176.3" transform="translate(20.136 14.518)" fill="none" stroke="#263238" stroke-linecap="round" stroke-linejoin="round" stroke-width="1"/>
            <path id="Path_169" data-name="Path 169" d="M0,168l16.591,17.63A103.179,103.179,0,0,0,23.851,148.3V77.781C23.851,61.187,29.036,0,29.036,0S66.372,74.669,73.629,91.263s15.558,23.851,21.779,31.112,14.518,18.666,14.518,18.666" transform="translate(37.766 0)" fill="none" stroke="#263238" stroke-linecap="round" stroke-linejoin="round" stroke-width="1"/>
            <path id="Path_170" data-name="Path 170" d="M0,188.743s6.224-43.554,11.409-61.187,7.261-31.112,17.63-62.224S45.633,0,45.633,0,67.412,61.187,70.521,74.669,81.93,103.7,81.93,103.7" transform="translate(73.023 6.224)" fill="none" stroke="#263238" stroke-linecap="round" stroke-linejoin="round" stroke-width="1"/>
            <path id="Path_171" data-name="Path 171" d="M131.708,0s-17.63,42.521-25.927,68.448-21.779,54.963-28,69.481-12.445,28-12.445,28S56,152.45,36.3,141.041,2.073,112.005,0,108.893" transform="translate(26.357 17.63)" fill="none" stroke="#263238" stroke-linecap="round" stroke-linejoin="round" stroke-width="1"/>
            <path id="Path_172" data-name="Path 172" d="M151.41,0s-32.148,53.927-36.3,70.52a137.849,137.849,0,0,0-4.148,30.075S62.224,62.224,43.557,49.781,0,12.445,0,12.445" transform="translate(12.876 79.854)" fill="none" stroke="#263238" stroke-linecap="round" stroke-linejoin="round" stroke-width="1"/>
            <path id="Path_173" data-name="Path 173" d="M0,0S21.172,47.038,26.357,58.447,40.875,80.225,40.875,80.225" transform="translate(0 36.965)" fill="none" stroke="#263238" stroke-linecap="round" stroke-linejoin="round" stroke-width="1"/>
          </g>
        </g>
        <path id="Path_174" data-name="Path 174" d="M0,28.842.491,134.677,440.863,0" transform="translate(0 33.112)" fill="none" stroke="#263238" stroke-linecap="round" stroke-linejoin="round" stroke-width="1"/>
        <path id="Path_175" data-name="Path 175" d="M453.2,24.166,23.515,146.016,0,139.6,456,0" transform="translate(0.491 28.186)" fill="#686868" stroke="#263238" stroke-linecap="round" stroke-linejoin="round" stroke-width="1"/>
        <line id="Line_18" data-name="Line 18" y1="49.408" transform="translate(48.681 67.766)" fill="none" stroke="#263238" stroke-linecap="round" stroke-linejoin="round" stroke-width="1"/>
        <path id="Path_176" data-name="Path 176" d="M0,44.341l.523,73.018L389.659,0" transform="translate(29.79 7.441)" fill="none" stroke="#263238" stroke-linecap="round" stroke-linejoin="round" stroke-width="1"/>
        <g id="Group_68" data-name="Group 68" transform="translate(54.27 0)">
          <path id="Path_177" data-name="Path 177" d="M0,57.194l97.122,57.734,67.986-20.5V67.446L77.7,0" transform="translate(0)" fill="#686868" stroke="#263238" stroke-linecap="round" stroke-linejoin="round" stroke-width="1"/>
          <line id="Line_19" data-name="Line 19" x1="126.798" y1="84.172" transform="translate(38.309 10.252)" fill="none" stroke="#263238" stroke-linecap="round" stroke-linejoin="round" stroke-width="1"/>
        </g>
      </g>
    </g>
  </g>
</svg>
