<svg xmlns="http://www.w3.org/2000/svg" xmlns:xlink="http://www.w3.org/1999/xlink" width="800.079" height="590.133" viewBox="0 0 800.079 590.133">
  <defs>
    <linearGradient id="linear-gradient" x1="0.5" x2="0.5" y2="1" gradientUnits="objectBoundingBox">
      <stop offset="0" stop-color="#4366c9"/>
      <stop offset="0.125" stop-color="#7e3ec9"/>
      <stop offset="0.579" stop-color="#e8486b"/>
      <stop offset="1" stop-color="#ffb84f"/>
    </linearGradient>
    <linearGradient id="linear-gradient-2" x1="0" y1="0.223" x2="1" y2="1.214" xlink:href="#linear-gradient"/>
    <linearGradient id="linear-gradient-3" x1="0.7" y1="1" x2="0.589" y2="0.072" xlink:href="#linear-gradient"/>
    <linearGradient id="linear-gradient-4" x1="0.978" y1="2.338" x2="0.061" y2="-2.097" xlink:href="#linear-gradient"/>
    <linearGradient id="linear-gradient-6" x2="0.723" y2="8.544" xlink:href="#linear-gradient"/>
    <linearGradient id="linear-gradient-8" x1="-0.459" y1="-1.388" xlink:href="#linear-gradient"/>
  </defs>
  <g id="Group_2978" data-name="Group 2978" transform="translate(-5414.224 1446.694)">
    <g id="Group_2977" data-name="Group 2977" transform="translate(3474.244 -764.841)">
      <g id="Group_2973" data-name="Group 2973" transform="translate(1939.979 -681.853)">
        <path id="Union_14" data-name="Union 14" d="M322.447,562.512c-19.876-.6-39.046-1.525-56.975-2.759-18.943-1.3-37.09-2.99-53.938-5.012-17.7-2.124-34.5-4.683-49.936-7.6-16.143-3.055-31.272-6.6-44.967-10.531A320.445,320.445,0,0,1,77.6,522.813a196.748,196.748,0,0,1-32.125-17.381A137.09,137.09,0,0,1,32.3,495.3a110.456,110.456,0,0,1-11.089-11.153A91.674,91.674,0,0,1,10.28,468.378,83.381,83.381,0,0,1,3.162,450.8,88.438,88.438,0,0,1,.1,431.306a108.407,108.407,0,0,1,1.25-21.514c.683-4.416,1.543-8.761,2.57-13a75.817,75.817,0,0,1,2.789-9.958,135.458,135.458,0,0,1,7.876-19.381A130.718,130.718,0,0,1,25.554,349.4,137.071,137.071,0,0,1,39.28,333.293,153.245,153.245,0,0,1,52.9,321.16C41.973,279.292,31.959,202.5,81.816,144.417c72.109-84,172.325-44.865,172.325-44.865s-10.945-63.238,32.583-86.369c.326-.173.65-.341.979-.509s.654-.328.979-.49c44.187-21.716,77.2,11.447,77.2,11.447A119.934,119.934,0,0,1,391.6,6.476c.646-.31,1.3-.611,1.956-.908C401.747,1.884,410.87-.658,419.647.151c25.438,2.349,36.078,32.091,36.078,32.091s15.909-8.049,40.614-14.468c.646-.168,1.3-.336,1.956-.5,36.939-9.29,92.451-14.515,144.042,14.969,87.646,50.092,75.526,129.218,75.526,129.218s80.8,32.1,24.154,122.068c0,0,18.338,17.99,18.127,37.949-.16,15.457-15.189,29.507-21.96,35.057a100.873,100.873,0,0,1,15.762,22.342,73.434,73.434,0,0,1,5.729,15.2,63.658,63.658,0,0,1,0,31.278,73.436,73.436,0,0,1-5.729,15.2c-4.975,9.845-12.4,19.535-22.08,28.8a197.4,197.4,0,0,1-35.005,26.115,336.08,336.08,0,0,1-46.41,22.777,507.86,507.86,0,0,1-56.277,18.8c-20.333,5.562-42.07,10.34-64.608,14.2-22.957,3.932-46.982,6.952-71.406,8.975-25.063,2.077-50.858,3.13-76.67,3.13C360.987,563.357,341.122,563.072,322.447,562.512Z" transform="translate(12.976)" fill="url(#linear-gradient)"/>
        <g id="Group_2971" data-name="Group 2971" transform="translate(0 156.46)">
          <g id="Group_2969" data-name="Group 2969" transform="matrix(0.966, -0.259, 0.259, 0.966, 133.603, 337.085)">
            <g id="Group_7" data-name="Group 7" transform="translate(52.333 51.493)">
              <ellipse id="Ellipse_2" data-name="Ellipse 2" cx="9.261" cy="9.261" rx="9.261" ry="9.261" fill="#c6ff00"/>
              <ellipse id="Ellipse_3" data-name="Ellipse 3" cx="9.261" cy="9.261" rx="9.261" ry="9.261" transform="translate(49.392 7.717)" fill="#fff"/>
              <path id="Path_9" data-name="Path 9" d="M18.521,9.261A9.26,9.26,0,1,1,9.261,0,9.26,9.26,0,0,1,18.521,9.261Z" transform="translate(27.783 20.065)" fill="#c6ff00"/>
              <path id="Path_10" data-name="Path 10" d="M18.521,9.261A9.26,9.26,0,1,1,9.261,0,9.26,9.26,0,0,1,18.521,9.261Z" transform="translate(27.783 20.065)" fill="#fff" opacity="0.5"/>
            </g>
            <g id="Group_8" data-name="Group 8" transform="translate(52.333 15.993)">
              <ellipse id="Ellipse_4" data-name="Ellipse 4" cx="9.261" cy="9.261" rx="9.261" ry="9.261" fill="#c6ff00"/>
              <ellipse id="Ellipse_5" data-name="Ellipse 5" cx="9.261" cy="9.261" rx="9.261" ry="9.261" transform="translate(49.392 7.717)" fill="#fff"/>
              <path id="Path_11" data-name="Path 11" d="M18.521,9.261A9.26,9.26,0,1,1,9.261,0,9.26,9.26,0,0,1,18.521,9.261Z" transform="translate(27.783 20.066)" fill="#c6ff00"/>
              <path id="Path_12" data-name="Path 12" d="M18.521,9.261A9.26,9.26,0,1,1,9.261,0,9.26,9.26,0,0,1,18.521,9.261Z" transform="translate(27.783 20.066)" fill="#fff" opacity="0.5"/>
            </g>
            <g id="Group_10" data-name="Group 10" transform="translate(139.288 50.966)">
              <path id="Path_15" data-name="Path 15" d="M4.411,1.375a9.261,9.261,0,1,1-3.034,12.74A9.261,9.261,0,0,1,4.411,1.375Z" transform="translate(19.312 46.11)" fill="#c6ff00"/>
              <path id="Path_16" data-name="Path 16" d="M4.41,1.375a9.261,9.261,0,1,1-3.034,12.74A9.259,9.259,0,0,1,4.41,1.375Z" transform="translate(0 0)" fill="#fff"/>
              <path id="Path_17" data-name="Path 17" d="M4.409,1.375a9.261,9.261,0,1,1-3.034,12.74A9.261,9.261,0,0,1,4.409,1.375Z" transform="translate(21.842 11.932)" fill="#c6ff00"/>
              <path id="Path_18" data-name="Path 18" d="M4.409,1.375a9.261,9.261,0,1,1-3.034,12.74A9.261,9.261,0,0,1,4.409,1.375Z" transform="translate(21.842 11.932)" fill="#fff" opacity="0.5"/>
            </g>
            <g id="Group_11" data-name="Group 11" transform="translate(263.791 82.362)">
              <ellipse id="Ellipse_8" data-name="Ellipse 8" cx="9.261" cy="9.261" rx="9.261" ry="9.261" transform="translate(17.425 62.244) rotate(-76.643)" fill="#c6ff00"/>
              <path id="Path_19" data-name="Path 19" d="M4.409,1.375a9.261,9.261,0,1,1-3.034,12.74A9.261,9.261,0,0,1,4.409,1.375Z" transform="translate(0 0)" fill="#fff"/>
              <path id="Path_20" data-name="Path 20" d="M4.408,1.375A9.261,9.261,0,1,1,1.376,14.117,9.264,9.264,0,0,1,4.408,1.375Z" transform="translate(21.841 11.932)" fill="#c6ff00"/>
              <path id="Path_21" data-name="Path 21" d="M4.408,1.375A9.261,9.261,0,1,1,1.376,14.117,9.264,9.264,0,0,1,4.408,1.375Z" transform="translate(21.841 11.932)" fill="#fff" opacity="0.5"/>
            </g>
            <g id="Group_12" data-name="Group 12" transform="translate(338.395 103.967)">
              <path id="Path_22" data-name="Path 22" d="M.554,12.409A9.26,9.26,0,1,1,12.41,17.972,9.259,9.259,0,0,1,.554,12.409Z" transform="translate(49.075 12.469)" fill="#c6ff00"/>
              <path id="Path_23" data-name="Path 23" d="M.554,12.41A9.26,9.26,0,1,1,12.41,17.973,9.259,9.259,0,0,1,.554,12.41Z" transform="translate(0 21.996)" fill="#fff"/>
              <ellipse id="Ellipse_9" data-name="Ellipse 9" cx="9.261" cy="9.261" rx="9.261" ry="9.261" transform="matrix(0.422, -0.907, 0.907, 0.422, 13.087, 16.795)" fill="#c6ff00"/>
              <ellipse id="Ellipse_10" data-name="Ellipse 10" cx="9.261" cy="9.261" rx="9.261" ry="9.261" transform="matrix(0.422, -0.907, 0.907, 0.422, 13.087, 16.795)" fill="#fff" opacity="0.5"/>
            </g>
            <g id="Group_13" data-name="Group 13" transform="translate(466.305 97.627)">
              <path id="Path_24" data-name="Path 24" d="M.553,12.412a9.262,9.262,0,1,1,11.858,5.56A9.264,9.264,0,0,1,.553,12.412Z" transform="translate(49.075 9.43)" fill="#c6ff00"/>
              <path id="Path_25" data-name="Path 25" d="M.553,12.412a9.262,9.262,0,1,1,11.858,5.563A9.264,9.264,0,0,1,.553,12.412Z" transform="translate(0 18.958)" fill="#fff"/>
              <path id="Path_26" data-name="Path 26" d="M.553,12.412a9.262,9.262,0,1,1,11.858,5.563A9.264,9.264,0,0,1,.553,12.412Z" transform="translate(16.126 0)" fill="#c6ff00"/>
              <path id="Path_27" data-name="Path 27" d="M.553,12.412a9.262,9.262,0,1,1,11.858,5.563A9.264,9.264,0,0,1,.553,12.412Z" transform="translate(16.126 0)" fill="#fff" opacity="0.5"/>
            </g>
            <g id="Group_14" data-name="Group 14" transform="translate(545.024 88.367)">
              <path id="Path_28" data-name="Path 28" d="M.553,12.412a9.262,9.262,0,1,1,11.859,5.563A9.264,9.264,0,0,1,.553,12.412Z" transform="translate(49.075 9.429)" fill="#c6ff00"/>
              <path id="Path_29" data-name="Path 29" d="M.553,12.412a9.262,9.262,0,1,1,11.858,5.563A9.264,9.264,0,0,1,.553,12.412Z" transform="translate(0 18.956)" fill="#fff"/>
              <path id="Path_30" data-name="Path 30" d="M.553,12.41a9.262,9.262,0,1,1,11.858,5.563A9.26,9.26,0,0,1,.553,12.41Z" transform="translate(16.126 0)" fill="#c6ff00"/>
              <path id="Path_31" data-name="Path 31" d="M.553,12.41a9.262,9.262,0,1,1,11.858,5.563A9.26,9.26,0,0,1,.553,12.41Z" transform="translate(16.126 0)" fill="#fff" opacity="0.5"/>
            </g>
            <g id="Group_15" data-name="Group 15" transform="translate(570.396 44.821)">
              <ellipse id="Ellipse_11" data-name="Ellipse 11" cx="9.261" cy="9.261" rx="9.261" ry="9.261" transform="matrix(0.422, -0.907, 0.907, 0.422, 46.035, 23.186)" fill="#c6ff00"/>
              <path id="Path_32" data-name="Path 32" d="M.554,12.409A9.26,9.26,0,1,1,12.41,17.972,9.259,9.259,0,0,1,.554,12.409Z" transform="translate(0 18.958)" fill="#fff"/>
              <path id="Path_33" data-name="Path 33" d="M.554,12.412A9.261,9.261,0,1,1,12.41,17.974,9.261,9.261,0,0,1,.554,12.412Z" transform="translate(16.126 0)" fill="#c6ff00"/>
              <path id="Path_34" data-name="Path 34" d="M.554,12.412A9.261,9.261,0,1,1,12.41,17.974,9.261,9.261,0,0,1,.554,12.412Z" transform="translate(16.126 0)" fill="#fff" opacity="0.5"/>
            </g>
            <g id="Group_17" data-name="Group 17" transform="translate(407.652 72.932)">
              <path id="Path_36" data-name="Path 36" d="M.554,12.412A9.261,9.261,0,1,1,12.41,17.974,9.262,9.262,0,0,1,.554,12.412Z" transform="translate(49.075 9.428)" fill="#c6ff00"/>
              <path id="Path_37" data-name="Path 37" d="M.554,12.412A9.261,9.261,0,1,1,12.41,17.974,9.262,9.262,0,0,1,.554,12.412Z" transform="translate(0 18.956)" fill="#fff"/>
              <path id="Path_38" data-name="Path 38" d="M.553,12.41a9.26,9.26,0,1,1,11.856,5.563A9.26,9.26,0,0,1,.553,12.41Z" transform="translate(16.127 0)" fill="#c6ff00"/>
              <path id="Path_39" data-name="Path 39" d="M.553,12.41a9.26,9.26,0,1,1,11.856,5.563A9.26,9.26,0,0,1,.553,12.41Z" transform="translate(16.127 0)" fill="#fff" opacity="0.5"/>
            </g>
            <g id="Group_21" data-name="Group 21" transform="translate(315.068 61.774)">
              <path id="Path_50" data-name="Path 50" d="M.553,12.412a9.262,9.262,0,1,1,11.858,5.563A9.264,9.264,0,0,1,.553,12.412Z" transform="translate(52.671 13.038)" fill="#c6ff00"/>
              <ellipse id="Ellipse_17" data-name="Ellipse 17" cx="9.261" cy="9.261" rx="9.261" ry="9.261" transform="translate(0 34.307) rotate(-55.905)" fill="#fff"/>
              <ellipse id="Ellipse_18" data-name="Ellipse 18" cx="9.261" cy="9.261" rx="9.261" ry="9.261" transform="translate(16.115 15.29) rotate(-55.64)" fill="#c6ff00"/>
              <ellipse id="Ellipse_19" data-name="Ellipse 19" cx="9.261" cy="9.261" rx="9.261" ry="9.261" transform="translate(16.115 15.29) rotate(-55.64)" fill="#fff" opacity="0.5"/>
            </g>
            <g id="Group_22" data-name="Group 22" transform="translate(189.75 43.338)">
              <ellipse id="Ellipse_20" data-name="Ellipse 20" cx="9.261" cy="9.261" rx="9.261" ry="9.261" transform="translate(49.075 23.185) rotate(-65.059)" fill="#c6ff00"/>
              <ellipse id="Ellipse_21" data-name="Ellipse 21" cx="9.261" cy="9.261" rx="9.261" ry="9.261" transform="translate(0 32.713) rotate(-65.059)" fill="#fff"/>
              <path id="Path_51" data-name="Path 51" d="M.554,12.412A9.261,9.261,0,1,1,12.41,17.974,9.262,9.262,0,0,1,.554,12.412Z" transform="translate(19.165 0)" fill="#c6ff00"/>
              <path id="Path_52" data-name="Path 52" d="M.554,12.412A9.261,9.261,0,1,1,12.41,17.974,9.262,9.262,0,0,1,.554,12.412Z" transform="translate(19.165 0)" fill="#fff" opacity="0.5"/>
            </g>
            <g id="Group_23" data-name="Group 23" transform="translate(393.636 110.905)">
              <path id="Path_53" data-name="Path 53" d="M15.392,2.32A9.262,9.262,0,1,1,2.32,3.131,9.262,9.262,0,0,1,15.392,2.32Z" transform="translate(0 31.913)" fill="#c6ff00"/>
              <path id="Path_54" data-name="Path 54" d="M15.391,2.32a9.261,9.261,0,1,1-13.073.811A9.259,9.259,0,0,1,15.391,2.32Z" transform="translate(38.479 0)" fill="#fff"/>
              <path id="Path_55" data-name="Path 55" d="M15.392,2.32A9.261,9.261,0,1,1,2.32,3.131,9.259,9.259,0,0,1,15.392,2.32Z" transform="translate(33.43 24.371)" fill="#c6ff00"/>
              <path id="Path_56" data-name="Path 56" d="M15.392,2.32A9.261,9.261,0,1,1,2.32,3.131,9.259,9.259,0,0,1,15.392,2.32Z" transform="translate(33.43 24.371)" fill="#fff" opacity="0.5"/>
            </g>
            <g id="Group_24" data-name="Group 24" transform="translate(500.832 49.993)">
              <path id="Path_57" data-name="Path 57" d="M15.392,2.32a9.262,9.262,0,1,1-13.073.811A9.259,9.259,0,0,1,15.392,2.32Z" transform="translate(0 31.916)" fill="#c6ff00"/>
              <path id="Path_58" data-name="Path 58" d="M15.39,2.32a9.261,9.261,0,1,1-13.07.811A9.262,9.262,0,0,1,15.39,2.32Z" transform="translate(38.48 0)" fill="#fff"/>
              <path id="Path_59" data-name="Path 59" d="M15.392,2.32a9.261,9.261,0,1,1-13.073.811A9.262,9.262,0,0,1,15.392,2.32Z" transform="translate(33.431 24.372)" fill="#c6ff00"/>
              <path id="Path_60" data-name="Path 60" d="M15.392,2.32a9.261,9.261,0,1,1-13.073.811A9.262,9.262,0,0,1,15.392,2.32Z" transform="translate(33.431 24.372)" fill="#fff" opacity="0.5"/>
            </g>
            <g id="Group_26" data-name="Group 26" transform="translate(0 0)">
              <path id="Path_65" data-name="Path 65" d="M9.818,18.506a9.261,9.261,0,1,1,8.687-9.8A9.261,9.261,0,0,1,9.818,18.506Z" transform="translate(18.359 0)" fill="#c6ff00"/>
              <ellipse id="Ellipse_22" data-name="Ellipse 22" cx="9.261" cy="9.261" rx="9.261" ry="9.261" transform="translate(23.947 58.796) rotate(-82.598)" fill="#fff"/>
              <path id="Path_66" data-name="Path 66" d="M9.816,18.506a9.261,9.261,0,1,1,8.69-9.8A9.263,9.263,0,0,1,9.816,18.506Z" transform="translate(0 28.94)" fill="#c6ff00"/>
              <path id="Path_67" data-name="Path 67" d="M9.816,18.506a9.261,9.261,0,1,1,8.69-9.8A9.263,9.263,0,0,1,9.816,18.506Z" transform="translate(0 28.94)" fill="#fff" opacity="0.5"/>
            </g>
            <g id="Group_2972" data-name="Group 2972" transform="matrix(-0.309, -0.951, 0.951, -0.309, 217.24, 155.411)">
              <path id="Path_53-2" data-name="Path 53" d="M15.392,2.32A9.262,9.262,0,1,1,2.32,3.131,9.262,9.262,0,0,1,15.392,2.32Z" transform="translate(0 31.913)" fill="#c6ff00"/>
              <path id="Path_54-2" data-name="Path 54" d="M15.391,2.32a9.261,9.261,0,1,1-13.073.811A9.259,9.259,0,0,1,15.391,2.32Z" transform="translate(38.479 0)" fill="#fff"/>
              <path id="Path_55-2" data-name="Path 55" d="M15.392,2.32A9.261,9.261,0,1,1,2.32,3.131,9.259,9.259,0,0,1,15.392,2.32Z" transform="translate(33.43 24.371)" fill="#c6ff00"/>
              <path id="Path_56-2" data-name="Path 56" d="M15.392,2.32A9.261,9.261,0,1,1,2.32,3.131,9.259,9.259,0,0,1,15.392,2.32Z" transform="translate(33.43 24.371)" fill="#fff" opacity="0.5"/>
            </g>
          </g>
          <g id="Group_2970" data-name="Group 2970" transform="translate(0 0)">
            <g id="Group_2968" data-name="Group 2968" transform="translate(0 231.397) rotate(-17)">
              <path id="Path_7" data-name="Path 7" d="M0,44.787l115.544,63,278.2,40.016,372.778-39.589c7.177-9.045,32.284-34.6,22.819-74.637L389.936,84.918,111.733,44.9,23.022,0C10.6,14.342,3.26,34.123,0,44.787Z" transform="translate(0 0)" opacity="0.2"/>
              <path id="Path_8" data-name="Path 8" d="M77.752,76.067,371.2,112.273l385.1-55.118c2.352-15.07-2.976-26.172-7.161-37.076L375.757,68.007,93,28.432,0,0C12.929,30.6,41.89,57.077,67.373,72.894Z" transform="translate(3.495 100.314)" opacity="0.2"/>
            </g>
            <path id="Path_1252" data-name="Path 1252" d="M0,0,92.759,28.359l278.2,40.015L749.032,20.049" transform="translate(32.919 326.305) rotate(-17)" fill="none" stroke="#263238" stroke-linecap="round" stroke-linejoin="round" stroke-width="1"/>
          </g>
        </g>
      </g>
      <g id="Group_2964" data-name="Group 2964" transform="translate(2024.138 -362.328)">
        <path id="Path_758" data-name="Path 758" d="M673.277,350.379a4.284,4.284,0,0,1-1.039-2.539c-.209-3.189,1.75-5.911.377-9.248-.75-1.824-2.69-2.946-4.073-4.179-2.793-2.492-5.217-6.191-4.814-10.2.393-3.9,2.373-8.728,1.917-12.584a11.6,11.6,0,0,0-2.535-5.261,48.492,48.492,0,0,1-4.91-7.744,16.762,16.762,0,0,1-1.682-9.2,40.7,40.7,0,0,1,1.973-6.7,31.545,31.545,0,0,0-1.842-23.217c2.736.507,4.743,2.571,6.184,5.257a35.8,35.8,0,0,1,2.88,8.812,48.535,48.535,0,0,1,1.455,8.459c.214,4.054-.572,8.2.27,12.144,1.143,5.354,5.095,9.466,6.389,14.775,1.521,6.24-.833,13.278,1.457,19.208.912-3.016,1.747-6.354,2.66-9.371a19.06,19.06,0,0,0,1.041-5.1c.06-3.113-1.359-5.981-2.685-8.708a40.177,40.177,0,0,1-3.553-9.418,15.979,15.979,0,0,1,.868-10c.843-1.746,2.114-3.226,2.744-5.084.913-2.695.332-5.754-.658-8.414s-2.376-5.131-3.147-7.883c-1.8-6.4.245-13.953,4.9-18.113-.43,5.26-.487,11.156,1.631,15.859,1.222,2.71,3.183,4.9,4.616,7.47a22.018,22.018,0,0,1,1.965,15.83c-.774,3.012-2.2,5.874-2.276,9.011-.131,5.376,3.681,9.9,4.393,15.214.556,4.166-.841,8.313-2.213,12.228.772-2.739,3.975-4.269,5.586-6.491,2.657-3.666,1.617-9.094.349-13.616s-2.549-9.792-.2-13.721c1.063-1.78,2.719-2.962,4.168-4.348a7.9,7.9,0,0,0,2.824-5.366c.012-.893-.207-1.772-.229-2.664a7.46,7.46,0,0,1,2.893-5.774,17.668,17.668,0,0,1,5.581-2.7c.673,3.618.745,8.021-.636,11.371-1.766,4.284-6.4,6.463-7.825,10.908-.91,2.845-.285,6.02.642,8.857s2.16,5.6,2.487,8.6a14.514,14.514,0,0,1-1.827,8.777c-1.345,2.3-3.29,4.038-4.948,6.054s-3.1,4.534-3.022,7.289c.047,1.7.668,3.338.62,5.035-.163,5.677-7.215,8.317-8.039,13.92-.509,3.454-1.874,5.283-5.309,5.02A8.251,8.251,0,0,1,673.277,350.379Z" transform="translate(-656.403 -246.081)" fill="url(#linear-gradient-2)"/>
        <g id="Group_2897" data-name="Group 2897" transform="translate(1.97 98.307)">
          <path id="Path_759" data-name="Path 759" d="M666.753,431.435h25.325a20.019,20.019,0,1,0-25.325,0Z" transform="translate(-659.397 -395.513)" fill="#fff"/>
          <path id="Path_760" data-name="Path 760" d="M670.02,450.117h25.325l1.074,4.059H668.945Z" transform="translate(-662.664 -414.195)" fill="#dedede"/>
        </g>
        <rect id="Rectangle_307" data-name="Rectangle 307" width="23.355" height="5.313" transform="translate(10.312 96.799)" fill="#fff"/>
      </g>
      <g id="Group_2910" data-name="Group 2910" transform="translate(2170.704 -400.15)">
        <g id="Group_2904" data-name="Group 2904" transform="translate(202.269)">
          <path id="Path_771" data-name="Path 771" d="M571.034,384.5a8.609,8.609,0,1,1-8.609-8.609A8.609,8.609,0,0,1,571.034,384.5Z" transform="translate(-553.815 -375.891)" fill="#ff5447"/>
          <path id="Path_772" data-name="Path 772" d="M571.034,384.5a8.609,8.609,0,1,1-8.609-8.609A8.609,8.609,0,0,1,571.034,384.5Z" transform="translate(-553.815 -375.891)" fill="#ff5447"/>
          <path id="Path_773" data-name="Path 773" d="M571.034,384.5a8.609,8.609,0,1,1-8.609-8.609A8.609,8.609,0,0,1,571.034,384.5Z" transform="translate(-553.815 -375.891)" fill="#ff5447"/>
          <path id="Path_774" data-name="Path 774" d="M557.859,383.777a8.61,8.61,0,0,1,5.111-7.867c-.181-.011-.362-.019-.545-.019a8.609,8.609,0,1,0,3.5,16.476A8.609,8.609,0,0,1,557.859,383.777Z" transform="translate(-553.815 -375.891)" fill="#eb4336"/>
        </g>
        <g id="Group_2905" data-name="Group 2905" transform="translate(325.729)">
          <path id="Path_775" data-name="Path 775" d="M727.441,384.5a8.61,8.61,0,1,1-8.609-8.609A8.609,8.609,0,0,1,727.441,384.5Z" transform="translate(-710.221 -375.891)" fill="#ff5447"/>
          <path id="Path_776" data-name="Path 776" d="M727.441,384.5a8.61,8.61,0,1,1-8.609-8.609A8.609,8.609,0,0,1,727.441,384.5Z" transform="translate(-710.221 -375.891)" fill="#ff5447"/>
          <path id="Path_777" data-name="Path 777" d="M727.441,384.5a8.61,8.61,0,1,1-8.609-8.609A8.609,8.609,0,0,1,727.441,384.5Z" transform="translate(-710.221 -375.891)" fill="#f4f4f2"/>
          <path id="Path_778" data-name="Path 778" d="M714.266,383.777a8.61,8.61,0,0,1,5.111-7.867c-.181-.011-.362-.019-.545-.019a8.609,8.609,0,1,0,3.5,16.476A8.609,8.609,0,0,1,714.266,383.777Z" transform="translate(-710.221 -375.891)" fill="#e3e3e3"/>
        </g>
        <g id="Group_2906" data-name="Group 2906" transform="translate(246.956)">
          <path id="Path_779" data-name="Path 779" d="M627.646,384.5a8.609,8.609,0,1,1-8.609-8.609A8.61,8.61,0,0,1,627.646,384.5Z" transform="translate(-610.427 -375.891)" fill="#ff5447"/>
          <path id="Path_780" data-name="Path 780" d="M627.646,384.5a8.609,8.609,0,1,1-8.609-8.609A8.61,8.61,0,0,1,627.646,384.5Z" transform="translate(-610.427 -375.891)" fill="#ff5447"/>
          <path id="Path_781" data-name="Path 781" d="M627.646,384.5a8.609,8.609,0,1,1-8.609-8.609A8.61,8.61,0,0,1,627.646,384.5Z" transform="translate(-610.427 -375.891)" fill="#7ab46f"/>
          <path id="Path_782" data-name="Path 782" d="M614.471,383.777a8.609,8.609,0,0,1,5.111-7.867c-.181-.011-.362-.019-.545-.019a8.609,8.609,0,1,0,3.5,16.476A8.609,8.609,0,0,1,614.471,383.777Z" transform="translate(-610.427 -375.891)" fill="#2f8d45"/>
        </g>
        <g id="Group_2907" data-name="Group 2907" transform="translate(21.177)">
          <path id="Path_783" data-name="Path 783" d="M341.615,384.5a8.609,8.609,0,1,1-8.609-8.609A8.61,8.61,0,0,1,341.615,384.5Z" transform="translate(-324.396 -375.891)" fill="#ff5447"/>
          <path id="Path_784" data-name="Path 784" d="M341.615,384.5a8.609,8.609,0,1,1-8.609-8.609A8.61,8.61,0,0,1,341.615,384.5Z" transform="translate(-324.396 -375.891)" fill="#ff5447"/>
          <path id="Path_785" data-name="Path 785" d="M341.615,384.5a8.609,8.609,0,1,1-8.609-8.609A8.61,8.61,0,0,1,341.615,384.5Z" transform="translate(-324.396 -375.891)" fill="#defcff"/>
          <path id="Path_786" data-name="Path 786" d="M328.44,383.777a8.61,8.61,0,0,1,5.111-7.867c-.181-.011-.362-.019-.545-.019a8.609,8.609,0,1,0,3.5,16.476A8.609,8.609,0,0,1,328.44,383.777Z" transform="translate(-324.396 -375.891)" fill="#8dd8e0"/>
        </g>
        <g id="Group_2908" data-name="Group 2908" transform="translate(302.714)">
          <path id="Path_787" data-name="Path 787" d="M698.285,384.5a8.61,8.61,0,1,1-8.609-8.609A8.609,8.609,0,0,1,698.285,384.5Z" transform="translate(-681.065 -375.891)" fill="#ff5447"/>
          <path id="Path_788" data-name="Path 788" d="M698.285,384.5a8.61,8.61,0,1,1-8.609-8.609A8.609,8.609,0,0,1,698.285,384.5Z" transform="translate(-681.065 -375.891)" fill="#ff5447"/>
          <path id="Path_789" data-name="Path 789" d="M698.285,384.5a8.61,8.61,0,1,1-8.609-8.609A8.609,8.609,0,0,1,698.285,384.5Z" transform="translate(-681.065 -375.891)" fill="#303030"/>
          <path id="Path_790" data-name="Path 790" d="M685.11,383.777a8.609,8.609,0,0,1,5.111-7.867c-.181-.011-.362-.019-.545-.019a8.609,8.609,0,1,0,3.5,16.476A8.609,8.609,0,0,1,685.11,383.777Z" transform="translate(-681.065 -375.891)" fill="#171717"/>
        </g>
        <g id="Group_2909" data-name="Group 2909" transform="translate(0)">
          <path id="Path_791" data-name="Path 791" d="M314.786,384.5a8.609,8.609,0,1,1-8.609-8.609A8.61,8.61,0,0,1,314.786,384.5Z" transform="translate(-297.567 -375.891)" fill="#ff5447"/>
          <path id="Path_792" data-name="Path 792" d="M314.786,384.5a8.609,8.609,0,1,1-8.609-8.609A8.61,8.61,0,0,1,314.786,384.5Z" transform="translate(-297.567 -375.891)" fill="#ff5447"/>
          <path id="Path_793" data-name="Path 793" d="M314.786,384.5a8.609,8.609,0,1,1-8.609-8.609A8.61,8.61,0,0,1,314.786,384.5Z" transform="translate(-297.567 -375.891)" fill="#1253a3"/>
          <path id="Path_794" data-name="Path 794" d="M301.611,383.777a8.61,8.61,0,0,1,5.111-7.867c-.181-.011-.362-.019-.545-.019a8.61,8.61,0,1,0,3.5,16.476A8.609,8.609,0,0,1,301.611,383.777Z" transform="translate(-297.567 -375.891)" fill="#074491"/>
        </g>
      </g>
      <g id="Group_2926" data-name="Group 2926" transform="translate(1965.975 -503.277)">
        <path id="Path_796" data-name="Path 796" d="M312.728,274.145l-.259.212c1.6,3.427,4.517,6.106,7.724,8.437a17.678,17.678,0,0,1,7.743-3.092Z" transform="translate(-95.977 -251.331)" fill="#949494"/>
        <path id="Path_797" data-name="Path 797" d="M343.258,261.682s-.178,19.542-4.482,20.8-26-11.832-26-11.832S309.912,248.594,343.258,261.682Z" transform="translate(-96.029 -247.831)" fill="#e5e5e5"/>
        <path id="Path_798" data-name="Path 798" d="M323.613,260.8s32.27,5.558,32.449-5.558-48.944-10.253-48.944,1.613c0,8.068,4.482,11.653,4.482,11.653l7.889-5.737s-2.868-3.354,0-4.814S323.613,260.8,323.613,260.8Z" transform="translate(-94.85 -245.699)" fill="#080c53"/>
        <path id="Path_799" data-name="Path 799" d="M271.341,549.157H211.547l1.186-22.584.02-.4,3.729-70.967L191.741,387.8s.012-.086.039-.238c.008-.043.02-.094.031-.149a.66.66,0,0,1,.024-.114c.008-.039.016-.082.028-.129.024-.1.051-.219.082-.344.012-.055.028-.114.043-.173.007-.035.019-.07.027-.1.024-.086.051-.177.078-.271a1.063,1.063,0,0,1,.032-.1c.02-.067.039-.133.062-.2.126-.392.278-.83.474-1.3.036-.086.07-.172.11-.258s.074-.177.118-.266c.086-.2.184-.4.286-.6.047-.09.094-.18.141-.274s.1-.18.149-.274.1-.184.156-.274c.16-.278.336-.56.524-.841s.392-.564.611-.845.45-.56.7-.837c.082-.09.168-.18.254-.274.172-.18.353-.36.545-.536s.387-.353.59-.525c.1-.082.208-.168.313-.25s.234-.184.36-.274c.212-.156.43-.305.654-.45.122-.078.242-.152.364-.227s.25-.148.38-.223c.114-.063.23-.126.348-.188.1-.055.2-.106.3-.157s.184-.09.282-.137.2-.09.3-.133c.121-.054.242-.105.364-.156.336-.141.688-.27,1.052-.388.122-.043.246-.082.372-.117.16-.051.325-.1.493-.141s.332-.086.505-.126.344-.078.52-.113.352-.071.536-.1.364-.063.552-.086c.254-.039.517-.071.783-.094.309-.035.63-.059.954-.078h.016a26.321,26.321,0,0,1,4.685.183l39.4,79.627a9.679,9.679,0,0,1,.771,2.191l17.681,80.339.09.419Z" transform="translate(-70.546 -272.659)" fill="#c6ff00"/>
        <path id="Path_800" data-name="Path 800" d="M212.753,526.187l3.729-70.967-24.741-67.409s.012-.086.039-.238c.008-.043.02-.094.031-.149a.662.662,0,0,1,.024-.114c.008-.039.016-.082.028-.129.024-.1.051-.219.082-.344.012-.055.028-.114.043-.173.007-.035.019-.07.027-.1.024-.086.051-.177.078-.271a1.064,1.064,0,0,1,.032-.105c.02-.067.039-.133.062-.2.126-.392.278-.83.474-1.3.036-.086.07-.172.11-.258s.074-.177.118-.266c.086-.2.184-.4.286-.6.047-.09.094-.18.141-.274s.1-.18.149-.274.1-.184.156-.274c.16-.278.336-.56.524-.841s.392-.564.611-.845.45-.56.7-.837c.082-.09.168-.18.254-.274.172-.18.353-.36.545-.536s.387-.353.59-.525c.1-.082.208-.168.313-.25s.234-.184.36-.274c.212-.156.43-.305.654-.45.122-.078.242-.152.364-.227s.25-.148.38-.223c.114-.063.23-.126.348-.188.1-.055.2-.106.3-.157s.184-.09.282-.137.2-.09.3-.133c.121-.054.242-.1.364-.156.336-.141.688-.27,1.052-.388.122-.043.246-.082.372-.117.16-.051.325-.1.493-.141s.332-.086.505-.126.344-.078.52-.113.352-.071.536-.1.364-.063.552-.086c.254-.039.517-.071.783-.094.309-.035.63-.059.954-.078h.016c-.172,17.219.979,44.507,8.391,66.865l6.84-10.566,13.2,98.994.054.411,2.4,18.025H211.547l1.186-22.584Z" transform="translate(-70.546 -272.668)" fill="#9ecc00"/>
        <path id="Path_801" data-name="Path 801" d="M178.641,367.633C173.5,377.671,159.4,379.823,159.4,379.823l-49.345,152.1-.122.372-2.883,8.887H38.2L54.389,519.2l.254-.344L107.4,447.232l30.478-79.6s-5.377-3.584-3.225-14.342,17.548-15.775,17.548-15.775S183.779,357.591,178.641,367.633Z" transform="translate(-38.203 -264.68)" fill="#c6ff00"/>
        <path id="Path_802" data-name="Path 802" d="M183.841,248.359a6.042,6.042,0,0,0-1.2,3.549c-.1,9.008.256,25.6,3.685,38.207a28.619,28.619,0,0,1,5.214-3.172C186.971,274.554,183.479,261.257,183.841,248.359Z" transform="translate(-68.626 -245.899)" fill="#e3e3e3"/>
        <path id="Path_803" data-name="Path 803" d="M141.714,365.677l-27,76.856,8.609-7.044L74.555,523.553l-.2.356-9.565,17.269H38.2L54.389,519.2l.254-.344L107.4,447.232l30.478-79.6s-5.377-3.584-3.225-14.342,17.548-15.775,17.548-15.775S130.756,354.175,141.714,365.677Z" transform="translate(-38.203 -264.68)" fill="#9ecc00"/>
        <path id="Path_804" data-name="Path 804" d="M257.145,282.664c-9.111-1.176-18.442-2.351-27.663-3.693l20.945,4.975,3.624,1.886Q255.65,284.281,257.145,282.664Z" transform="translate(-78.496 -252.348)" fill="#e3e3e3"/>
        <path id="Path_805" data-name="Path 805" d="M320.275,310.421a28.105,28.105,0,0,1-4.745,4.6l4.237,2.205,35.079,38.587a7.948,7.948,0,0,0,4.881,2.539l45.047,5.732c-.055-1.359-.059-2.735-.009-4.115-15.362-2.019-30.66-3.974-46.138-6.109C345.712,339.381,331.233,326.466,320.275,310.421Z" transform="translate(-96.622 -258.972)" fill="#e3e3e3"/>
        <path id="Path_806" data-name="Path 806" d="M337.984,324.77,300.9,289.391l-13.236-5.737-11.833-7.53-20.259-11.833s-41.694-15.82-65.736-19a6.072,6.072,0,0,0-5.681,2.407c-.362,12.9,3.13,26.195,7.7,38.584a36.2,36.2,0,0,1,24.467-2.075c-3.757-7.646-7.9-15.079-7.9-15.079l11.506,2.734c9.22,1.341,18.552,2.516,27.663,3.693q-1.489,1.621-3.094,3.168l43.354,22.562a28.106,28.106,0,0,0,4.745-4.6c10.959,16.045,25.438,28.96,38.352,43.439,15.478,2.135,30.776,4.09,46.138,6.109.281-7.674,2.294-15.451,7.258-20.9C365.333,325.2,337.984,324.77,337.984,324.77Z" transform="translate(-68.943 -245.243)" fill="#f4f4f2"/>
        <path id="Path_807" data-name="Path 807" d="M428.578,377.306l8.22,1.046a24.068,24.068,0,0,1-.337-4.116q-3.949-.526-7.891-1.044C428.519,374.571,428.523,375.947,428.578,377.306Z" transform="translate(-120.426 -272.195)" fill="#e3e3e3"/>
        <path id="Path_808" data-name="Path 808" d="M435.837,346.716c-4.964,5.447-6.977,13.224-7.258,20.9q3.942.519,7.891,1.044c.021-7.921,3.778-15.821,8.98-21.9C442.7,346.757,439.416,346.741,435.837,346.716Z" transform="translate(-120.435 -266.618)" fill="#e3e3e3"/>
        <path id="Path_809" data-name="Path 809" d="M466.8,363.469c.227,4.082.846,8.426.414,12.5a17.106,17.106,0,0,0,1.544-6.814s20.08,17.606,33.944,18.9c1.984.186,2.645-.437,2.311-1.643A75.441,75.441,0,0,1,466.8,363.469Z" transform="translate(-128.488 -270.147)" fill="#949494"/>
        <path id="Path_810" data-name="Path 810" d="M447.556,346.767c-5.2,6.081-8.96,13.981-8.98,21.9l2.627.352c.336-7.849,2.308-15.79,6.639-22.255Z" transform="translate(-122.541 -266.629)" fill="#949494"/>
        <path id="Path_811" data-name="Path 811" d="M499.774,382.846c-2-7.214-39.715-35.331-43.426-36.264-.729-.183-3.639.118-7.8.133-4.331,6.465-6.3,14.406-6.639,22.255q5.512.736,11.046,1.5c1.04,5.2-1.2,9.882-4.318,13.93,3.052.84,10.191-4.8,13.342-12,.432-4.075-.187-8.418-.414-12.5A75.441,75.441,0,0,0,499.774,382.846Z" transform="translate(-123.242 -266.577)" fill="#e5e5e5"/>
        <path id="Path_812" data-name="Path 812" d="M441.2,374.866l-2.627-.352a24.07,24.07,0,0,0,.337,4.116l2.26.287Q441.118,376.9,441.2,374.866Z" transform="translate(-122.541 -272.474)" fill="#949494"/>
        <path id="Path_813" data-name="Path 813" d="M452.936,376.457q-5.539-.765-11.046-1.5c-.058,1.356-.066,2.709-.03,4.052l8.258,1.051s-5.5,8.845-1.673,10.279c.055.021.116.03.174.046C451.733,386.338,453.977,381.657,452.936,376.457Z" transform="translate(-123.228 -272.568)" fill="#949494"/>
        <path id="Path_814" data-name="Path 814" d="M187.318,300.412a51.821,51.821,0,0,0,1.643,5.067,30.822,30.822,0,0,1,5.449-3.338q-.961-2.423-1.878-4.9A28.614,28.614,0,0,0,187.318,300.412Z" transform="translate(-69.614 -256.196)" fill="#e3e3e3"/>
        <path id="Path_815" data-name="Path 815" d="M220.924,299.635c-.783-1.733-1.647-3.549-2.534-5.353a36.2,36.2,0,0,0-24.467,2.075q.914,2.476,1.878,4.9A34.823,34.823,0,0,1,220.924,299.635Z" transform="translate(-71.005 -255.314)" fill="#e3e3e3"/>
        <path id="Path_816" data-name="Path 816" d="M185.173,335.94c-.841.417-1.687.832-2.543,1.242,0,0-.339,23.426,26.433,30.119,0,0,.753-.661,2.092-1.721C197.676,361.906,185.671,350.321,185.173,335.94Z" transform="translate(-68.626 -264.348)" fill="#074491"/>
        <path id="Path_817" data-name="Path 817" d="M243.422,282.91l-2.187,1.866s-21.381,23.105-55.384,39.993c.5,14.381,12.5,25.966,25.981,29.64.561-.444,1.223-.957,1.98-1.524a28.162,28.162,0,0,1-5.386-24.779c5.479-20.35,26.22-30.133,39.526-44.613Z" transform="translate(-69.305 -253.177)" fill="#e3e3e3"/>
        <path id="Path_818" data-name="Path 818" d="M293.809,288.738l-11.833-7.53-20.259-11.833L249.2,280.059l4.532.583c-13.306,14.48-34.047,24.263-39.526,44.613a28.162,28.162,0,0,0,5.386,24.779c6.727-5.034,20.712-14.139,33.7-13.966,17.928.239,44.94-27.49,44.94-27.49l8.814-14.1Z" transform="translate(-75.085 -250.326)" fill="#f4f4f2"/>
        <path id="Path_819" data-name="Path 819" d="M132.481,303.26l329.577,64.154a.9.9,0,0,1-.334,1.761L131.546,308.192a2.51,2.51,0,0,1,.912-4.937Z" transform="translate(-57.433 -257.454)" fill="#f3a769"/>
        <path id="Path_820" data-name="Path 820" d="M462.059,367.451l-3.156-.614L133.111,306.663a2.51,2.51,0,0,1-2.012-2.925,2.59,2.59,0,0,1,.1-.354,2.509,2.509,0,0,0,.351,4.843l330.179,60.984a.9.9,0,0,0,.334-1.761Z" transform="translate(-57.433 -257.49)" fill="#e08841"/>
        <path id="Path_821" data-name="Path 821" d="M127.723,591.189H38.2l1.029-1.4.29-.391,10.66-14.476L119.2,589.4l1.867.391Z" transform="translate(-38.203 -314.69)" fill="#171c69"/>
        <path id="Path_822" data-name="Path 822" d="M295.63,591.189h-78.8l.074-1.4.02-.391.759-14.476L287.06,589.4l1.874.391Z" transform="translate(-75.831 -314.69)" fill="#171c69"/>
        <g id="Group_2915" data-name="Group 2915" transform="translate(216.828 2.913)">
          <g id="Group_2912" data-name="Group 2912" transform="translate(12.231 6.278)">
            <path id="Path_823" data-name="Path 823" d="M341.812,261.257a83.757,83.757,0,0,1-13.259-1.058.2.2,0,0,1,.062-.387,83.221,83.221,0,0,0,14.976,1.034,38.358,38.358,0,0,0,7.671-.81,18.01,18.01,0,0,0,6.962-3.111.2.2,0,1,1,.238.311,18.4,18.4,0,0,1-7.112,3.181,38.762,38.762,0,0,1-7.751.82Q342.706,261.257,341.812,261.257Z" transform="translate(-328.389 -256.886)" fill="#252b80"/>
          </g>
          <g id="Group_2913" data-name="Group 2913" transform="translate(0 4.611)">
            <path id="Path_824" data-name="Path 824" d="M313.467,265.043a.2.2,0,0,1-.193-.163,18.433,18.433,0,0,1-.367-3.948,6.36,6.36,0,0,1,1.329-3.758c1.52-1.808,4.126-2.186,5.953-2.314a66.7,66.7,0,0,1,12.717.747c1.085.133,2.169.268,3.253.387,4.9.542,10.6.864,15.768-.849a.2.2,0,0,1,.123.372c-5.238,1.735-10.994,1.411-15.934.866-1.085-.12-2.172-.253-3.258-.388a66.4,66.4,0,0,0-12.642-.745c-1.757.122-4.257.482-5.681,2.175a5.979,5.979,0,0,0-1.238,3.527,18.181,18.181,0,0,0,.362,3.863.2.2,0,0,1-.16.225A.154.154,0,0,1,313.467,265.043Z" transform="translate(-312.894 -254.774)" fill="#252b80"/>
          </g>
          <g id="Group_2914" data-name="Group 2914" transform="translate(5.547)">
            <path id="Path_825" data-name="Path 825" d="M347.5,251.554h0a59.2,59.2,0,0,1-9.723-1.118c-1.321-.226-2.686-.46-4.031-.651-3.913-.555-8.989-.951-13.555.931a.2.2,0,1,1-.149-.362c4.652-1.917,9.8-1.519,13.759-.956,1.351.192,2.719.426,4.042.654a58.964,58.964,0,0,0,9.658,1.112.2.2,0,0,1,0,.392Z" transform="translate(-319.921 -248.933)" fill="#252b80"/>
          </g>
        </g>
        <g id="Group_2916" data-name="Group 2916" transform="translate(238.427 16.521)">
          <path id="Path_826" data-name="Path 826" d="M341.041,270.477a.608.608,0,0,1-.075,0,.782.782,0,0,1-.7-.853l.26-2.739a.783.783,0,0,1,1.558.148l-.261,2.739A.783.783,0,0,1,341.041,270.477Z" transform="translate(-340.257 -266.173)" fill="#080c53"/>
        </g>
        <g id="Group_2917" data-name="Group 2917" transform="translate(244.133 16.897)">
          <path id="Path_827" data-name="Path 827" d="M348.27,270.953c-.024,0-.05,0-.075,0a.783.783,0,0,1-.7-.853l.26-2.74a.783.783,0,0,1,1.559.148l-.261,2.74A.782.782,0,0,1,348.27,270.953Z" transform="translate(-347.486 -266.649)" fill="#080c53"/>
        </g>
        <path id="Path_828" data-name="Path 828" d="M336.537,276.46l8.871,4.468s-4.24,2.772-6.686,1.565S336.537,276.46,336.537,276.46Z" transform="translate(-101.045 -251.819)" fill="#defcff"/>
        <path id="Path_829" data-name="Path 829" d="M309.668,274.414l-9.6,7.856-.9,17.39L311.9,289.8a15.768,15.768,0,0,1,5.492-6.948C314.184,280.52,311.267,277.841,309.668,274.414Z" transform="translate(-93.175 -251.388)" fill="#e5e5e5"/>
        <path id="Path_830" data-name="Path 830" d="M221.629,301.38c-.054-.122-.108-.245-.163-.368a34.817,34.817,0,0,0-25.172,1.56c.254.64.513,1.271.77,1.9C204.3,300.316,213.315,299.7,221.629,301.38Z" transform="translate(-71.504 -256.646)" fill="#949494"/>
        <path id="Path_831" data-name="Path 831" d="M221.834,301.683c-8.314-1.68-17.333-1.064-24.565,3.1.6,1.483,1.209,2.955,1.823,4.4.783,1.566-2.739,6.262-.782,9.784,3.051,6.1,10.23,8.857,16.94,7.857,7.253-3.043,10.371-11.5,9.756-16.165C224.753,308.732,223.493,305.418,221.834,301.683Z" transform="translate(-71.71 -256.949)" fill="#e5e5e5"/>
        <path id="Path_832" data-name="Path 832" d="M196.659,319.514c-1.957-3.522,1.565-8.218.782-9.784q-1.314-3.094-2.594-6.3a30.857,30.857,0,0,0-5.417,3.3A31.075,31.075,0,0,0,191.978,312s-5.237,11.1,10.167,15.632a16.76,16.76,0,0,0,11.454-.258C206.889,328.371,199.71,325.616,196.659,319.514Z" transform="translate(-70.059 -257.499)" fill="#949494"/>
        <path id="Path_833" data-name="Path 833" d="M213.393,272.4l-5.669-11.627,10.332,12.735Z" transform="translate(-73.912 -248.515)" fill="#e3e3e3"/>
        <path id="Path_834" data-name="Path 834" d="M375.511,345.335H362.278l10.65-2.464Z" transform="translate(-106.469 -265.808)" fill="#e3e3e3"/>
        <path id="Path_835" data-name="Path 835" d="M300.066,284.366l.228,15.381,4.873-2.637-6,4.646Z" transform="translate(-93.175 -253.484)" fill="#949494"/>
        <path id="Path_836" data-name="Path 836" d="M292.446,285.1l-8.088,22.463,11.349-4.631,1.516,9.881,12.833-18.133L297.794,308.74l-1.744-6.829-9.343,3.176Z" transform="translate(-90.055 -253.639)" fill="#e3e3e3"/>
        <path id="Path_837" data-name="Path 837" d="M297.315,311.041c-.339.532-.9.782-1.246.56s-.358-.834-.02-1.366.9-.782,1.246-.56S297.654,310.51,297.315,311.041Z" transform="translate(-92.466 -258.798)" fill="#e3e3e3"/>
        <path id="Path_838" data-name="Path 838" d="M280.1,328.3c-.489.4-1.1.458-1.358.136s-.076-.9.414-1.3,1.1-.458,1.358-.136S280.59,327.906,280.1,328.3Z" transform="translate(-88.847 -262.422)" fill="#e3e3e3"/>
        <path id="Path_839" data-name="Path 839" d="M254.878,341c-.489.4-1.1.458-1.359.136s-.075-.9.415-1.3,1.1-.458,1.358-.136S255.368,340.6,254.878,341Z" transform="translate(-83.534 -265.096)" fill="#e3e3e3"/>
        <path id="Path_840" data-name="Path 840" d="M228.629,351.383c-.468.422-1.072.515-1.35.208s-.123-.9.345-1.321,1.073-.515,1.351-.208S229.1,350.961,228.629,351.383Z" transform="translate(-78.003 -267.285)" fill="#e3e3e3"/>
        <g id="Group_2918" data-name="Group 2918" transform="translate(41.352 97.432)">
          <path id="Path_841" data-name="Path 841" d="M90.786,531.676a.195.195,0,0,1-.172-.288l43.047-80.427,29.4-82.156a.2.2,0,0,1,.369.131l-29.408,82.182L90.959,531.572A.2.2,0,0,1,90.786,531.676Z" transform="translate(-90.59 -368.675)" fill="#074491"/>
        </g>
        <g id="Group_2919" data-name="Group 2919" transform="translate(135.631 113.165)">
          <path id="Path_842" data-name="Path 842" d="M248.22,535.875a.2.2,0,0,1-.194-.169l-10.954-79.621-27.029-67.208a.2.2,0,1,1,.363-.146l27.038,67.231a.192.192,0,0,1,.013.047l10.957,79.644a.2.2,0,0,1-.167.221Z" transform="translate(-210.029 -388.608)" fill="#074491"/>
        </g>
        <g id="Group_2920" data-name="Group 2920" transform="translate(16.186 254.181)">
          <path id="Path_843" data-name="Path 843" d="M114.373,580.314l-.121.372L78.679,572.3l-19.97-4.7.254-.344,19.912,4.692Z" transform="translate(-58.708 -567.255)" fill="#074491"/>
        </g>
        <g id="Group_2921" data-name="Group 2921" transform="translate(142.187 253.519)">
          <path id="Path_844" data-name="Path 844" d="M274.528,578.428l-34.137-7.056-22.056-4.559.02-.4,21.982,4.543,34.1,7.048Z" transform="translate(-218.335 -566.417)" fill="#074491"/>
        </g>
        <g id="Group_2922" data-name="Group 2922" transform="translate(1.029 274.71)">
          <path id="Path_845" data-name="Path 845" d="M121.337,593.655H39.507l.29-.391H119.47Z" transform="translate(-39.507 -593.264)" fill="#074491"/>
        </g>
        <g id="Group_2923" data-name="Group 2923" transform="translate(141.076 274.71)">
          <path id="Path_846" data-name="Path 846" d="M288.954,593.655H216.927l.02-.391h70.133Z" transform="translate(-216.927 -593.264)" fill="#074491"/>
        </g>
        <g id="Group_2924" data-name="Group 2924" transform="translate(181.845 267.666)">
          <path id="Path_847" data-name="Path 847" d="M279.077,589.036a.2.2,0,0,1-.193-.163l-.46-2.82-2.339,2.34a.2.2,0,0,1-.33-.1l-.583-2.874-2.615,2.393a.2.2,0,0,1-.327-.124l-.291-2.8-3.053,2.156a.2.2,0,0,1-.227-.32l3.326-2.348a.2.2,0,0,1,.194-.018.194.194,0,0,1,.114.158l.286,2.745,2.584-2.364a.2.2,0,0,1,.324.106l.579,2.856,2.352-2.351a.2.2,0,0,1,.2-.048.2.2,0,0,1,.133.155l.522,3.2a.2.2,0,0,1-.162.225Z" transform="translate(-268.576 -584.34)" fill="#074491"/>
        </g>
        <g id="Group_2925" data-name="Group 2925" transform="translate(53.451 267.666)">
          <path id="Path_848" data-name="Path 848" d="M116.419,589.036a.2.2,0,0,1-.193-.164l-.46-2.82-2.339,2.34a.2.2,0,0,1-.195.049.2.2,0,0,1-.136-.148l-.583-2.874-2.614,2.393a.2.2,0,0,1-.2.039.2.2,0,0,1-.125-.163l-.291-2.8-3.054,2.156a.2.2,0,1,1-.226-.32l3.326-2.348a.2.2,0,0,1,.194-.018.194.194,0,0,1,.114.158l.286,2.745L112.5,584.9a.2.2,0,0,1,.324.106l.579,2.856,2.351-2.351a.2.2,0,0,1,.332.107l.522,3.2a.2.2,0,0,1-.161.224Z" transform="translate(-105.918 -584.34)" fill="#074491"/>
        </g>
      </g>
      <g id="Group_2927" data-name="Group 2927" transform="translate(2119.59 -391.541)">
        <path id="Path_1255" data-name="Path 1255" d="M710.046,560.592H688.078l-9.9-130.917h41.761Z" transform="translate(-617.608 -395.83)" fill="url(#linear-gradient-3)"/>
        <path id="Path_849" data-name="Path 849" d="M632.136,423.792H306.555a32.208,32.208,0,0,1-32.208-32.208h390A32.208,32.208,0,0,1,632.136,423.792Z" transform="translate(-241.561 -387.806)" fill="url(#linear-gradient-4)"/>
        <path id="Path_851" data-name="Path 851" d="M356.813,427.337,346.768,560.211h4.7l10.044-132.873Z" transform="translate(-256.817 -395.338)" fill="#f3a769"/>
        <path id="Path_852" data-name="Path 852" d="M346.437,444.386H317.162a12.306,12.306,0,0,1-12.305-12.306h53.886A12.306,12.306,0,0,1,346.437,444.386Z" transform="translate(-247.988 -396.337)" fill="#fbd5af"/>
        <path id="Path_853" data-name="Path 853" d="M352.57,593.542H315.523a7.972,7.972,0,0,1,7.972-7.972h21.1a7.972,7.972,0,0,1,7.972,7.972Z" transform="translate(-250.235 -428.669)" fill="#f3a769"/>
        <path id="Path_854" data-name="Path 854" d="M710.046,560.592H688.078l-9.9-130.917h41.761Z" transform="translate(-326.629 -395.83)" fill="url(#linear-gradient-3)"/>
        <path id="Path_855" data-name="Path 855" d="M645.553,420.431H293.137a18.791,18.791,0,0,1-18.791-18.791v5.479a18.791,18.791,0,0,0,18.791,18.791H645.553a18.791,18.791,0,0,0,18.791-18.791V401.64A18.791,18.791,0,0,1,645.553,420.431Z" transform="translate(-241.561 -389.924)" fill="#f3a769"/>
        <path id="Path_856" data-name="Path 856" d="M677.752,429.676l9.92,130.917h4.7l-9.921-130.917Z" transform="translate(-326.539 -395.83)" fill="#f3a769"/>
        <path id="Path_857" data-name="Path 857" d="M711.652,444.6H682.378A12.305,12.305,0,0,1,670.072,432.3h53.886A12.305,12.305,0,0,1,711.652,444.6Z" transform="translate(-324.921 -396.383)" fill="#fbd5af"/>
        <path id="Path_858" data-name="Path 858" d="M717.785,593.4H680.739a7.972,7.972,0,0,1,7.972-7.972h21.1a7.972,7.972,0,0,1,7.972,7.972Z" transform="translate(-327.168 -428.64)" fill="#f3a769"/>
        <path id="Path_859" data-name="Path 859" d="M680.006,406.679H242.753a9.94,9.94,0,0,1-9.941-9.94h0a9.941,9.941,0,0,1,9.941-9.941H680.006a9.941,9.941,0,0,1,9.94,9.941h0A9.94,9.94,0,0,1,680.006,406.679Z" transform="translate(-232.812 -386.798)" fill="url(#linear-gradient-6)"/>
        <path id="Path_860" data-name="Path 860" d="M680.171,401.792H242.587a9.777,9.777,0,0,1-9.25-6.614,9.764,9.764,0,0,0-.526,3.161v.33a9.775,9.775,0,0,0,9.775,9.775H680.171a9.775,9.775,0,0,0,9.775-9.775v-.33a9.746,9.746,0,0,0-.526-3.161A9.777,9.777,0,0,1,680.171,401.792Z" transform="translate(-232.812 -388.563)" fill="#f3a769"/>
        <path id="Path_919" data-name="Path 919" d="M680.006,406.679H242.753a9.94,9.94,0,0,1-9.941-9.94h0a9.941,9.941,0,0,1,9.941-9.941H680.006a9.941,9.941,0,0,1,9.94,9.941h0A9.94,9.94,0,0,1,680.006,406.679Z" transform="translate(-232.812 -386.798)" fill="url(#linear-gradient-6)"/>
      </g>
      <g id="Group_2944" data-name="Group 2944" transform="translate(2517.372 -577.451)">
        <path id="Path_861" data-name="Path 861" d="M878.987,216.727a32.7,32.7,0,0,1,1.72,9.156c.717,12.669,12.376.294,12.376.294l-3.914-16.264A36.036,36.036,0,0,1,878.987,216.727Z" transform="translate(-766.711 -163.627)" fill="#fff"/>
        <path id="Path_862" data-name="Path 862" d="M887.906,209.789l-.036-.464H872.99s2.8,1.845,4.734,7.279A36.035,36.035,0,0,0,887.906,209.789Z" transform="translate(-765.447 -163.503)" fill="#ccc"/>
        <path id="Path_863" data-name="Path 863" d="M860.949,194.343s-.358,17.032,2.869,17.929,21.514-8.247,21.514-8.247S902.542,166.734,860.949,194.343Z" transform="translate(-762.908 -158.203)" fill="#fff"/>
        <path id="Path_864" data-name="Path 864" d="M877.716,184.959s-6.812,8.068-21.513,7.71-19-17.032,0-19.363c0,0,2.869-6.275,9.681-6.454a12.484,12.484,0,0,1,10.219,4.661s5.2-1.793,8.426.9,1.613,7.354,1.613,7.354,8.691,4.111,6.1,12.917c-1.793,6.084-10.578,7.7-10.578,7.7l-3.048-10.936s4.84-3.232,1.972-5.829S877.716,184.959,877.716,184.959Z" transform="translate(-759.238 -154.555)" fill="#ffdfbf"/>
        <path id="Path_865" data-name="Path 865" d="M937.658,266.686c-.016.024-.031.043-.047.063l-3.048-2.7-.3-.263L924.32,255l-1.138.212a76.271,76.271,0,0,0-3.977-11.474c4.7,5.087,9.393,10.175,13.306,16.437.7,1.088,1.413,2.078,2.149,3.009.086.106.168.212.254.317l.2.246c.184.227.368.446.552.665.219.258.438.512.657.767C936.761,265.684,937.208,266.186,937.658,266.686Z" transform="translate(-775.182 -170.752)" fill="#cc7c12"/>
        <path id="Path_866" data-name="Path 866" d="M933.8,251.88A34.367,34.367,0,0,0,920.239,262.6c-.935-1.04-1.851-2.074-2.744-3.185-.086-.106-.168-.212-.254-.317-.736-.931-1.452-1.921-2.149-3.009-3.914-6.262-8.609-11.349-13.306-16.437a76.265,76.265,0,0,1,3.977,11.474l-8.715,1.617-10.14,1.886L869.853,257.8l-.384.07-9.9,1.839a18.127,18.127,0,0,0-2.783-4.4c-.219,1.033-.431,2.07-.642,3.1-.192.931-.38,1.863-.571,2.79q-.153.752-.305,1.511a39.8,39.8,0,0,1-4.743-14.448c-4.105,8.508-3.6,18.768.38,27.5.106.243.219.485.333.725q.346.716.724,1.416c-.067.274-.133.548-.2.822-.1.411-.2.819-.31,1.229a24.438,24.438,0,0,0-14.938-7.083l1.123-2.928.141-.368,14.062-36.614a8.021,8.021,0,0,1,4.59-4.595l4.681-1.8c3.479,7.13,13.568,8.519,20.718,5.659a32.814,32.814,0,0,0,12.292-7.866l10.018,1.972a11.338,11.338,0,0,1,1.687.47c1.272,1.017,2.532,2.055,3.788,3.076a220.3,220.3,0,0,1,20.393,18.084c.1.1.2.2.29.294Q932.074,250.044,933.8,251.88Z" transform="translate(-757.764 -166.669)" fill="#ff9b17"/>
        <path id="Path_867" data-name="Path 867" d="M854.934,284.281c1.217-5.012,2.267-10.089,3.305-15.186a39.824,39.824,0,0,1-4.742-14.45C849.051,263.856,850.018,275.129,854.934,284.281Z" transform="translate(-760.741 -173.05)" fill="#fec751"/>
        <path id="Path_868" data-name="Path 868" d="M954.146,251.87c-.622.188-1.236.415-1.847.661q-.862-.916-1.741-1.824c-.579-.606-1.17-1.209-1.765-1.808-.094-.1-.192-.2-.29-.294-.02-.024-.043-.043-.066-.066-.274-.278-.556-.56-.834-.834q-.887-.887-1.789-1.761-.452-.44-.916-.881-1.832-1.761-3.718-3.479c-.411-.384-.83-.759-1.248-1.135s-.841-.759-1.268-1.131q-1.914-1.7-3.874-3.354-.651-.558-1.315-1.1c-.438-.368-.88-.736-1.326-1.1s-.889-.728-1.335-1.088c-.892-.724-1.8-1.445-2.7-2.156-1.256-1.021-2.516-2.059-3.788-3.076a11.638,11.638,0,0,1,2.614,1.362A192.7,192.7,0,0,1,950.08,247.87c.1.1.2.2.305.29Q952.317,250.021,954.146,251.87Z" transform="translate(-776.26 -167.32)" fill="#cc7c12"/>
        <path id="Path_869" data-name="Path 869" d="M863.551,267.967l-1.609.3-4.277,17.994-.106.431-.708,2.985c-.454-.5-.927-.99-1.413-1.463.13-.5.254-1.014.38-1.518.1-.419.2-.834.3-1.253.035-.137.066-.278.1-.414,1.1-4.645,2.07-9.342,3.029-14.054q.435-2.149.877-4.3c.211-1.033.422-2.07.642-3.1A18.13,18.13,0,0,1,863.551,267.967Z" transform="translate(-761.75 -174.93)" fill="#fec751"/>
        <path id="Path_870" data-name="Path 870" d="M891.41,230.132a30.689,30.689,0,0,0,9.621-6.728l-18.057-3.554-13.654,5.262C874.172,232.6,883.2,232.819,891.41,230.132Z" transform="translate(-764.674 -165.72)" fill="#fff"/>
        <path id="Path_871" data-name="Path 871" d="M868.972,226.517l-1.3.5c3.48,7.127,13.567,8.518,20.72,5.657q1.358-.528,2.671-1.138C882.849,234.223,873.825,234,868.972,226.517Z" transform="translate(-764.327 -167.125)" fill="#ccc"/>
        <path id="Path_872" data-name="Path 872" d="M875.167,350.369l-27.651,89.9a9.282,9.282,0,0,0,.678,7.092L899.322,543.4l33.833-61.081-47.228-45.178,9.22-80.389Z" transform="translate(-759.995 -193.214)" fill="#171c69"/>
        <path id="Path_873" data-name="Path 873" d="M863.839,440.348l13.531-89.275-2.2-.7-27.651,89.9a9.282,9.282,0,0,0,.678,7.092l26.524,49.825c-.123-13.92-.051-27.84-.283-41.76Z" transform="translate(-759.995 -193.214)" fill="#252b80"/>
        <path id="Path_874" data-name="Path 874" d="M922.9,542.042l-41.169-58.581c.232,13.919.16,27.84.283,41.76l24.6,46.217Z" transform="translate(-767.288 -221.25)" fill="#171c69"/>
        <path id="Path_875" data-name="Path 875" d="M947.088,514.3,916.79,569l-2.775,5.013-.219.391-.54.978.282-.978.114-.391.145-.5,0-.008.536-1.847v0l.681-2.348,19.422-67.1,10.993,10.511.294.282Z" transform="translate(-773.929 -225.199)" fill="#ff5447"/>
        <path id="Path_876" data-name="Path 876" d="M930.091,348.392a15.713,15.713,0,0,0-1.535-2.1s-44.761-5.2-45.916,2.868c-.028.193-.043.385-.059.577C896.9,358.616,915.779,357.247,930.091,348.392Z" transform="translate(-767.468 -192.009)" fill="#171c69"/>
        <path id="Path_877" data-name="Path 877" d="M943.147,543.68,918.03,440.163l5.019-65.259s8.247-5.02,9.682-13.267a17.546,17.546,0,0,0-2.648-12.247c-14.313,8.856-33.191,10.224-47.51,1.349-.628,7.838,8.684,14.873,8.684,14.873L886.138,543.68Z" transform="translate(-767.46 -193.008)" fill="#252b80"/>
        <g id="Group_2928" data-name="Group 2928" transform="translate(138.184 287.521)">
          <path id="Path_878" data-name="Path 878" d="M945.421,515.806l-29.609,56.119-2.317,4.387,0,.008-.262.5-.207.391-.771,1.464h-.442l.771-1.464.207-.391,1.245-2.356v0l1.3-2.454,29.8-56.483Z" transform="translate(-911.808 -515.525)" fill="#171c69"/>
        </g>
        <path id="Path_879" data-name="Path 879" d="M924.5,440.163l5.019-65.259s8.247-5.02,9.681-13.267a17.546,17.546,0,0,0-2.648-12.247q-.684.424-1.382.824c.094,5.915-.859,19.072-10.794,22.876l-3.815,60.528-7.305-9.392,8.9,119.453h27.463Z" transform="translate(-773.929 -193.008)" fill="#171c69"/>
        <path id="Path_880" data-name="Path 880" d="M939.827,592.333H866.787l8.57-1.464,2.293-.391,10.844-1.851.427-.074,1.694-.29.446-.074.575-.1.407-.07,1.385-.235h0l.43-.074h0l.481-.086.427-.07h0l1.769-.305.422-.071,8.257-1.409.615-.106.485-.082.673-.117,29.922-5.107,2.454,10.12.094.391Z" transform="translate(-764.141 -241.661)" fill="#ff5447"/>
        <path id="Path_881" data-name="Path 881" d="M908.127,296.925c4.247-12.743,4.258-26.9.767-40.092l-54.96-3.976s-6.693,18.646,3.347,30.6c9.6,11.427,20.77,27.44,16.387,42.612A45.038,45.038,0,0,0,908.127,296.925Z" transform="translate(-760.973 -172.673)" fill="#ff9b17"/>
        <path id="Path_882" data-name="Path 882" d="M914.555,257.894c3.491,13.195,3.48,27.349-.767,40.092a45.038,45.038,0,0,1-34.459,29.142c-.2.7-.435,1.395-.7,2.089,0,0,19.7,13.147,49.1-1.2,0,0-1.2-55.7-11.952-70.039Z" transform="translate(-766.634 -173.734)" fill="#cc7c12"/>
        <path id="Path_883" data-name="Path 883" d="M920.831,151.987l2.331,346.892a3.048,3.048,0,0,1-6.1.041v-.041l2.33-346.892a.717.717,0,0,1,1.434,0Z" transform="translate(-774.732 -151.275)" fill="#f3a769"/>
        <path id="Path_884" data-name="Path 884" d="M921.383,151.987a.717.717,0,0,0-1.434,0l-.261,38.881,2.07,308.011a3.048,3.048,0,0,1-2.068,2.906,3.044,3.044,0,0,0,4.025-2.906Z" transform="translate(-775.284 -151.275)" fill="#e08841"/>
        <g id="Group_2935" data-name="Group 2935" transform="translate(87.368 17.082)">
          <g id="Group_2929" data-name="Group 2929" transform="translate(0 9.912)">
            <path id="Path_885" data-name="Path 885" d="M861.805,192.226a28.108,28.108,0,0,1-7.3-.961,13.517,13.517,0,0,1-4.272-1.832,6.822,6.822,0,0,1-2.791-3.713.2.2,0,0,1,.378-.1,6.43,6.43,0,0,0,2.636,3.494,13.162,13.162,0,0,0,4.151,1.775,28.057,28.057,0,0,0,21.2-2.782.2.2,0,0,1,.195.339A28.431,28.431,0,0,1,861.805,192.226Z" transform="translate(-847.431 -185.473)" fill="#f5c698"/>
          </g>
          <g id="Group_2930" data-name="Group 2930" transform="translate(4.009 7.629)">
            <path id="Path_886" data-name="Path 886" d="M862.76,187.194H862.7a13.249,13.249,0,0,1-10.141-4.291.2.2,0,1,1,.3-.25,12.859,12.859,0,0,0,9.842,4.15,28.476,28.476,0,0,0,10.745-2.568l.471-.2a17.442,17.442,0,0,1,4.219-1.355,5.705,5.705,0,0,1,4.753,1.236.2.2,0,0,1-.268.286,5.323,5.323,0,0,0-4.431-1.134,17.108,17.108,0,0,0-4.123,1.329l-.473.2A28.975,28.975,0,0,1,862.76,187.194Z" transform="translate(-852.51 -182.581)" fill="#f5c698"/>
          </g>
          <g id="Group_2931" data-name="Group 2931" transform="translate(6.727)">
            <path id="Path_887" data-name="Path 887" d="M858.785,178.171a3.226,3.226,0,0,1-2.805-1.463.2.2,0,0,1,.339-.2,2.868,2.868,0,0,0,2.555,1.268,5.726,5.726,0,0,0,2.883-1.025c.456-.29.9-.617,1.332-.935.414-.305.844-.622,1.287-.906a12.688,12.688,0,0,1,7.077-1.993.2.2,0,0,1,.192.2.19.19,0,0,1-.2.191,12.269,12.269,0,0,0-6.857,1.93c-.432.279-.856.591-1.266.893-.436.321-.887.654-1.355.95a6.107,6.107,0,0,1-3.082,1.086Z" transform="translate(-855.953 -172.916)" fill="#f5c698"/>
          </g>
          <g id="Group_2932" data-name="Group 2932" transform="translate(14.182 1.912)">
            <path id="Path_888" data-name="Path 888" d="M869.56,179.989a10.356,10.356,0,0,1-2.55-.305c-.95-.241-1.522-.714-1.609-1.332a.2.2,0,1,1,.388-.054c.086.607.863.891,1.318,1.006a13.771,13.771,0,0,0,7.761-.69c1.11-.371,2.218-.815,3.289-1.244,1.37-.549,2.785-1.116,4.228-1.54a7.69,7.69,0,0,1,4.66-.206,3.422,3.422,0,0,1,2.388,3.782.2.2,0,0,1-.381-.1,3.062,3.062,0,0,0-2.138-3.318,7.346,7.346,0,0,0-4.42.212c-1.425.42-2.831.984-4.192,1.528-1.077.432-2.19.878-3.311,1.252A17.271,17.271,0,0,1,869.56,179.989Z" transform="translate(-865.398 -175.339)" fill="#f5c698"/>
          </g>
          <g id="Group_2933" data-name="Group 2933" transform="translate(34.617 5.812)">
            <path id="Path_889" data-name="Path 889" d="M896.59,197.867a.2.2,0,0,1-.077-.376,5.7,5.7,0,0,0,3.127-5.787,8.474,8.474,0,0,0-3.664-5.859c-.38-.274-.785-.53-1.178-.778a14.9,14.9,0,0,1-1.842-1.3,4.255,4.255,0,0,1-1.664-3.3.2.2,0,0,1,.206-.186.2.2,0,0,1,.185.206,3.873,3.873,0,0,0,1.531,2.986,14.691,14.691,0,0,0,1.794,1.265c.4.251.809.511,1.2.793a8.857,8.857,0,0,1,3.824,6.136,6.094,6.094,0,0,1-3.363,6.185A.192.192,0,0,1,896.59,197.867Z" transform="translate(-891.287 -180.28)" fill="#f5c698"/>
          </g>
          <g id="Group_2934" data-name="Group 2934" transform="translate(35.448 11.61)">
            <path id="Path_890" data-name="Path 890" d="M893.28,202.359a.194.194,0,0,1-.16-.084,4.53,4.53,0,0,1-.138-4.869,8.911,8.911,0,0,1,1.317-1.54,5.735,5.735,0,0,0,1.558-2.112,3.849,3.849,0,0,0-.622-3.282,11.83,11.83,0,0,0-2.54-2.5.2.2,0,1,1,.245-.3,12.121,12.121,0,0,1,2.621,2.587,4.238,4.238,0,0,1,.667,3.624,6.11,6.11,0,0,1-1.652,2.264,8.646,8.646,0,0,0-1.262,1.47,4.131,4.131,0,0,0,.125,4.438.2.2,0,0,1-.047.272A.192.192,0,0,1,893.28,202.359Z" transform="translate(-892.339 -187.625)" fill="#f5c698"/>
          </g>
        </g>
        <g id="Group_2936" data-name="Group 2936" transform="translate(104.562 37.764)">
          <path id="Path_891" data-name="Path 891" d="M870.322,203.454a.783.783,0,0,1-.777-.691l-.326-2.771a.783.783,0,1,1,1.555-.183l.326,2.772a.783.783,0,0,1-.686.869C870.383,203.453,870.352,203.454,870.322,203.454Z" transform="translate(-869.214 -199.117)" fill="#080c53"/>
        </g>
        <g id="Group_2937" data-name="Group 2937" transform="translate(98.985 38.547)">
          <path id="Path_892" data-name="Path 892" d="M863.257,204.446a.783.783,0,0,1-.777-.691l-.326-2.772a.783.783,0,0,1,1.555-.182l.326,2.772a.783.783,0,0,1-.686.868A.732.732,0,0,1,863.257,204.446Z" transform="translate(-862.149 -200.109)" fill="#080c53"/>
        </g>
        <path id="Path_893" data-name="Path 893" d="M863.348,211.012l8.152-2.186s-.554,4.337-3,5.153S863.348,211.012,863.348,211.012Z" transform="translate(-763.416 -163.398)" fill="#defcff"/>
        <path id="Path_894" data-name="Path 894" d="M959.6,260.04q-.8-.824-1.617-1.652c-5.994,1.823-11.608,6.46-15.46,11.447l.2.178C946.782,264.484,952.988,261.556,959.6,260.04Z" transform="translate(-780.094 -173.838)" fill="#ccc"/>
        <path id="Path_895" data-name="Path 895" d="M912.906,302.585c5.479,3.131,13.306-2.348,14.871-8.609,14.48,4.7,30.133,2.739,44.613-1.565a186.113,186.113,0,0,0-23.321-31.261c-5.826,1.633-11.184,4.495-14.82,9.445l9.217,8.148s-22.709-5.971-27.49-5.015c-3.157.631-12.265,4.915-13.672,13.468A18.6,18.6,0,0,0,912.906,302.585Z" transform="translate(-771.622 -174.42)" fill="#fff"/>
        <path id="Path_896" data-name="Path 896" d="M975.376,290.1a229.841,229.841,0,0,0-24.3-29.616c-.692.159-1.377.336-2.057.527a186.117,186.117,0,0,1,23.321,31.261c-14.48,4.3-30.134,6.261-44.613,1.565-1.565,6.261-9.392,11.74-14.871,8.609a18.6,18.6,0,0,1-10.6-15.39c-.723,4.4.586,9.917,5.784,16.651,10.518,13.626,21.035-1.912,21.035-1.912s26.228,2.075,43.646-3.832A5.2,5.2,0,0,0,975.376,290.1Z" transform="translate(-771.574 -174.279)" fill="#ccc"/>
        <path id="Path_897" data-name="Path 897" d="M894.659,221.434l1.305,5.229.157-4.942Z" transform="translate(-770.012 -166.054)" fill="#e2ff80"/>
        <path id="Path_898" data-name="Path 898" d="M953.4,282.509,968.139,286l-18.67-6.97Z" transform="translate(-781.558 -178.187)" fill="#ccc"/>
        <path id="Path_899" data-name="Path 899" d="M852.143,297.332l.707-2.972a24.915,24.915,0,0,0-16.35-8.548l-.047.12C843.154,286.749,848.228,291.847,852.143,297.332Z" transform="translate(-757.751 -179.615)" fill="#ccc"/>
        <path id="Path_900" data-name="Path 900" d="M800.112,363.585c-.782,1.174.392,5.87-1.565,8.609-1.565,1.565-3.522,3.131-6.261,2.74,2.265,4.854,5.595,11.312,3.805,16.943,4.3-1.951-1.167-14.388-1.167-14.388s6.932-3.108,7.649-10.04l34.512-46.179a7.965,7.965,0,0,0,1.368-2.924l4.385-18.433c-.444-.623-.9-1.24-1.379-1.846a109.662,109.662,0,0,1-8.083,21.687C824.376,335.8,811.462,347.931,800.112,363.585Z" transform="translate(-748.447 -182.197)" fill="#ccc"/>
        <path id="Path_901" data-name="Path 901" d="M815.606,285.964l-10.8,28.11-40.074,41.742-27.251,9.561h29.4s2.152,6.215,7.41,8.366c0,0,.239,14.582,8.127,15.777a3.734,3.734,0,0,0,2.123-.193c1.789-5.631-1.541-12.09-3.806-16.943,2.739.391,4.7-1.175,6.261-2.74,1.957-2.739.783-7.436,1.565-8.609,11.349-15.654,24.264-27.785,33.265-43.83a109.658,109.658,0,0,0,8.083-21.687C826.206,290.777,821.545,286.688,815.606,285.964Z" transform="translate(-736.903 -179.647)" fill="#fff"/>
        <path id="Path_902" data-name="Path 902" d="M822.776,318.7l11.349-10.762-9.282,5.381Z" transform="translate(-754.87 -184.277)" fill="#ccc"/>
        <path id="Path_903" data-name="Path 903" d="M739.726,385.505h0l-2.978,1.021h29.97s2.165,6.035,7.424,8.186a34.483,34.483,0,0,1-6.8-9.207Z" transform="translate(-736.748 -200.615)" fill="#ccc"/>
        <g id="Group_2938" data-name="Group 2938" transform="translate(123.864 83.767)">
          <path id="Path_904" data-name="Path 904" d="M894.45,264.774a.783.783,0,0,1-.258-1.522l16.636-5.812a.783.783,0,1,1,.516,1.478l-16.636,5.813A.8.8,0,0,1,894.45,264.774Z" transform="translate(-893.667 -257.396)" fill="#cc7c12"/>
        </g>
        <g id="Group_2939" data-name="Group 2939" transform="translate(111.689 68.876)">
          <path id="Path_905" data-name="Path 905" d="M891.2,325.02a.175.175,0,0,1-.044-.006.2.2,0,0,1-.147-.234c3.461-14.867.81-29.4-8.594-47.131-9.337-17.6-.1-38.788-.006-39a.2.2,0,1,1,.358.159c-.094.21-9.252,21.227-.006,38.658,9.452,17.818,12.114,32.438,8.632,47.4A.2.2,0,0,1,891.2,325.02Z" transform="translate(-878.243 -238.532)" fill="#fec751"/>
        </g>
        <g id="Group_2940" data-name="Group 2940" transform="translate(159.082 80.55)">
          <path id="Path_906" data-name="Path 906" d="M953.326,253.611c-.548.238-1.077.485-1.593.74a32.528,32.528,0,0,0-12.8,11.169q-.187.282-.352.552l-.3-.263c.125-.195.254-.4.4-.606a32.972,32.972,0,0,1,12.765-11.146c.509-.254,1.037-.5,1.577-.736C953.123,253.419,953.225,253.517,953.326,253.611Z" transform="translate(-938.283 -253.321)" fill="#fec751"/>
        </g>
        <g id="Group_2941" data-name="Group 2941" transform="translate(79.874 102.904)">
          <path id="Path_907" data-name="Path 907" d="M853.978,290.065l-.106.431c-.462-.435-.942-.849-1.44-1.249-.294-.242-.6-.474-.9-.7a46.5,46.5,0,0,0-13.6-6.544l.14-.368a48.176,48.176,0,0,1,13.122,6.187c.454.325.9.658,1.335,1.006Q853.279,289.425,853.978,290.065Z" transform="translate(-837.937 -281.64)" fill="#fec751"/>
        </g>
        <g id="Group_2942" data-name="Group 2942" transform="translate(111.216 348.817)">
          <path id="Path_908" data-name="Path 908" d="M941.758,593.57H877.644l2.293-.391h61.727Z" transform="translate(-877.644 -593.179)" fill="#171c69"/>
        </g>
        <g id="Group_2943" data-name="Group 2943" transform="translate(124.194 343.143)">
          <path id="Path_909" data-name="Path 909" d="M894.282,590.623a.186.186,0,0,1-.051-.007.2.2,0,0,1-.138-.24l.783-2.894a.2.2,0,0,1,.148-.14.2.2,0,0,1,.193.068l2.069,2.55.456-3.019a.2.2,0,0,1,.35-.088l1.857,2.489.928-3.209a.2.2,0,0,1,.352-.053l1.957,3a.2.2,0,0,1-.328.214l-1.724-2.643-.92,3.177a.2.2,0,0,1-.344.063l-1.812-2.43-.452,2.994a.2.2,0,0,1-.346.094l-2.107-2.6-.683,2.524A.2.2,0,0,1,894.282,590.623Z" transform="translate(-894.086 -585.991)" fill="#171c69"/>
        </g>
      </g>
      <g id="Group_2957" data-name="Group 2957" transform="translate(2203.024 -680.242)">
        <g id="Group_2945" data-name="Group 2945" transform="translate(45.636 6.617)">
          <path id="Path_910" data-name="Path 910" d="M398.282,29.436V138.719a.978.978,0,1,1-1.957,0V30.435c.325-.173.65-.341.979-.509S397.957,29.6,398.282,29.436Z" transform="translate(-396.325 -29.436)" fill="#23508a"/>
        </g>
        <g id="Group_2946" data-name="Group 2946" transform="translate(150.516 0)">
          <path id="Path_911" data-name="Path 911" d="M531.151,21.053v115.9a.978.978,0,1,1-1.957,0V21.961Q530.164,21.5,531.151,21.053Z" transform="translate(-529.194 -21.053)" fill="#23508a"/>
        </g>
        <g id="Group_2947" data-name="Group 2947" transform="translate(255.251 11.705)">
          <path id="Path_912" data-name="Path 912" d="M663.837,35.882V143.208a.978.978,0,1,1-1.957,0V36.382C662.526,36.214,663.175,36.046,663.837,35.882Z" transform="translate(-661.88 -35.882)" fill="#23508a"/>
        </g>
        <g id="Group_2950" data-name="Group 2950" transform="translate(0 102.79)">
          <g id="Group_2948" data-name="Group 2948" transform="translate(35.051)">
            <rect id="Rectangle_308" data-name="Rectangle 308" width="23.129" height="11.111" fill="#23508a"/>
          </g>
          <g id="Group_2949" data-name="Group 2949" transform="translate(0 5.364)">
            <path id="Path_913" data-name="Path 913" d="M385.126,158.07c-25.745,0-46.615,8.662-46.615,19.348h93.23C431.741,166.732,410.871,158.07,385.126,158.07Z" transform="translate(-338.511 -158.07)" fill="#23508a"/>
          </g>
        </g>
        <g id="Group_2953" data-name="Group 2953" transform="translate(104.881 102.79)">
          <g id="Group_2951" data-name="Group 2951" transform="translate(35.05)">
            <rect id="Rectangle_309" data-name="Rectangle 309" width="23.129" height="11.111" fill="#23508a"/>
          </g>
          <g id="Group_2952" data-name="Group 2952" transform="translate(0 5.364)">
            <path id="Path_914" data-name="Path 914" d="M518,158.07c-25.745,0-46.614,8.662-46.614,19.348H564.61C564.61,166.732,543.74,158.07,518,158.07Z" transform="translate(-471.381 -158.07)" fill="#23508a"/>
          </g>
        </g>
        <g id="Group_2956" data-name="Group 2956" transform="translate(209.614 102.726)">
          <g id="Group_2954" data-name="Group 2954" transform="translate(35.05)">
            <rect id="Rectangle_310" data-name="Rectangle 310" width="23.129" height="11.111" fill="#23508a"/>
          </g>
          <g id="Group_2955" data-name="Group 2955" transform="translate(0 5.364)">
            <path id="Path_915" data-name="Path 915" d="M650.679,157.989c-25.745,0-46.615,8.662-46.615,19.348h93.23C697.294,166.651,676.424,157.989,650.679,157.989Z" transform="translate(-604.064 -157.989)" fill="#23508a"/>
          </g>
        </g>
      </g>
      <g id="Group_2961" data-name="Group 2961" transform="translate(2170.704 -552.773)">
        <g id="Group_2958" data-name="Group 2958" transform="translate(0 0.033)" opacity="0.49" style="mix-blend-mode: soft-light;isolation: isolate">
          <path id="Path_916" data-name="Path 916" d="M329.886,182.581h93.23L450.3,343.78H297.567Z" transform="translate(-297.567 -182.581)" fill="#fff"/>
        </g>
        <g id="Group_2959" data-name="Group 2959" transform="translate(104.88 0.033)" opacity="0.49" style="mix-blend-mode: soft-light;isolation: isolate">
          <path id="Path_917" data-name="Path 917" d="M462.756,182.581h93.23l27.187,161.2H430.436Z" transform="translate(-430.436 -182.581)" fill="#fff"/>
        </g>
        <g id="Group_2960" data-name="Group 2960" transform="translate(209.614)" opacity="0.49" style="mix-blend-mode: soft-light;isolation: isolate">
          <path id="Path_918" data-name="Path 918" d="M595.439,182.54h93.23l27.187,161.2H563.119Z" transform="translate(-563.119 -182.54)" fill="#fff"/>
        </g>
      </g>
      <g id="Group_2963" data-name="Group 2963" transform="translate(2551.424 -362.328)">
        <path id="Path_758-2" data-name="Path 758" d="M673.277,350.379a4.284,4.284,0,0,1-1.039-2.539c-.209-3.189,1.75-5.911.377-9.248-.75-1.824-2.69-2.946-4.073-4.179-2.793-2.492-5.217-6.191-4.814-10.2.393-3.9,2.373-8.728,1.917-12.584a11.6,11.6,0,0,0-2.535-5.261,48.492,48.492,0,0,1-4.91-7.744,16.762,16.762,0,0,1-1.682-9.2,40.7,40.7,0,0,1,1.973-6.7,31.545,31.545,0,0,0-1.842-23.217c2.736.507,4.743,2.571,6.184,5.257a35.8,35.8,0,0,1,2.88,8.812,48.535,48.535,0,0,1,1.455,8.459c.214,4.054-.572,8.2.27,12.144,1.143,5.354,5.095,9.466,6.389,14.775,1.521,6.24-.833,13.278,1.457,19.208.912-3.016,1.747-6.354,2.66-9.371a19.06,19.06,0,0,0,1.041-5.1c.06-3.113-1.359-5.981-2.685-8.708a40.177,40.177,0,0,1-3.553-9.418,15.979,15.979,0,0,1,.868-10c.843-1.746,2.114-3.226,2.744-5.084.913-2.695.332-5.754-.658-8.414s-2.376-5.131-3.147-7.883c-1.8-6.4.245-13.953,4.9-18.113-.43,5.26-.487,11.156,1.631,15.859,1.222,2.71,3.183,4.9,4.616,7.47a22.018,22.018,0,0,1,1.965,15.83c-.774,3.012-2.2,5.874-2.276,9.011-.131,5.376,3.681,9.9,4.393,15.214.556,4.166-.841,8.313-2.213,12.228.772-2.739,3.975-4.269,5.586-6.491,2.657-3.666,1.617-9.094.349-13.616s-2.549-9.792-.2-13.721c1.063-1.78,2.719-2.962,4.168-4.348a7.9,7.9,0,0,0,2.824-5.366c.012-.893-.207-1.772-.229-2.664a7.46,7.46,0,0,1,2.893-5.774,17.668,17.668,0,0,1,5.581-2.7c.673,3.618.745,8.021-.636,11.371-1.766,4.284-6.4,6.463-7.825,10.908-.91,2.845-.285,6.02.642,8.857s2.16,5.6,2.487,8.6a14.514,14.514,0,0,1-1.827,8.777c-1.345,2.3-3.29,4.038-4.948,6.054s-3.1,4.534-3.022,7.289c.047,1.7.668,3.338.62,5.035-.163,5.677-7.215,8.317-8.039,13.92-.509,3.454-1.874,5.283-5.309,5.02A8.251,8.251,0,0,1,673.277,350.379Z" transform="translate(-656.403 -246.081)" fill="url(#linear-gradient-8)"/>
        <g id="Group_2897-2" data-name="Group 2897" transform="translate(1.97 98.307)">
          <path id="Path_759-2" data-name="Path 759" d="M666.753,431.435h25.325a20.019,20.019,0,1,0-25.325,0Z" transform="translate(-659.397 -395.513)" fill="#fff"/>
          <path id="Path_760-2" data-name="Path 760" d="M670.02,450.117h25.325l1.074,4.059H668.945Z" transform="translate(-662.664 -414.195)" fill="#dedede"/>
        </g>
        <rect id="Rectangle_307-2" data-name="Rectangle 307" width="23.355" height="5.313" transform="translate(10.312 96.799)" fill="#fff"/>
      </g>
    </g>
  </g>
</svg>
