<svg xmlns="http://www.w3.org/2000/svg" xmlns:xlink="http://www.w3.org/1999/xlink" width="147.188" height="154.99" viewBox="0 0 147.188 154.99">
  <defs>
    <linearGradient id="linear-gradient" x1="0.5" x2="0.5" y2="1" gradientUnits="objectBoundingBox">
      <stop offset="0" stop-color="#4366c9"/>
      <stop offset="0.125" stop-color="#7e3ec9"/>
      <stop offset="0.579" stop-color="#e8486b"/>
      <stop offset="1" stop-color="#ffb84f"/>
    </linearGradient>
  </defs>
  <g id="nail-polish" transform="translate(0)">
    <g id="Group_320" data-name="Group 320" transform="translate(103.791 77.556)">
      <path id="Path_426" data-name="Path 426" d="M40.948,290.721c6.514,0,12.512-5.4,12.324-12.324l-.618-22.237a20.578,20.578,0,0,1,8.857,16.89v58.274H20.385V273.05a20.563,20.563,0,0,1,8.857-16.881L28.624,278.4a12.248,12.248,0,0,0,12.324,12.324Z" transform="translate(-20.385 -256.16)" fill="#d3e5ea" fill-rule="evenodd"/>
    </g>
    <g id="Group_321" data-name="Group 321" transform="translate(21.532 87.854)">
      <path id="Path_427" data-name="Path 427" d="M312.645,324.728c6.505,0,12.512-5.4,12.315-12.324l-.609-22.228a20.574,20.574,0,0,1,8.857,16.881v47.984H292.082V307.057a20.588,20.588,0,0,1,8.848-16.881l-.609,22.228A12.249,12.249,0,0,0,312.645,324.728Z" transform="translate(-292.082 -290.176)" fill="#d3e5ea" fill-rule="evenodd"/>
    </g>
    <g id="Group_322" data-name="Group 322" transform="translate(70.901 51.088)">
      <path id="Path_428" data-name="Path 428" d="M184.271,170.327a1.6,1.6,0,0,1,1.579-1.588h19.833a1.6,1.6,0,0,1,1.579,1.588l.215,7.673.609,22.237c.189,6.917-5.81,12.316-12.324,12.316a12.234,12.234,0,0,1-12.315-12.316C183.86,185.251,183.731,190,184.271,170.327Z" transform="translate(-183.444 -168.739)" fill-rule="evenodd" fill="url(#linear-gradient)"/>
    </g>
    <g id="Group_323" data-name="Group 323" transform="translate(62.658 60.348)">
      <path id="Path_429" data-name="Path 429" d="M156.22,291.7v-75.49a20.574,20.574,0,0,1,8.857-16.881l-.369,13.534-.24,8.7a12.234,12.234,0,0,0,12.315,12.316,12.376,12.376,0,0,0,12.324-12.316l-.609-22.237a20.6,20.6,0,0,1,8.857,16.881V291.7Z" transform="translate(-156.22 -199.325)" fill="#d3e5ea" fill-rule="evenodd"/>
    </g>
    <g id="Group_324" data-name="Group 324" transform="translate(103.791 77.564)">
      <path id="Path_430" data-name="Path 430" d="M120.957,331.343V273.069a20.563,20.563,0,0,1,8.857-16.881l-.618,22.228a11.648,11.648,0,0,0,2.437,7.441v45.486H120.957Z" transform="translate(-120.957 -256.188)" fill="#e9f2f4" fill-rule="evenodd"/>
    </g>
    <g id="Group_325" data-name="Group 325" transform="translate(62.658 63)">
      <path id="Path_431" data-name="Path 431" d="M257.1,297.8v-75.49a20.446,20.446,0,0,1,5.389-13.835c.257.026.524.034.8.034a8.6,8.6,0,0,0,1.777-.2,7.833,7.833,0,0,0,.815-.232l-.292,10.882-.24,8.7a11.649,11.649,0,0,0,2.343,7.312V297.8Z" transform="translate(-257.103 -208.084)" fill="#e9f2f4" fill-rule="evenodd"/>
    </g>
    <g id="Group_326" data-name="Group 326" transform="translate(21.533 87.854)">
      <path id="Path_432" data-name="Path 432" d="M393.985,355.041V307.057a20.588,20.588,0,0,1,8.848-16.881l-.609,22.228a11.606,11.606,0,0,0,2.034,6.875v35.763H393.985Z" transform="translate(-393.985 -290.176)" fill="#e9f2f4" fill-rule="evenodd"/>
    </g>
    <g id="Group_327" data-name="Group 327" transform="translate(70.901 51.088)" opacity="0.3">
      <path id="Path_433" data-name="Path 433" d="M212.151,170.327a1.6,1.6,0,0,1,1.579-1.588h7.827a1.6,1.6,0,0,0-1.579,1.588l-.12,4.342q-.347,12.783-.7,25.567a12.112,12.112,0,0,0,8.376,11.672,12.071,12.071,0,0,1-3.888.644,12.234,12.234,0,0,1-12.315-12.316Q211.739,185.277,212.151,170.327Z" transform="translate(-211.323 -168.739)" fill="#fff" fill-rule="evenodd"/>
    </g>
    <g id="Group_328" data-name="Group 328" transform="translate(29.767 78.594)">
      <path id="Path_434" data-name="Path 434" d="M320.133,261.168a1.6,1.6,0,0,1,1.579-1.579h19.833a1.6,1.6,0,0,1,1.588,1.579l.206,7.681.609,22.228c.2,6.926-5.81,12.324-12.315,12.324a12.249,12.249,0,0,1-12.324-12.324l.609-22.228Z" transform="translate(-319.305 -259.589)" fill-rule="evenodd" fill="url(#linear-gradient)"/>
    </g>
    <g id="Group_329" data-name="Group 329" transform="translate(112.026 68.304)">
      <path id="Path_435" data-name="Path 435" d="M50,225.6H69.824a1.6,1.6,0,0,1,1.588,1.579l.206,7.673.618,22.237c.189,6.926-5.81,12.324-12.324,12.324A12.249,12.249,0,0,1,47.588,257.09l.618-22.228.206-7.681A1.605,1.605,0,0,1,50,225.6Z" transform="translate(-47.584 -225.602)" fill-rule="evenodd" fill="url(#linear-gradient)"/>
    </g>
    <g id="Group_330" data-name="Group 330" transform="translate(112.026 68.303)" opacity="0.3">
      <path id="Path_436" data-name="Path 436" d="M83.9,231.5l-.7,25.592a12.093,12.093,0,0,0,8.3,11.646,12.137,12.137,0,0,1-3.965.678,12.507,12.507,0,0,1-9.887-4.883,11.648,11.648,0,0,1-2.437-7.441l.618-22.228.206-7.681a1.6,1.6,0,0,1,1.588-1.579H85.6a1.6,1.6,0,0,0-1.579,1.579Z" transform="translate(-75.206 -225.601)" fill="#fff" fill-rule="evenodd"/>
    </g>
    <g id="Group_331" data-name="Group 331" transform="translate(29.767 78.594)" opacity="0.3">
      <path id="Path_437" data-name="Path 437" d="M355.787,265.537l-.7,25.541a12.126,12.126,0,0,0,8.428,11.7,12.251,12.251,0,0,1-3.827.626,12.484,12.484,0,0,1-10.29-5.45,11.6,11.6,0,0,1-2.034-6.875l.609-22.228.215-7.681a1.6,1.6,0,0,1,1.579-1.579h7.724a1.6,1.6,0,0,0-1.579,1.579Z" transform="translate(-347.355 -259.59)" fill="#fff" fill-rule="evenodd"/>
    </g>
    <g id="Group_332" data-name="Group 332" transform="translate(70.359 104.824)">
      <path id="Path_438" data-name="Path 438" d="M194.52,352.557A33.418,33.418,0,0,0,205.9,350.63a2.271,2.271,0,1,0-1.561-4.264,29.8,29.8,0,0,1-19.628,0,2.271,2.271,0,0,0-1.561,4.264,33.407,33.407,0,0,0,11.375,1.927Z" transform="translate(-181.655 -346.226)"/>
    </g>
    <g id="Group_333" data-name="Group 333" transform="translate(26.965 26.843)">
      <path id="Path_439" data-name="Path 439" d="M314.872,97.422l2.463-6.548,5.827-2.214,20.5,19.413-1.939,6.368-5.964,2.755Z" transform="translate(-314.872 -88.659)" fill-rule="evenodd" fill="url(#linear-gradient)"/>
    </g>
    <g id="Group_334" data-name="Group 334" transform="translate(47.854 46.256)">
      <path id="Path_440" data-name="Path 440" d="M250.1,161.9l7.9-9.123,5.8,5.493c3.27,3.1,6.436,6.565,13.809,8.505-7.054,7.449-12.633,6.969-17.542,3.871a34.335,34.335,0,0,1-5.106-4.137Z" transform="translate(-250.1 -152.779)" fill="#fe93d3" fill-rule="evenodd"/>
    </g>
    <g id="Group_335" data-name="Group 335" transform="translate(47.854 51.302)">
      <path id="Path_441" data-name="Path 441" d="M260.072,182.268c-3.5-2.206-6.617-5.57-9.621-8.411l-.352-.335,2.429-2.8,1.107-1.279.927.875c3.6,3.407,7.681,8,13.062,8.17,2.6.086,4.394.215,6.522-1.227a29.4,29.4,0,0,0,3.467,1.133c-3.218,3.407-6.136,5.158-8.822,5.75a10.557,10.557,0,0,1-2.154.249,12.244,12.244,0,0,1-6.565-2.128Z" transform="translate(-250.1 -169.446)" fill="#fe72c5" fill-rule="evenodd"/>
    </g>
    <g id="Group_337" data-name="Group 337" transform="translate(2.275 2.246)">
      <path id="Path_443" data-name="Path 443" d="M377.928,11.187a12.1,12.1,0,0,1,9.9-3.716l.566.069a12.065,12.065,0,0,1,6.634,3.175L410.016,24.9,403,35.956l-9.629,6.523L378.391,28.292a12.1,12.1,0,0,1-.463-17.105Z" transform="translate(-374.625 -7.42)" fill="#33363a" fill-rule="evenodd"/>
    </g>
    <g id="Group_338" data-name="Group 338" transform="translate(2.275 4.151)">
      <path id="Path_444" data-name="Path 444" d="M435.13,46.864,420.145,32.678a12.092,12.092,0,0,1-.463-17.1,11.589,11.589,0,0,1,2.257-1.862,12.11,12.11,0,0,0,2.205,14.745l14.984,14.187Z" transform="translate(-416.379 -13.711)" fill="#484b4e" fill-rule="evenodd"/>
    </g>
    <g id="Group_339" data-name="Group 339" transform="translate(21.026 19.728)">
      <path id="Path_445" data-name="Path 445" d="M350.939,82.737,367.58,65.16l6.4,6.068a2.487,2.487,0,0,1,.094,3.5l-2.463,2.609-8.29,8.754L360.851,88.7a2.472,2.472,0,0,1-3.5.094Z" transform="translate(-350.939 -65.16)" fill="#d3e5ea" fill-rule="evenodd"/>
    </g>
    <g id="Group_340" data-name="Group 340" transform="translate(21.026 33.082)">
      <path id="Path_446" data-name="Path 446" d="M390.106,119.548l-6.411-6.059,4-4.223,6.4,6.059a2.492,2.492,0,0,0,3.493-.069h-.009l-1.5,1.588-2.472,2.609A2.471,2.471,0,0,1,390.106,119.548Z" transform="translate(-383.695 -109.266)" fill="#dddaec" fill-rule="evenodd"/>
    </g>
    <path id="Path_447" data-name="Path 447" d="M250.1,161.9l7.9-9.123,5.8,5.493c3.27,3.1,6.436,6.565,13.809,8.505-7.054,7.449-12.633,6.969-17.542,3.871a34.335,34.335,0,0,1-5.106-4.137Z" transform="translate(-202.246 -106.523)" fill-rule="evenodd" fill="url(#linear-gradient)"/>
    <g id="Group_342" data-name="Group 342" transform="translate(0 0)">
      <path id="Path_448" data-name="Path 448" d="M320.568,437.217a29.888,29.888,0,0,0,19.632,0,2.271,2.271,0,0,1,1.558,4.266,34.631,34.631,0,0,1-22.747,0,2.271,2.271,0,1,1,1.557-4.266Z" transform="translate(-288.293 -304.748)"/>
      <path id="Path_449" data-name="Path 449" d="M422.686,447.654a2.271,2.271,0,0,1,2.271,2.271v14.916a2.271,2.271,0,1,1-4.541,0V449.925A2.271,2.271,0,0,1,422.686,447.654Z" transform="translate(-401.153 -312.121)"/>
      <g id="Group_341" data-name="Group 341" transform="translate(0 0)">
        <path id="Path_450" data-name="Path 450" d="M48.844,403.229a29.921,29.921,0,0,0,19.641,0,2.271,2.271,0,0,1,1.556,4.267,34.666,34.666,0,0,1-22.754,0,2.271,2.271,0,1,1,1.556-4.267Z" transform="translate(65.69 -281.05)"/>
        <path id="Path_451" data-name="Path 451" d="M16.814,4.452l.044-.045A14.473,14.473,0,0,1,37.131,3.9l3.1,2.944A2.271,2.271,0,1,1,37.1,10.131l-3.094-2.94A9.954,9.954,0,0,0,20.091,7.6a9.839,9.839,0,0,0,.4,13.871L33.826,34.091,47.346,19.81l-3.7-3.516A2.271,2.271,0,0,1,46.767,13L58.515,24.147a4.753,4.753,0,0,1,.181,6.711L57.27,32.366S76.519,50.589,76.776,50.837a31.832,31.832,0,0,0,5.489,4.5l.078-2.71a3.89,3.89,0,0,1,3.849-3.814h19.833a3.86,3.86,0,0,1,3.849,3.8l.183,6.568a22.879,22.879,0,0,1,8.888,18.049v3.591a23.03,23.03,0,0,1,4.341-4.426l.181-6.579a3.86,3.86,0,0,1,3.857-3.782h19.825a3.861,3.861,0,0,1,3.857,3.787l.181,6.575a22.883,22.883,0,0,1,8.883,18.052V152.72a2.271,2.271,0,1,1-4.541,0V94.447a18.273,18.273,0,0,0-4.164-11.584l.465,16.867a13.908,13.908,0,0,1-4.021,10.136,14.663,14.663,0,0,1-21.13.052,13.982,13.982,0,0,1-4.037-10.188l.465-16.867a18.271,18.271,0,0,0-4.163,11.53v58.326a2.271,2.271,0,0,1-2.271,2.271h0a2.271,2.271,0,0,1-2.271-2.271V94.447c0-.027,0-.054,0-.081V77.23a18.261,18.261,0,0,0-4.169-11.584l.463,16.877a13.894,13.894,0,0,1-4.018,10.126,14.665,14.665,0,0,1-21.139.047A13.946,13.946,0,0,1,81.52,82.523l.408-14.918a13.779,13.779,0,0,1-1.676.538,18.178,18.178,0,0,0-2.438,9.086v75.49a2.271,2.271,0,0,1-2.271,2.271h0a2.271,2.271,0,0,1-2.271-2.271V104.735a18.266,18.266,0,0,0-4.166-11.586l.46,16.869a13.887,13.887,0,0,1-4.01,10.132,14.658,14.658,0,0,1-21.133.059,13.981,13.981,0,0,1-4.036-10.188l.465-16.869a18.269,18.269,0,0,0-4.162,11.584v22.58a2.271,2.271,0,1,1-4.541,0v-22.58a22.872,22.872,0,0,1,8.882-18.05l.181-6.578a3.855,3.855,0,0,1,3.849-3.782H64.892a3.861,3.861,0,0,1,3.857,3.788l.179,6.575a23.019,23.019,0,0,1,4.343,4.422V77.229a22.675,22.675,0,0,1,1.823-8.906,15.733,15.733,0,0,1-5.6-2.28,35.7,35.7,0,0,1-5.453-4.407L45.86,44.42l-.382.4a4.7,4.7,0,0,1-3.327,1.49l-.13,0a4.689,4.689,0,0,1-3.26-1.3l-6.328-5.988c-.028-.024-.056-.046-.083-.071s-.048-.05-.072-.075L17.366,24.766a14.386,14.386,0,0,1-.552-20.314Zm113.121,102.3a10.122,10.122,0,0,0,14.622-.051,9.4,9.4,0,0,0,2.736-6.844l-.807-29.28H127.991l-.807,29.278A9.473,9.473,0,0,0,129.935,106.75ZM88.8,89.529a10.124,10.124,0,0,0,14.629-.048,9.391,9.391,0,0,0,2.733-6.834l-.807-29.289H86.865l-.117,4.071c.65.223,1.341.434,2.081.629A2.271,2.271,0,0,1,89.9,61.815a30.367,30.367,0,0,1-3.357,3.078l-.485,17.755A9.445,9.445,0,0,0,88.8,89.529ZM65.025,110.144l-.8-29.28H45.732l-.807,29.278a9.475,9.475,0,0,0,2.75,6.9,10.117,10.117,0,0,0,14.622-.056A9.385,9.385,0,0,0,65.025,110.144Zm2.141-51.805A31.5,31.5,0,0,0,71.922,62.2c3.016,1.9,6.752,3.143,11.967-.995a29.967,29.967,0,0,1-10.256-7.094c-.251-.241-4.829-4.579-4.829-4.579l-4.928,5.688ZM60.576,52.1,65.5,46.411,54.149,35.665l-3.772,3.983-1.4,1.474ZM41.891,41.723a.177.177,0,0,0,.139.051.194.194,0,0,0,.144-.066l1.933-2.042.015-.018,3.068-3.24L55.4,27.735a.217.217,0,0,0-.009-.292l-4.749-4.507L37.125,37.213Z" transform="translate(-12.884 0)"/>
      </g>
    </g>
  </g>
</svg>
