<svg xmlns="http://www.w3.org/2000/svg" xmlns:xlink="http://www.w3.org/1999/xlink" width="159.052" height="159.049" viewBox="0 0 159.052 159.049">
  <defs>
    <linearGradient id="linear-gradient" x1="0.5" x2="0.5" y2="1" gradientUnits="objectBoundingBox">
      <stop offset="0" stop-color="#4366c9"/>
      <stop offset="0.125" stop-color="#7e3ec9"/>
      <stop offset="0.579" stop-color="#e8486b"/>
      <stop offset="1" stop-color="#ffb84f"/>
    </linearGradient>
  </defs>
  <g id="maze" transform="translate(0)">
    <path id="Path_452" data-name="Path 452" d="M162.874,152.219l-5.327-5.327c7.219-10.655,13.318-26.131,13.318-39.956A66.593,66.593,0,0,0,64.318,53.662l-7.991-7.991L43.008,58.99,51,66.981a66.592,66.592,0,0,0,93.229,93.23l5.327,5.327Zm0,0" transform="translate(-24.359 -27.025)" fill="url(#linear-gradient)"/>
    <path id="Path_453" data-name="Path 453" d="M376,3.007A2.219,2.219,0,0,1,376.189,2,2.665,2.665,0,0,1,378.667.344h13.319V5.671h-6.9l24.772,24.746L406.077,34.2,381.331,9.427v6.9H376Zm0,0" transform="translate(-376 -0.344)" fill="#d3e5ea"/>
    <path id="Path_454" data-name="Path 454" d="M.214,394a2.662,2.662,0,0,1,2.45-1.652H15.983v5.327h-6.9L28.529,417.09l-3.782,3.782L5.329,401.428v6.9H0V395.008A2.2,2.2,0,0,1,.214,394Zm0,0" transform="translate(130.524 -261.823)" fill="#d3e5ea"/>
    <g id="Group_343" data-name="Group 343" transform="translate(10.658 10.666)">
      <path id="Path_455" data-name="Path 455" d="M229.662,224.335a7.991,7.991,0,1,1-7.991-7.991A7.992,7.992,0,0,1,229.662,224.335Zm-10.655,0a2.664,2.664,0,1,0,2.664-2.664A2.664,2.664,0,0,0,219.007,224.335Zm0,0" transform="translate(-152.415 -155.09)"/>
      <path id="Path_456" data-name="Path 456" d="M144.165,101.622A63.929,63.929,0,0,0,82.9,37.693V48.348a53.274,53.274,0,0,1,50.61,53.274h-5.327A47.946,47.946,0,0,0,82.9,53.809V80.446a21.309,21.309,0,1,1-23.787,23.839H48.458a31.964,31.964,0,0,0,44.058,26.85l2.051,4.9a36.71,36.71,0,0,1-14.33,2.877,37.292,37.292,0,0,1-37.292-37.292,2.664,2.664,0,0,1,2.664-2.664h13.5A21.309,21.309,0,0,1,65.16,86.546l3.782,3.782a15.982,15.982,0,0,0,21.31,23.653,14.917,14.917,0,0,0,1.173-1.065A15.983,15.983,0,0,0,80.236,85.64a2.664,2.664,0,0,1-2.664-2.664V69.791a31.962,31.962,0,0,0-27.756,22l-5.061-1.652a37.471,37.471,0,0,1,7.351-12.892L44.49,69.657a47.557,47.557,0,0,0-9.75,16.835L29.68,84.788a53.274,53.274,0,0,1,47.893-36.44V37.693A63.131,63.131,0,0,0,41.88,50.4a2.667,2.667,0,0,1-2.8.241,2.372,2.372,0,0,1-.8-.64l-7.991-7.858,3.889-3.676,6.393,6.393a69.256,69.256,0,0,1,108.919,56.764c0,14.65-6.286,29.7-12.573,39.61l3.81,3.782-3.782,3.782-5.327-5.327a2.665,2.665,0,0,1-.32-3.383,74.3,74.3,0,0,0,12.866-38.464ZM48.272,65.9l7.565,7.565a36.966,36.966,0,0,1,21.736-9V53.675A47.947,47.947,0,0,0,48.272,65.9Zm0,0" transform="translate(-10.98 -32.377)"/>
      <path id="Path_457" data-name="Path 457" d="M93.4,100.813,87,94.421l3.756-3.756,7.991,7.991a2.664,2.664,0,0,1,.239,3.49,63.93,63.93,0,0,0,4.1,81.616l7.592-7.566A52.9,52.9,0,0,1,96.861,140.5h5.327A47.946,47.946,0,0,0,182.1,176.2l-9.323-9.323a2.664,2.664,0,0,1-.773-1.891,2.8,2.8,0,0,1,.773-1.891,31.966,31.966,0,0,0-10.309-52.1l2.051-4.9a36.759,36.759,0,0,1,12.04,7.991,37.293,37.293,0,0,1,1.812,50.8l7.458,7.592a47.736,47.736,0,0,0,11.188-21.842l5.327,1.119a53.275,53.275,0,0,1-87.9,28.235l-7.566,7.565a63.93,63.93,0,0,0,81.59,4.1,2.661,2.661,0,0,1,3.223,0,2.287,2.287,0,0,1,.372.346c.587.613,5.327,5.195,5.327,5.195l-3.729,3.782c-1.624-1.6-2.85-2.8-3.755-3.729A69.256,69.256,0,0,1,80.879,140.5,68.473,68.473,0,0,1,93.4,100.814Zm0,0" transform="translate(-80.878 -71.257)"/>
    </g>
  </g>
</svg>
