<svg xmlns="http://www.w3.org/2000/svg" xmlns:xlink="http://www.w3.org/1999/xlink" width="139.893" height="138.224" viewBox="0 0 139.893 138.224">
  <defs>
    <linearGradient id="linear-gradient" x1="0.5" x2="0.5" y2="1" gradientUnits="objectBoundingBox">
      <stop offset="0" stop-color="#4366c9"/>
      <stop offset="0.125" stop-color="#7e3ec9"/>
      <stop offset="0.579" stop-color="#e8486b"/>
      <stop offset="1" stop-color="#ffb84f"/>
    </linearGradient>
  </defs>
  <g id="paintball-gun" transform="translate(0 -0.109)">
    <path id="Path_458" data-name="Path 458" d="M131.279,53.254V44.232H113.236a9.022,9.022,0,0,1-9.021-9.021V19.423L117.747,10.4l6.766,6.766h33.83L170.967,34a4.546,4.546,0,0,1-1.845,6.9l-13.034,5.583v6.766Zm0,0" transform="translate(-74.835 -7.391)" fill="url(#linear-gradient)"/>
    <path id="Path_459" data-name="Path 459" d="M225.024,99.688V92.922l13.034-5.586a4.543,4.543,0,0,0,1.845-6.9l-4.026-5.369-14.615,6.395L216.826,83.4l-16.611,7.264v9.021Zm0,0" transform="translate(-143.771 -53.825)" fill="url(#linear-gradient)"/>
    <path id="Path_460" data-name="Path 460" d="M117.747,10.4l-13.532,9.021V30.7l20.3-13.532Zm0,0" transform="translate(-74.835 -7.391)" fill="url(#linear-gradient)"/>
    <path id="Path_461" data-name="Path 461" d="M57.673,205.467h-5.41a9.022,9.022,0,0,0-8.972,8.077L39.63,250.574l-2.255,13.532H8.055V250.574l6.239-32.819a21.141,21.141,0,0,0,.426-4.164,21.128,21.128,0,0,0-3-10.9l-3.089-5.163a4.514,4.514,0,0,1-.641-2.331L8.037,182.9a4.514,4.514,0,0,1,4.513-4.5H57.673Zm0,0" transform="translate(-5.74 -128.029)" fill="#d3e5ea"/>
    <path id="Path_462" data-name="Path 462" d="M12.556,178.4a4.51,4.51,0,0,0-4.511,4.5L8,195.192a4.411,4.411,0,0,0,.181,1.253H55.423V178.4Zm0,0" transform="translate(-5.745 -128.029)" fill="#d3e5ea"/>
    <path id="Path_463" data-name="Path 463" d="M176.215,162.4h33.83a2.256,2.256,0,0,1,2.255,2.255v22.554a2.255,2.255,0,0,1-2.255,2.255h-33.83Zm0,0" transform="translate(-126.537 -116.539)" fill="#d3e5ea"/>
    <path id="Path_464" data-name="Path 464" d="M176.215,162.4h11.277v27.064H176.215Zm0,0" transform="translate(-126.537 -116.539)" fill="url(#linear-gradient)"/>
    <path id="Path_465" data-name="Path 465" d="M58.258,155.423,51.492,146.4H40.215v9.021Zm0,0" transform="translate(-28.878 -105.05)" fill="url(#linear-gradient)"/>
    <path id="Path_466" data-name="Path 466" d="M304.215,194.4h33.83v9.021h-33.83Zm0,0" transform="translate(-218.451 -139.518)" fill="#d3e5ea"/>
    <path id="Path_467" data-name="Path 467" d="M440,196.445H426.47a2.256,2.256,0,0,1-2.255-2.255V180.657a2.257,2.257,0,0,1,2.255-2.255H440a2.256,2.256,0,0,1,2.255,2.255V194.19A2.255,2.255,0,0,1,440,196.445Zm0,0" transform="translate(-304.621 -128.029)" fill="url(#linear-gradient)"/>
    <path id="Path_468" data-name="Path 468" d="M262.981,285.466H258.47a2.256,2.256,0,0,1-2.255-2.255V258.4h9.021v24.809A2.255,2.255,0,0,1,262.981,285.466Zm0,0" transform="translate(-183.983 -185.475)" fill="url(#linear-gradient)"/>
    <g id="Group_344" data-name="Group 344" transform="translate(2.316 54.884)">
      <path id="Path_469" data-name="Path 469" d="M304.215,194.4h4.511v9.021h-4.511Zm0,0" transform="translate(-220.767 -194.402)" fill="#656d78"/>
      <path id="Path_470" data-name="Path 470" d="M408.215,194.4h4.511v9.021h-4.511Zm0,0" transform="translate(-295.447 -194.402)" fill="#656d78"/>
      <path id="Path_471" data-name="Path 471" d="M9.073,418.4l-.858,4.511H39.79l.447-4.511Zm0,0" transform="translate(-8.215 -355.252)" fill="#656d78"/>
    </g>
    <path id="Path_472" data-name="Path 472" d="M200.215,146.4h24.809v4.511H200.215Zm0,0" transform="translate(-143.771 -105.05)" fill="#fff" opacity="0.5"/>
    <path id="Path_473" data-name="Path 473" d="M8.215,434.4v13.532h33.83a4.51,4.51,0,0,0,4.511-4.511v-4.511a4.51,4.51,0,0,0-4.511-4.511Zm0,0" transform="translate(-5.899 -311.857)" fill="#d3e5ea"/>
    <path id="Path_475" data-name="Path 475" d="M160.215,178.4h4.511v18.043h-4.511Zm0,0" transform="translate(-115.048 -128.029)" fill="#656d78"/>
    <path id="Path_476" data-name="Path 476" d="M56.215,202.4h4.511v4.511H56.215Zm0,0" transform="translate(-40.367 -145.263)"/>
    <path id="Path_477" data-name="Path 477" d="M88.215,202.4h4.511v4.511H88.215Zm0,0" transform="translate(-63.346 -145.263)"/>
    <path id="Path_478" data-name="Path 478" d="M120.215,202.4h4.511v4.511h-4.511Zm0,0" transform="translate(-86.324 -145.263)"/>
    <path id="Path_479" data-name="Path 479" d="M135.382,48.118H121.85a4.516,4.516,0,0,0-4.511,4.511H88.019V48.118a4.516,4.516,0,0,0-4.511-4.511V40.583l11.668-5a6.8,6.8,0,0,0,2.76-10.33L84.636,7.521H50.612L43.2.109,27.124,10.826V27.82A11.289,11.289,0,0,0,38.4,39.1H54.189v4.511H47.423v4.511H30.507L23.741,39.1H9.082v9.021H6.811A6.78,6.78,0,0,0,.045,54.86L0,67.152a6.766,6.766,0,0,0,.96,3.5l3.088,5.163a18.874,18.874,0,0,1,2.677,9.743A18.979,18.979,0,0,1,6.339,89.3L.1,122.123.06,138.332H36.146a6.773,6.773,0,0,0,6.766-6.766H54.189a6.773,6.773,0,0,0,6.766-6.766V75.182h9.021V97.736a4.515,4.515,0,0,0,4.511,4.511H79a4.515,4.515,0,0,0,4.511-4.511V75.182a4.515,4.515,0,0,0,4.511-4.511V66.161h29.32a4.515,4.515,0,0,0,4.511,4.511h13.532a4.515,4.515,0,0,0,4.511-4.511V52.629a4.516,4.516,0,0,0-4.511-4.511ZM42.626,5.914,46.14,9.428,31.635,19.1V13.239ZM58.7,38.317l15.258-6.676-1.808-4.132L55.973,34.586H38.4a6.774,6.774,0,0,1-6.766-6.766v-3.3L50.362,12.032H82.381l6.212,8.283L76.585,25.567,78.393,29.7l12.98-5.678,2.955,3.939a2.314,2.314,0,0,1,.457,1.374,2.282,2.282,0,0,1-1.386,2.1L79,37.611v6H58.7Zm-45.107,5.29h7.894l3.383,4.511H13.592ZM6.811,52.629H47.423V66.161H4.515l.041-11.286a2.259,2.259,0,0,1,2.255-2.247Zm3.953,37.548a23.26,23.26,0,0,0,.471-4.609A23.375,23.375,0,0,0,7.921,73.5L6.229,70.672H47.423v4.511h-.9A11.257,11.257,0,0,0,35.307,85.292l-.115,1.167H20.358V90.97H34.746l-.671,6.766H20.358v4.511H33.632l-.67,6.766h-12.6v4.511H32.517l-.67,6.766H5.04ZM47.423,79.693V84.2a4.515,4.515,0,0,1-4.511,4.511H39.5l.293-2.963a6.751,6.751,0,0,1,6.728-6.058ZM38.4,131.567a2.257,2.257,0,0,1-2.255,2.255H4.571V124.8H36.146a2.258,2.258,0,0,1,2.255,2.255ZM56.444,124.8a2.257,2.257,0,0,1-2.255,2.255H42.912a6.762,6.762,0,0,0-6.534-6.743l2.677-27.087h3.857A9.03,9.03,0,0,0,51.933,84.2V75.183h4.511ZM74.487,84.2H79v4.511H74.487Zm0,13.532V93.226H79v4.511ZM79,79.693H74.487V75.183H79Zm4.511-9.021H60.955V61.65H56.444v9.021H51.933V48.118h4.511V57.14h4.511V48.118H83.508Zm4.511-9.021V57.14h29.32V61.65Zm33.83,4.511V52.629h13.532l0,13.532Zm0,0"/>
  </g>
</svg>
