<svg xmlns="http://www.w3.org/2000/svg" xmlns:xlink="http://www.w3.org/1999/xlink" width="141.334" height="141.337" viewBox="0 0 141.334 141.337">
  <defs>
    <linearGradient id="linear-gradient" x1="0.5" x2="0.5" y2="1" gradientUnits="objectBoundingBox">
      <stop offset="0" stop-color="#4366c9"/>
      <stop offset="0.125" stop-color="#7e3ec9"/>
      <stop offset="0.579" stop-color="#e8486b"/>
      <stop offset="1" stop-color="#ffb84f"/>
    </linearGradient>
  </defs>
  <g id="photography" transform="translate(-0.006)">
    <path id="Path_480" data-name="Path 480" d="M139.2,182.008H16.633a6.625,6.625,0,0,0-6.625,6.625v75.084a6.625,6.625,0,0,0,6.625,6.625H139.2a6.625,6.625,0,0,0,6.625-6.625V188.633A6.625,6.625,0,0,0,139.2,182.008Z" transform="translate(-7.241 -131.765)" fill="#d3e5ea"/>
    <g id="Group_345" data-name="Group 345" transform="translate(13.234 25.675)">
      <rect id="Rectangle_66" data-name="Rectangle 66" width="15.458" height="8.833" transform="translate(0 15.734)" fill="url(#linear-gradient)"/>
      <path id="Path_481" data-name="Path 481" d="M206.958,117.3,199.505,93.01H153.958L146.505,117.3Z" transform="translate(-119.292 -93.01)" fill="url(#linear-gradient)"/>
      <circle id="Ellipse_62" data-name="Ellipse 62" cx="35.5" cy="35.5" r="35.5" transform="translate(21.773 33.325)" fill="url(#linear-gradient)"/>
    </g>
    <g id="Group_346" data-name="Group 346" transform="translate(13.258 59.076)">
      <circle id="Ellipse_63" data-name="Ellipse 63" cx="4.5" cy="4.5" r="4.5" transform="translate(-0.253 -0.076)" fill="#fff"/>
      <circle id="Ellipse_64" data-name="Ellipse 64" cx="21.945" cy="21.945" r="21.945" transform="translate(35.471 13.388)" fill="#fff"/>
    </g>
    <path id="Path_482" data-name="Path 482" d="M45.185,204.007a7.177,7.177,0,1,0,7.177,7.177A7.185,7.185,0,0,0,45.185,204.007Zm0,8.833a1.656,1.656,0,1,1,1.656-1.656A1.658,1.658,0,0,1,45.185,212.84Z" transform="translate(-27.512 -147.691)"/>
    <path id="Path_483" data-name="Path 483" d="M131.955,107.578h-28.93L96.086,84.961a2.761,2.761,0,0,0-2.639-1.951H47.9a2.761,2.761,0,0,0-2.639,1.951l-6.939,22.617H31.452v-6.073a2.761,2.761,0,0,0-2.76-2.76H13.233a2.761,2.761,0,0,0-2.76,2.76v6.073H9.391a9.4,9.4,0,0,0-9.385,9.385v75.084a9.4,9.4,0,0,0,9.385,9.385H131.954a9.4,9.4,0,0,0,9.385-9.385V116.963A9.4,9.4,0,0,0,131.955,107.578ZM49.94,88.531H91.406l5.844,19.047H44.1ZM15.994,104.265h9.937v3.313H15.994Zm119.825,87.782a3.869,3.869,0,0,1-3.865,3.865h-1.725v-19.3a2.76,2.76,0,1,0-5.521,0v19.3H9.392a3.869,3.869,0,0,1-3.865-3.865V116.963A3.869,3.869,0,0,1,9.392,113.1H131.955a3.869,3.869,0,0,1,3.865,3.865v75.084Z" transform="translate(0 -60.095)"/>
    <path id="Path_484" data-name="Path 484" d="M123.526,334.222v-.2a2.761,2.761,0,0,0-2.75-2.771h-.011a2.76,2.76,0,0,0-2.76,2.75v.218a2.76,2.76,0,1,0,5.521,0Z" transform="translate(-85.425 -239.812)"/>
    <path id="Path_485" data-name="Path 485" d="M160.977,204.007a38.107,38.107,0,0,0-35.741,24.886,2.761,2.761,0,1,0,5.179,1.914,32.573,32.573,0,1,1-.3,21.753,2.76,2.76,0,0,0-5.229,1.772,38.1,38.1,0,1,0,36.087-50.325Z" transform="translate(-90.303 -147.691)"/>
    <path id="Path_486" data-name="Path 486" d="M191.21,301.918A24.706,24.706,0,1,0,166.5,277.212,24.734,24.734,0,0,0,191.21,301.918Zm0-43.891a19.185,19.185,0,1,1-19.185,19.185A19.207,19.207,0,0,1,191.21,258.027Z" transform="translate(-120.536 -182.802)"/>
    <path id="Path_487" data-name="Path 487" d="M213.858,312.255a2.761,2.761,0,0,0,2.76-2.76,6.883,6.883,0,0,1,6.875-6.875,2.76,2.76,0,1,0,0-5.521,12.41,12.41,0,0,0-12.4,12.4A2.761,2.761,0,0,0,213.858,312.255Z" transform="translate(-152.82 -215.085)"/>
    <path id="Path_488" data-name="Path 488" d="M407.873,222.768a2.761,2.761,0,0,0-2.76-2.76H390.759a2.76,2.76,0,1,0,0,5.521h14.354A2.761,2.761,0,0,0,407.873,222.768Z" transform="translate(-280.887 -159.274)"/>
    <path id="Path_489" data-name="Path 489" d="M248.763,14.228a2.761,2.761,0,0,0,2.76-2.76V2.76a2.76,2.76,0,1,0-5.521,0v8.707A2.761,2.761,0,0,0,248.763,14.228Z" transform="translate(-178.089)"/>
    <path id="Path_490" data-name="Path 490" d="M294.233,43.36a2.752,2.752,0,0,0,1.952-.809l4.26-4.26a2.761,2.761,0,0,0-3.9-3.9l-4.26,4.26a2.761,2.761,0,0,0,1.952,4.713Z" transform="translate(-211.007 -24.31)"/>
    <path id="Path_491" data-name="Path 491" d="M190.168,42.552a2.761,2.761,0,0,0,3.9-3.9l-4.259-4.259a2.761,2.761,0,1,0-3.9,3.9Z" transform="translate(-133.999 -24.31)"/>
    <path id="Path_492" data-name="Path 492" d="M234.43,127.009H216.763a2.76,2.76,0,0,0,0,5.521H234.43a2.76,2.76,0,1,0,0-5.521Z" transform="translate(-154.923 -91.948)"/>
    <path id="Path_493" data-name="Path 493" d="M454.508,377.083a2.762,2.762,0,1,0,1.951.809A2.78,2.78,0,0,0,454.508,377.083Z" transform="translate(-327.038 -272.99)"/>
  </g>
</svg>
