<svg xmlns="http://www.w3.org/2000/svg" xmlns:xlink="http://www.w3.org/1999/xlink" width="141.573" height="161.151" viewBox="0 0 141.573 161.151">
  <defs>
    <linearGradient id="linear-gradient" x1="0.5" x2="0.5" y2="1" gradientUnits="objectBoundingBox">
      <stop offset="0" stop-color="#4366c9"/>
      <stop offset="0.125" stop-color="#7e3ec9"/>
      <stop offset="0.579" stop-color="#e8486b"/>
      <stop offset="1" stop-color="#ffb84f"/>
    </linearGradient>
    <linearGradient id="linear-gradient-3" x1="-0.261" y1="-0.242" x2="1.188" y2="1.583" xlink:href="#linear-gradient"/>
  </defs>
  <g id="food-tray" transform="translate(-31.101)">
    <g id="Group_349" data-name="Group 349" transform="translate(33.601 2.518)">
      <path id="Path_500" data-name="Path 500" d="M98.157,429.364l-21.9-21.9a2.45,2.45,0,0,1,0-3.465l7.154-7.154a2.45,2.45,0,0,1,3.465,0l21.9,21.9a2.45,2.45,0,0,1,0,3.465l-7.154,7.154a2.45,2.45,0,0,1-3.465,0Z" transform="translate(-64.054 -273.967)" fill="#eef3fb"/>
      <path id="Path_501" data-name="Path 501" d="M150.017,459.985,139.4,470.6l2.516,2.516a2.45,2.45,0,0,0,3.465,0l7.154-7.154a2.45,2.45,0,0,0,0-3.465Z" transform="translate(-107.811 -317.723)" fill="#e2ecf9"/>
      <path id="Path_502" data-name="Path 502" d="M215.78,272.5c7.624,3.36,25.026-15.317,25.026-15.317l8.083-12.762c.152-.24.313-.472.479-.7l.8-1.171a2.5,2.5,0,0,0-2.061-3.91A15.449,15.449,0,0,0,234.65,246.5l-5.421,9.619-14.938,15.522a8.443,8.443,0,0,0,1.489.854Z" transform="translate(-159.132 -166.044)" fill="#d3e5ea"/>
      <path id="Path_503" data-name="Path 503" d="M248.109,238.638a15.44,15.44,0,0,0-3.265.354,2.52,2.52,0,0,1-.34.723l-.8,1.171c-.167.227-.327.46-.479.7l-8.083,12.762s-9.943,10.669-18.09,14.428l-2.76,2.868a8.441,8.441,0,0,0,1.489.854c7.624,3.36,25.026-15.317,25.026-15.317l8.083-12.762c.152-.24.313-.472.479-.7l.8-1.171A2.5,2.5,0,0,0,248.109,238.638Z" transform="translate(-159.132 -166.045)" fill="#f0f6f8"/>
      <path id="Path_504" data-name="Path 504" d="M127.028,254.381l1.044-12.959a3.028,3.028,0,0,1,3.018-2.785,9.321,9.321,0,0,1,9.293,8.528c.831,9.83,1.265,22.132,8.523,25.331,7.624,3.36,25.026-15.317,25.026-15.317l8.083-12.762a12.432,12.432,0,0,1,10.5-5.78,4,4,0,0,1,3.543,5.864l-4.946,9.413a75.611,75.611,0,0,1-7.928,12.11l-11.263,14.057a83.53,83.53,0,0,1-18.438,16.993L135.4,309.242l-18.7-18.713s-.238-10.219,4.73-18.721A41.128,41.128,0,0,0,127.028,254.381Z" transform="translate(-92.258 -166.044)" fill="#d3e5ea"/>
      <g id="Group_347" data-name="Group 347" transform="translate(39.173 72.593)">
        <path id="Path_505" data-name="Path 505" d="M168.424,244.477c.831,9.83,1.265,22.133,8.523,25.331a5.307,5.307,0,0,0,2.462.391c-4.214-4.97-4.633-14.77-5.319-22.889a9.318,9.318,0,0,0-8.2-8.462,9.271,9.271,0,0,1,2.535,5.63Z" transform="translate(-165.137 -238.781)" fill="#f0f6f8"/>
        <path id="Path_506" data-name="Path 506" d="M224.587,238.638a12.4,12.4,0,0,0-1.8.136,3.949,3.949,0,0,1-.324,2.9l-4.946,9.413a75.607,75.607,0,0,1-7.928,12.11L198.329,277.25a83.529,83.529,0,0,1-18.438,16.993L163.5,305.271l3.97,3.973,18.086-12.168a83.53,83.53,0,0,0,18.438-16.993l11.263-14.057a75.606,75.606,0,0,0,7.928-12.11l4.946-9.413A4,4,0,0,0,224.587,238.638Z" transform="translate(-163.5 -238.638)" fill="#f0f6f8"/>
      </g>
      <path id="Path_507" data-name="Path 507" d="M242.588,20.085a61.191,61.191,0,0,1,6.16.313V14.16a6.16,6.16,0,0,0-12.321,0V20.4a61.194,61.194,0,0,1,6.16-.314Z" transform="translate(-174.301 -8)" fill="url(#linear-gradient)"/>
      <g id="Group_348" data-name="Group 348" transform="translate(8.773 12.085)">
        <path id="Path_509" data-name="Path 509" d="M185.944,95.941a60.517,60.517,0,0,0-119.029,0Z" transform="translate(-66.915 -46.396)" fill="url(#linear-gradient)"/>
      </g>
      <path id="Path_510" data-name="Path 510" d="M68.241,185.808q-.793,2.781-1.326,5.665H185.944q-.528-2.883-1.326-5.665Z" transform="translate(-58.142 -129.843)" fill="#fff" opacity="0.45"/>
      <path id="Path_511" data-name="Path 511" d="M170.135,214.771H44.524a5.481,5.481,0,1,1,0-10.963H170.135a5.481,5.481,0,0,1,0,10.963Z" transform="translate(-39.043 -142.178)" fill="url(#linear-gradient-3)"/>
    </g>
    <g id="Group_350" data-name="Group 350" transform="translate(31.101 0)">
      <path id="Path_513" data-name="Path 513" d="M100.962,418.841a2.365,2.365,0,0,0-3.345,3.345l2.28,2.28a2.365,2.365,0,0,0,3.345-3.345Z" transform="translate(-76.207 -286.537)"/>
      <path id="Path_514" data-name="Path 514" d="M164.817,61.752h-1.361a62.93,62.93,0,0,0-53.03-49.066V8.538a8.538,8.538,0,0,0-17.075,0V12.68A62.355,62.355,0,0,0,64.307,24.544a2.365,2.365,0,0,0,2.825,3.794,58.275,58.275,0,0,1,91.478,33.413h-25.2a2.365,2.365,0,1,0,0,4.731h31.4a3.127,3.127,0,0,1,0,6.254H38.958a3.127,3.127,0,0,1,0-6.254h84.994a2.365,2.365,0,1,0,0-4.731H45.166A57.955,57.955,0,0,1,60.281,34.32,2.365,2.365,0,1,0,56.9,31.008,62.659,62.659,0,0,0,40.318,61.752h-1.36a7.857,7.857,0,0,0,0,15.715H67.024c-.01.079-.024.156-.031.235L65.947,90.687a38.6,38.6,0,0,1-5.291,16.459,39.921,39.921,0,0,0-4.8,15.43,4.82,4.82,0,0,0-4.66,1.241l-7.168,7.168a4.826,4.826,0,0,0,0,6.817l21.94,21.941h0a4.826,4.826,0,0,0,6.817,0l7.168-7.168a4.811,4.811,0,0,0,.41-6.343l15.776-10.614a2.365,2.365,0,1,0-2.641-3.925L76.989,142.8,60.337,126.144c.083-2.571.654-10.2,4.4-16.613a43.3,43.3,0,0,0,5.922-18.465l1.046-12.985a.673.673,0,0,1,.667-.615,7.016,7.016,0,0,1,6.954,6.379c.06.715.119,1.443.178,2.18.812,10.137,1.732,21.626,9.765,25.166,4.1,1.8,9.931-.4,17.836-6.73a104.252,104.252,0,0,0,9.925-9.17,2.343,2.343,0,0,0,.268-.347l8.1-12.787a10.042,10.042,0,0,1,8.525-4.692,1.645,1.645,0,0,1,1.457,2.411l-4.956,9.432a73.543,73.543,0,0,1-7.7,11.755l-11.285,14.084a81.521,81.521,0,0,1-10.64,10.981,2.365,2.365,0,0,0,3.073,3.6,86.287,86.287,0,0,0,11.259-11.619l11.285-14.084a78.309,78.309,0,0,0,8.192-12.513l4.956-9.432a6.324,6.324,0,0,0,.517-4.611h24.731a7.857,7.857,0,1,0,0-15.714ZM98.08,12.221V8.538a3.807,3.807,0,0,1,7.614,0v3.688c-1.261-.076-2.53-.117-3.807-.117s-2.545.038-3.807.112ZM76.6,149.228,69.436,156.4a.09.09,0,0,1-.127,0l-21.94-21.94a.09.09,0,0,1,0-.127l7.168-7.168a.089.089,0,0,1,.127,0L76.6,149.1a.082.082,0,0,1,.026.063.083.083,0,0,1-.026.063Zm7.618-63.58c-.059-.744-.118-1.479-.179-2.2a11.579,11.579,0,0,0-2.289-5.981h28.77a17.8,17.8,0,0,0-3.451,4.353L101.789,91.2l-13.13,13.643C85.435,100.766,84.772,92.52,84.222,85.648Zm29.2,6.574a101.614,101.614,0,0,1-9.313,8.578c-5.639,4.512-9.028,5.875-10.949,6.18l12.242-12.721a2.368,2.368,0,0,0,.356-.479l5.432-9.639a13.132,13.132,0,0,1,11.425-6.675.138.138,0,0,1,.114.216l-.766,1.119c-.2.268-.385.543-.564.826Z" transform="translate(-31.101 0)"/>
    </g>
  </g>
</svg>
