<svg xmlns="http://www.w3.org/2000/svg" xmlns:xlink="http://www.w3.org/1999/xlink" width="147.001" height="147" viewBox="0 0 147.001 147">
  <defs>
    <linearGradient id="linear-gradient" x1="0.5" x2="0.5" y2="1" gradientUnits="objectBoundingBox">
      <stop offset="0" stop-color="#4366c9"/>
      <stop offset="0.125" stop-color="#7e3ec9"/>
      <stop offset="0.579" stop-color="#e8486b"/>
      <stop offset="1" stop-color="#ffb84f"/>
    </linearGradient>
  </defs>
  <g id="_x30_8_Basketball" transform="translate(0 -0.001)">
    <g id="Group_172" data-name="Group 172" transform="translate(0 0.001)">
      <path id="Path_312" data-name="Path 312" d="M149.271,120.635v15.88a6.1,6.1,0,0,1-3.455,5.519q-69.475,32.988-137.089.017a6.1,6.1,0,0,1-3.394-5.489V120.635a6.127,6.127,0,0,1,1.731-4.278q70.238-71.861,140.475,0a6.127,6.127,0,0,1,1.731,4.278Z" transform="translate(-3.803 -57.336)" fill="#d3e5ea"/>
      <path id="Path_313" data-name="Path 313" d="M181.688,281.748a5.109,5.109,0,0,1-5.109,5.109h-90a5.109,5.109,0,1,1,0-10.218h90A5.109,5.109,0,0,1,181.688,281.748Z" transform="translate(-58.078 -197.213)" fill="#d3e5ea"/>
      <circle id="Ellipse_59" data-name="Ellipse 59" cx="34.245" cy="34.245" r="34.245" transform="translate(39.255 1.531)" fill="url(#linear-gradient)"/>
      <path id="Path_314" data-name="Path 314" d="M144.833,57.944c-11.927-12.2-24.031-21.422-35.99-27.463a35.731,35.731,0,0,0-70.686,0C26.2,36.523,14.094,45.746,2.164,57.948A7.632,7.632,0,0,0,0,63.3V79.228a7.632,7.632,0,0,0,4.26,6.858A168.365,168.365,0,0,0,36.067,97.909a85.219,85.219,0,0,1,9.532,22.4,120.739,120.739,0,0,1,3.767,25.242,1.531,1.531,0,1,0,3.058-.158q-.093-1.78-.221-3.51l3.072-4.012c3.139,3.208,8.072,8.279,8.522,8.706a1.511,1.511,0,0,0,2.152-.064c.326-.342,5.558-6.361,7.55-8.641,8.427,9.657,7.436,8.543,7.59,8.695a1.533,1.533,0,0,0,2.077.06c.156-.134,4.552-4.651,8.569-8.758l3.069,4.007c-.085,1.157-.166,2.321-.227,3.517a1.531,1.531,0,1,0,3.058.157,120.4,120.4,0,0,1,3.767-25.257,84.476,84.476,0,0,1,9.658-22.6,178.13,178.13,0,0,0,31.6-11.606,7.622,7.622,0,0,0,4.343-6.9V63.3a7.638,7.638,0,0,0-2.167-5.358ZM99.372,116.28l-3.038-4.6,9.338-10.712a86.722,86.722,0,0,0-6.3,15.317ZM41.284,100.918l9.382,10.769-3.051,4.626A88.4,88.4,0,0,0,41.284,100.918Zm14.692-9.747,4.417,5.767L59.1,98.893a145.451,145.451,0,0,1-17.177-2.738l2.589-4.679c.059-.107.1-.2.161-.305ZM107.5,94.209l-1.681-3.038h4.329Zm-5.182-3.038,2.669,4.823a149.709,149.709,0,0,1-17.147,2.8L86.61,96.938l4.415-5.766Zm.472,8.44-8.2,9.411-4.837-7.331q6.515-.749,13.041-2.08Zm-17.963-5.38-2.019-3.06h4.362Zm-5.689-3.06,3.718,5.635L80.9,99.359a142.351,142.351,0,0,1-14.759.047l-1.991-2.6,3.716-5.635H79.136Zm-.679,11.378L73.5,109.021l-4.92-6.425c3.7.112,6.519.079,9.875-.047Zm-16.28-8.317-2.344-3.061H64.2Zm-9.761,14.8L44.38,99.81q6.4,1.274,12.815,1.977ZM39.5,94.211l-2.649-3.04h4.33L39.5,94.211Zm9.226,25.978,4.027-6.106,8.985,10.3L54.994,133.2l-4.409-4.513c-.517-2.926-1.139-5.747-1.857-8.5ZM54.5,111.43l6.134-9.3c1.316.113,2.632.211,3.949.288l6.987,9.123L63.64,121.9Zm19,2.629,7.8,10.192-7.81,8.958-7.8-8.949Zm1.929-2.519,7.039-9.195c1.281-.083,2.561-.178,3.843-.3l6.181,9.369-9.133,10.476Zm18.813,2.531,4.025,6.1c-.711,2.708-1.324,5.513-1.863,8.536l-4.39,4.49-6.755-8.821ZM28.5,88.109a3.576,3.576,0,0,1,0-7.151H118.5a3.576,3.576,0,0,1,0,7.151ZM118.5,77.9H28.5a6.584,6.584,0,0,0-5.007,2.338C19.771,78.833,16,77.251,12.25,75.5V64.348a132.53,132.53,0,0,1,26.3-20.936,35.766,35.766,0,0,0,69.892-.014,133.092,133.092,0,0,1,26.3,20.95V75.429c-3.715,1.7-7.527,3.251-11.351,4.668a6.583,6.583,0,0,0-4.894-2.2Zm-45-9.4a32.312,32.312,0,0,1-13.845-3.061c2.51-3.088,4.388-7.005,6.355-11.124,3.757-7.873,7.647-15.986,16.357-17.974A99.664,99.664,0,0,1,84.545,66.52,32.334,32.334,0,0,1,73.5,68.493ZM85.367,35.879C94.5,35.1,99.3,40.013,103.754,48.172A32.89,32.89,0,0,1,87.724,65.2,103.291,103.291,0,0,0,85.367,35.879Zm20.577-4.207v0s0,0,0,.006a32.681,32.681,0,0,1-.872,12.643c-4.713-7.77-10.4-12.491-20.437-11.442-.5-1.95-1.065-3.879-1.688-5.771a104.751,104.751,0,0,1,21.278-2.475A32.394,32.394,0,0,1,105.944,31.672ZM81.639,33.359c-10.11,2.313-14.5,11.481-18.393,19.63-1.988,4.167-3.883,8.112-6.355,10.971A32.949,32.949,0,0,1,42.377,45.812C50.048,38.87,63.94,31.765,80,27.8,80.6,29.62,81.148,31.477,81.639,33.359Zm21.32-11.738a110.07,110.07,0,0,0-21.033,2.574q-.972-2.626-2.106-5.124c7.919-2.692,9.547-6.181,11.047-10.988A32.768,32.768,0,0,1,102.959,21.62ZM88.156,6.546c-1.156,3.23-1.209,6.976-9.666,9.736a50.894,50.894,0,0,0-9.12-12.925A31.817,31.817,0,0,1,88.156,6.546ZM65.644,4.052A45.365,45.365,0,0,1,75.5,17.1c-5.134,1.1-10.289.322-15.291-.453a51.818,51.818,0,0,0-12.55-.9,32.789,32.789,0,0,1,17.988-11.7ZM45.333,19.2c4.659-1.018,9.4-.3,14.4.471,6,.929,11.291,1.7,17.157.245.744,1.607,1.429,3.27,2.067,4.969C63.3,28.763,49.744,35.539,41.5,42.529A32.6,32.6,0,0,1,45.333,19.2ZM5.6,83.33a4.556,4.556,0,0,1-2.532-4.1V63.3a4.647,4.647,0,0,1,1.293-3.216c11.1-11.354,22.329-20.08,33.413-25.974a34.224,34.224,0,0,0,.257,6.062C28.7,45.488,19.153,53.027,9.632,62.639a1.528,1.528,0,0,0-.443,1.077V76.472a1.532,1.532,0,0,0,.876,1.384c4,1.9,8.032,3.606,12.01,5.115a6.61,6.61,0,0,0,6.423,8.2h3c.717.955,1.421,1.915,2.092,2.89A166.6,166.6,0,0,1,5.6,83.33Zm46.2,54.049q-.187-1.776-.417-3.5l1.736,1.778Zm12.985,5.833-7.621-7.8,6.637-8.67,7.673,8.8Zm17.446,0-6.693-7.675,7.678-8.807,6.646,8.678ZM93.9,135.654l1.719-1.758c-.15,1.14-.292,2.29-.415,3.461Zm50.04-56.472a4.552,4.552,0,0,1-2.586,4.13,176.685,176.685,0,0,1-27.756,10.5q.923-1.331,1.906-2.644h3a6.6,6.6,0,0,0,6.372-8.365c4.065-1.518,8.115-3.182,12.05-5.008a1.532,1.532,0,0,0,.887-1.389V63.716a1.528,1.528,0,0,0-.443-1.077c-9.511-9.6-19.058-17.145-28.395-22.478a34.063,34.063,0,0,0,.257-6.048c11.084,5.894,22.312,14.62,33.41,25.971a4.648,4.648,0,0,1,1.3,3.22Z" transform="translate(0 -0.001)"/>
    </g>
  </g>
</svg>
