<svg xmlns="http://www.w3.org/2000/svg" xmlns:xlink="http://www.w3.org/1999/xlink" width="142.286" height="131.003" viewBox="0 0 142.286 131.003">
  <defs>
    <linearGradient id="linear-gradient" x1="0.5" x2="0.5" y2="1" gradientUnits="objectBoundingBox">
      <stop offset="0" stop-color="#4366c9"/>
      <stop offset="0.125" stop-color="#7e3ec9"/>
      <stop offset="0.579" stop-color="#e8486b"/>
      <stop offset="1" stop-color="#ffb84f"/>
    </linearGradient>
  </defs>
  <g id="swimming" transform="translate(-4.17 -4.997)">
    <path id="Path_315" data-name="Path 315" d="M138.467,45.472v34.6H5v-34.6l1.458-1.458a5.015,5.015,0,0,0,6.97,0L14.466,43h15.67l1.038,1.013a5.015,5.015,0,0,0,6.97,0L39.182,43h15.67l1.038,1.013a5.015,5.015,0,0,0,6.97,0L63.9,43h15.67l1.038,1.013a5.015,5.015,0,0,0,6.97,0L88.615,43h15.67l1.038,1.013a5.015,5.015,0,0,0,6.97,0L113.331,43H129l1.038,1.013a5.015,5.015,0,0,0,6.97,0Z" transform="translate(1.221 55.926)" fill="#d3e5ea"/>
    <path id="Union_9" data-name="Union 9" d="M-19447.977-1270.328a3.491,3.491,0,0,1-.471-.416l-1.881-1.881a5.039,5.039,0,0,0-6.971,0l-1.877,1.881a3.746,3.746,0,0,1-.471.416h-13.051a3.834,3.834,0,0,1-.465-.416l-1.881-1.881a5.034,5.034,0,0,0-6.967,0l-1.881,1.881a3.889,3.889,0,0,1-.471.416h-13.051a4.209,4.209,0,0,1-.471-.416l-1.875-1.881a5.041,5.041,0,0,0-6.973,0l-1.875,1.881a4.39,4.39,0,0,1-.471.416h-11.469v-9.886l39.545-24.715,21.035-31.535a12.393,12.393,0,0,1,10.357-5.536,12.619,12.619,0,0,1,6.031,1.553l41.67,23.162,18.41,9.191a2.479,2.479,0,0,1,1.363,2.224v6.824a2.472,2.472,0,0,1-1.172,2.116,2.466,2.466,0,0,1-2.414.108l-6.3-3.165-1.881,5.663a2.507,2.507,0,0,1-2.42,1.7l-.3-.024a2.474,2.474,0,0,1-2.4-2.5l.146-8.059-45.9-19.821a4.955,4.955,0,0,0-6.227,2.2l-12.7,23.31v14.829l9.977-3.992a9.865,9.865,0,0,1,5.01-7.448l17.283-9.612a9.883,9.883,0,0,1,13.443,3.836l2.406,4.321a9.883,9.883,0,0,1-3.836,13.443l-19.445,10.812a7.389,7.389,0,0,1-2.66.876l.068.118Z" transform="translate(19526.766 1374.196)" fill="url(#linear-gradient)"/>
    <path id="Path_318" data-name="Path 318" d="M0,0H2.472a9.886,9.886,0,0,1,9.886,9.886V14.83a9.886,9.886,0,0,1-9.886,9.886H0Z" transform="translate(93.218 71.664) rotate(-29.077)"/>
    <path id="Path_319" data-name="Path 319" d="M53.887,48.221l-1.2-2.16A4.916,4.916,0,0,0,48.43,43.54L47.814,42.3a4.923,4.923,0,0,0,.072-4.891l-1.2-2.16a4.947,4.947,0,1,0-8.651,4.8l1.2,2.16a4.919,4.919,0,0,0,4.256,2.521l.615,1.236a4.926,4.926,0,0,0-.072,4.889l1.2,2.163a4.947,4.947,0,1,0,8.651-4.8Z" transform="translate(48.922 40.776)" fill="#fff"/>
    <g id="Group_173" data-name="Group 173" transform="translate(13.636 4.997)">
      <path id="Path_320" data-name="Path 320" d="M12.943,29.886c2.731,0,14.83-4.943,14.83-4.943S15.674,20,12.943,20a4.943,4.943,0,0,0,0,9.886Z" transform="translate(-8 17.082)" fill="#d3e5ea"/>
      <path id="Path_321" data-name="Path 321" d="M13.205,21.2c1.93,1.93,13.982,6.99,13.982,6.99S22.128,16.136,20.2,14.205A4.944,4.944,0,0,0,13.205,21.2Z" transform="translate(-2.471 6.423)" fill="#d3e5ea"/>
      <path id="Path_322" data-name="Path 322" d="M112.217,54.773a51.929,51.929,0,0,0-84.92-32.6l-3.186-3.779a56.869,56.869,0,0,1,93,35.707Z" transform="translate(15.709 -4.997)" fill="#d3e5ea"/>
      <path id="Path_323" data-name="Path 323" d="M23.99,21.442l-3.927-3,1.5-1.965c.581-.756,1.181-1.5,1.8-2.224l1.6-1.886,3.769,3.2-1.6,1.886q-.848.989-1.641,2.039Z" transform="translate(9.752 5.848)" fill="#d3e5ea"/>
    </g>
    <path id="Path_324" data-name="Path 324" d="M134.742,58.154a9.859,9.859,0,0,1-6.99-2.892l-1.871-1.871a5.062,5.062,0,0,0-6.992,0l-1.871,1.871a9.886,9.886,0,0,1-13.982,0l-1.871-1.871a4.943,4.943,0,0,0-6.992,0L92.3,55.262a9.886,9.886,0,0,1-13.982,0l-1.871-1.871a4.943,4.943,0,0,0-6.992,0l-1.871,1.871a9.886,9.886,0,0,1-13.982,0l-1.871-1.871a4.943,4.943,0,0,0-6.992,0L42.87,55.262a9.886,9.886,0,0,1-13.982,0l-1.871-1.871a4.943,4.943,0,0,0-6.992,0l-1.871,1.871a9.886,9.886,0,0,1-13.982,0l3.495-3.495a4.956,4.956,0,0,0,6.992,0L16.53,49.9a10.134,10.134,0,0,1,13.982,0l1.871,1.871a4.956,4.956,0,0,0,6.992,0L41.246,49.9a9.886,9.886,0,0,1,13.982,0L57.1,51.767a4.956,4.956,0,0,0,6.992,0L65.962,49.9a9.886,9.886,0,0,1,13.982,0l1.871,1.871a4.956,4.956,0,0,0,6.992,0L90.678,49.9a9.886,9.886,0,0,1,13.982,0l1.871,1.871a4.956,4.956,0,0,0,6.992,0l1.871-1.871a9.886,9.886,0,0,1,13.982,0l1.871,1.871a4.956,4.956,0,0,0,6.992,0l3.495,3.495a9.859,9.859,0,0,1-6.992,2.892Z" transform="translate(0.003 61.813)"/>
    <path id="Path_325" data-name="Path 325" d="M141.74,49.745a9.565,9.565,0,0,1-2.051,1.557,9.748,9.748,0,0,1-4.943,1.335,9.886,9.886,0,0,1-6.995-2.892l-1.878-1.878a5.04,5.04,0,0,0-6.97,0l-1.878,1.878a9.906,9.906,0,0,1-13.989,0l-1.878-1.878a5.04,5.04,0,0,0-6.97,0l-1.878,1.878a10.134,10.134,0,0,1-13.989,0L76.44,47.867a5.04,5.04,0,0,0-6.97,0l-1.878,1.878a10.134,10.134,0,0,1-13.989,0l-1.878-1.878a5.04,5.04,0,0,0-6.97,0l-1.878,1.878a9.906,9.906,0,0,1-13.989,0l-1.878-1.878a5.04,5.04,0,0,0-6.97,0l-1.878,1.878A10.176,10.176,0,0,1,6.221,51.277,8.712,8.712,0,0,1,4.17,49.745l2.051-2.051L7.68,46.235a5.015,5.015,0,0,0,6.97,0l1.038-1.013.84-.84a10.134,10.134,0,0,1,13.989,0l.84.84L32.4,46.235a5.015,5.015,0,0,0,6.97,0L40.4,45.222l.84-.84a10.134,10.134,0,0,1,13.989,0l.84.84,1.038,1.013a5.015,5.015,0,0,0,6.97,0l1.038-1.013.84-.84a9.906,9.906,0,0,1,13.989,0l.84.84,1.038,1.013a5.015,5.015,0,0,0,6.97,0l1.038-1.013.84-.84a10.134,10.134,0,0,1,13.989,0l.84.84,1.038,1.013a5.015,5.015,0,0,0,6.97,0l1.038-1.013.84-.84a10.134,10.134,0,0,1,13.989,0l.84.84,1.038,1.013a5.015,5.015,0,0,0,6.97,0l1.458,1.458Z" transform="translate(0 53.704)"/>
    <path id="Path_326" data-name="Path 326" d="M134.742,63.116a9.815,9.815,0,0,1-6.99-2.9l-1.873-1.869a5.059,5.059,0,0,0-6.99,0l-1.873,1.873a10.134,10.134,0,0,1-13.979,0l-1.873-1.869a5.059,5.059,0,0,0-6.99,0L92.3,60.229a10.134,10.134,0,0,1-13.979,0l-1.873-1.869a5.059,5.059,0,0,0-6.99,0l-1.873,1.873a10.134,10.134,0,0,1-13.979,0l-1.873-1.869a5.059,5.059,0,0,0-6.99,0l-1.873,1.873a10.134,10.134,0,0,1-13.979,0l-1.873-1.869a5.059,5.059,0,0,0-6.99,0l-1.873,1.873a10.134,10.134,0,0,1-13.979,0l3.495-3.495a5.059,5.059,0,0,0,6.99,0l1.873-1.873a10.134,10.134,0,0,1,13.979,0l1.873,1.869a5.054,5.054,0,0,0,6.99,0l1.873-1.873a10.134,10.134,0,0,1,13.979,0L57.1,56.739a5.054,5.054,0,0,0,6.99,0l1.873-1.873a10.134,10.134,0,0,1,13.979,0l1.873,1.869a5.054,5.054,0,0,0,6.99,0l1.873-1.873a10.134,10.134,0,0,1,13.979,0l1.873,1.869a5.054,5.054,0,0,0,6.99,0l1.873-1.873a10.134,10.134,0,0,1,13.979,0l1.873,1.869a5.054,5.054,0,0,0,6.99,0l3.495,3.495a9.815,9.815,0,0,1-6.99,2.9Z" transform="translate(0.003 69.258)"/>
  </g>
</svg>
