<svg xmlns="http://www.w3.org/2000/svg" xmlns:xlink="http://www.w3.org/1999/xlink" width="139.533" height="145.273" viewBox="0 0 139.533 145.273">
  <defs>
    <linearGradient id="linear-gradient" x1="-0.099" x2="1.328" y2="0.298" gradientUnits="objectBoundingBox">
      <stop offset="0" stop-color="#4366c9"/>
      <stop offset="0.125" stop-color="#7e3ec9"/>
      <stop offset="0.579" stop-color="#e8486b"/>
      <stop offset="1" stop-color="#ffb84f"/>
    </linearGradient>
    <linearGradient id="linear-gradient-2" x1="0.5" y1="0" x2="0.5" y2="1" xlink:href="#linear-gradient"/>
  </defs>
  <g id="beauty" transform="translate(-10.114)">
    <g id="Group_174" data-name="Group 174" transform="translate(12.242 2.128)">
      <rect id="Rectangle_63" data-name="Rectangle 63" width="11.01" height="19.996" transform="translate(69.406 9.832)" fill="#efedee"/>
      <path id="Path_327" data-name="Path 327" d="M245.8,79.912h-11.01a10.87,10.87,0,0,0-10.87,10.87v6.259h32.751V90.782A10.871,10.871,0,0,0,245.8,79.912Z" transform="translate(-165.382 -59.366)" fill="#efedee"/>
      <path id="Path_328" data-name="Path 328" d="M245.967,79.917c-.057,0-.113,0-.17,0h-11.01a10.87,10.87,0,0,0-10.87,10.87v6.259h11.349V90.783A10.868,10.868,0,0,1,245.967,79.917Z" transform="translate(-165.382 -59.367)" fill="#d4d2d3"/>
      <path id="Path_329" data-name="Path 329" d="M223.565,7.5h-3.533a2.5,2.5,0,0,0-2.413,1.892,2.459,2.459,0,0,1-.834,1.438c-2.675,2.191-11.061.506-17.184-.725a62.4,62.4,0,0,0-11.272-1.622c-8.742,0-13.081,5.249-14.817,9.709a2.808,2.808,0,0,0,2.3,3.8l2.927.35a2.823,2.823,0,0,0,2.883-1.608,7.5,7.5,0,0,1,.553-.977c1.284-1.912,3.3-2.841,6.158-2.841a58.046,58.046,0,0,1,9.612,1.456c8.635,1.736,18.421,3.7,24.184-1.017a11.1,11.1,0,0,0,3.893-6.959A2.482,2.482,0,0,0,223.565,7.5Z" transform="translate(-129.141 -7.5)" fill="url(#linear-gradient)"/>
      <path id="Path_330" data-name="Path 330" d="M203.77,112.626H163.729a18.753,18.753,0,0,0-18.753,18.753v73.683a18.753,18.753,0,0,0,18.753,18.753h40.042a18.753,18.753,0,0,0,18.753-18.753V131.379A18.753,18.753,0,0,0,203.77,112.626Z" transform="translate(-108.839 -82.798)" fill="url(#linear-gradient-2)"/>
      <path id="Path_331" data-name="Path 331" d="M156.325,205.062V131.379a18.753,18.753,0,0,1,18.753-18.753H163.729a18.753,18.753,0,0,0-18.753,18.753v73.683a18.753,18.753,0,0,0,18.753,18.753h11.349A18.753,18.753,0,0,1,156.325,205.062Z" transform="translate(-108.839 -82.798)" fill="#fff" opacity="0.2"/>
      <path id="Path_332" data-name="Path 332" d="M81.858,197.44l-32.122-7.772L17.614,197.44c0,48.368,14.5,60.471,14.523,60.492h0l17.6,6.23,17.6-6.23h0C67.362,257.909,81.858,245.8,81.858,197.44Z" transform="translate(-17.614 -137.98)" fill="#33363a"/>
      <path id="Path_333" data-name="Path 333" d="M43.488,257.933h0c-.025-.021-14.523-12.124-14.523-60.492l26.447-6.4-5.675-1.373-32.122,7.772c0,48.368,14.5,60.471,14.523,60.492h0l17.6,6.23,5.675-2.009Z" transform="translate(-17.614 -137.981)" fill="#404449"/>
      <path id="Path_334" data-name="Path 334" d="M72.658,162.276H26.814a9.2,9.2,0,0,0-9.2,9.2v6.344H81.858v-6.344A9.2,9.2,0,0,0,72.658,162.276Z" transform="translate(-17.614 -118.361)" fill="#efedee"/>
      <path id="Path_335" data-name="Path 335" d="M38.163,162.276H26.814a9.2,9.2,0,0,0-9.2,9.2v6.344H28.963v-6.344A9.2,9.2,0,0,1,38.163,162.276Z" transform="translate(-17.614 -118.361)" fill="#d4d2d3"/>
      <path id="Path_336" data-name="Path 336" d="M86.4,452.216l-17.6,6.231a8.607,8.607,0,0,0,8.607,8.6H95.391a8.607,8.607,0,0,0,8.607-8.6Z" transform="translate(-54.277 -326.034)" fill="#33363a"/>
      <path id="Path_337" data-name="Path 337" d="M80.149,458.447l11.924-4.221L86.4,452.216l-17.6,6.231a8.607,8.607,0,0,0,8.607,8.6H88.757A8.607,8.607,0,0,1,80.149,458.447Z" transform="translate(-54.277 -326.034)" fill="#404449"/>
      <rect id="Rectangle_64" data-name="Rectangle 64" width="35.198" height="12.461" transform="translate(14.523 119.951)" fill="#efedee"/>
      <rect id="Rectangle_65" data-name="Rectangle 65" width="11.349" height="12.461" transform="translate(14.523 119.951)" fill="#d4d2d3"/>
      <path id="Path_338" data-name="Path 338" d="M260.751,355.5l-38.625,8.849v20.877a12.55,12.55,0,0,0,12.551,12.551h52.148a12.55,12.55,0,0,0,12.551-12.551V364.348Z" transform="translate(-164.099 -256.759)" fill="#d3e5ea"/>
      <path id="Path_339" data-name="Path 339" d="M233.474,385.225V364.348l32.95-7.548-5.675-1.3-38.625,8.849v20.877a12.55,12.55,0,0,0,12.551,12.551h11.349A12.55,12.55,0,0,1,233.474,385.225Z" transform="translate(-164.098 -256.759)" fill="#e6f1f4"/>
      <path id="Path_340" data-name="Path 340" d="M299.375,336.864v5.146h-77.25v-5.146a12.55,12.55,0,0,1,12.551-12.551h52.148A12.55,12.55,0,0,1,299.375,336.864Z" transform="translate(-164.098 -234.422)" fill="#d3e5ea"/>
      <path id="Path_341" data-name="Path 341" d="M246.025,324.313H234.676a12.55,12.55,0,0,0-12.551,12.551v5.146h11.349v-5.146A12.55,12.55,0,0,1,246.025,324.313Z" transform="translate(-164.098 -234.422)" fill="#fff"/>
    </g>
    <g id="Group_175" data-name="Group 175" transform="translate(10.114)">
      <path id="Path_342" data-name="Path 342" d="M276.258,424.016a2.128,2.128,0,0,0,2.128-2.128v-3.935a2.128,2.128,0,0,0-4.256,0v3.935A2.128,2.128,0,0,0,276.258,424.016Z" transform="translate(-199.219 -297.841)"/>
      <path id="Path_343" data-name="Path 343" d="M429.509,424.016a2.128,2.128,0,0,0,2.128-2.128v-3.935a2.128,2.128,0,0,0-4.256,0v3.935A2.128,2.128,0,0,0,429.509,424.016Z" transform="translate(-308.987 -297.841)"/>
      <path id="Path_344" data-name="Path 344" d="M339.337,435.358a9.225,9.225,0,0,0,6.968-3.1,2.128,2.128,0,1,0-3.2-2.8,5.125,5.125,0,0,1-7.528,0,2.128,2.128,0,1,0-3.2,2.8A9.225,9.225,0,0,0,339.337,435.358Z" transform="translate(-240.557 -307.082)"/>
      <path id="Path_345" data-name="Path 345" d="M69.194,29.828H67.132A20.866,20.866,0,0,0,47.383,43.915H21.442A11.341,11.341,0,0,0,10.114,55.243v6.344c0,14.863,1.361,27.849,4.046,38.6a2.128,2.128,0,0,0,4.129-1.031c-2.472-9.9-3.786-21.814-3.909-35.439H74.347c0,.054,0,.108,0,.162a173.777,173.777,0,0,1-2.411,28.253c-.152.868-.608,3.12-.663,3.38a14.776,14.776,0,0,0-3.132,9.059v2.257A56.427,56.427,0,0,1,65.2,113.7a36.267,36.267,0,0,1-2.444,4.116c-.506.729-1.664,2.12-1.675,2.132H27.643c-1.139-1.243-4.049-4.915-6.833-12.5a2.128,2.128,0,0,0-4,1.466c3.083,8.4,6.352,12.508,7.823,14.06v11.565a10.746,10.746,0,0,0,10.735,10.732H53.356a10.669,10.669,0,0,0,5.681-1.632,20.643,20.643,0,0,0,8.095,1.632h67.836a14.7,14.7,0,0,0,14.679-14.679V104.57a14.7,14.7,0,0,0-14.679-14.679h-6.914v-23.7a2.128,2.128,0,1,0-4.256,0v23.7h-41a14.9,14.9,0,0,0-6.41,1.483c.01-.061.02-.124.03-.185a152.6,152.6,0,0,0,1.747-15.46c.453-6.824.449-13.651.449-20.486A11.341,11.341,0,0,0,67.286,43.915H51.951a16.617,16.617,0,0,1,15.181-9.831h40.042A16.644,16.644,0,0,1,123.8,50.709v6.968a2.128,2.128,0,1,0,4.256,0V50.709a20.9,20.9,0,0,0-20.881-20.881h-2.062a13.1,13.1,0,0,0-10.326-9.1V17.044c.107,0,.215,0,.323,0,4.9,0,8.653-1.12,11.465-3.424a13.192,13.192,0,0,0,4.642-8.245A4.611,4.611,0,0,0,106.665,0h-3.533a4.636,4.636,0,0,0-4.472,3.483,1.238,1.238,0,0,1-.123.329c-.166.136-.891.58-3.247.58-3.487,0-8.3-.967-12.17-1.745A63.713,63.713,0,0,0,71.43.984c-11.276,0-15.505,7.738-16.8,11.065a4.937,4.937,0,0,0,4.026,6.681s3.318.384,3.513.384a4.978,4.978,0,0,0,4.474-2.846,5.418,5.418,0,0,1,.4-.7c.594-.884,1.63-1.9,4.392-1.9a49.129,49.129,0,0,1,8.09,1.194v5.867A13.1,13.1,0,0,0,69.194,29.828ZM21.442,48.171H67.286a7.08,7.08,0,0,1,7.072,7.072v4.216H14.37V55.243A7.08,7.08,0,0,1,21.442,48.171Zm7.451,84.241v-8.205H59.835v8.205Zm6.479,8.6a6.491,6.491,0,0,1-6.12-4.348H59.476a6.588,6.588,0,0,1-6.12,4.348Zm37.121,0H67.132a16.522,16.522,0,0,1-4.736-.684c.042-.065.077-.133.118-.2a10.775,10.775,0,0,0,1.578-5.594V122.967a21.217,21.217,0,0,0,1.4-1.666c.966-1.266,2.638-4.049,2.653-4.076v13.368a15.56,15.56,0,0,0,.4,3.413,14.516,14.516,0,0,0,3.925,6.986Zm72.9-10.423a10.435,10.435,0,0,1-10.423,10.423H82.82A10.435,10.435,0,0,1,72.4,130.594V111.844h72.994Zm0-26.023v3.018H72.4a30.83,30.83,0,0,1,.269-5.36,10.525,10.525,0,0,1,6.086-7.252,10.363,10.363,0,0,1,4.032-.828h52.183A10.435,10.435,0,0,1,145.391,104.57ZM100.568,29.828H73.737a8.8,8.8,0,0,1,7.91-5.026h11.01A8.8,8.8,0,0,1,100.568,29.828ZM90.53,20.546H83.776V15.705c2.251.432,4.517.822,6.754,1.07v3.771ZM63.505,13.193a9.714,9.714,0,0,0-.71,1.254.7.7,0,0,1-.708.406L59.16,14.5a.684.684,0,0,1-.564-.911c1.214-3.119,4.5-8.353,12.834-8.353A61.162,61.162,0,0,1,82.284,6.82c4.053.815,9.1,1.828,13.006,1.828,2.732,0,4.676-.5,5.944-1.544a4.551,4.551,0,0,0,1.544-2.547.377.377,0,0,1,.354-.3h3.533a.358.358,0,0,1,.356.4,8.937,8.937,0,0,1-3.144,5.673c-2.022,1.656-4.89,2.461-8.77,2.461-4.6,0-9.16-.981-13.651-1.884A58.958,58.958,0,0,0,71.43,9.41C67.857,9.411,65.191,10.683,63.505,13.193Z" transform="translate(-10.114)"/>
    </g>
  </g>
</svg>
