<svg xmlns="http://www.w3.org/2000/svg" xmlns:xlink="http://www.w3.org/1999/xlink" width="138" height="148.126" viewBox="0 0 138 148.126">
  <defs>
    <linearGradient id="linear-gradient" x1="0.5" x2="0.5" y2="1" gradientUnits="objectBoundingBox">
      <stop offset="0" stop-color="#4366c9"/>
      <stop offset="0.125" stop-color="#7e3ec9"/>
      <stop offset="0.579" stop-color="#e8486b"/>
      <stop offset="1" stop-color="#ffb84f"/>
    </linearGradient>
  </defs>
  <g id="bowling" transform="translate(-17.5)">
    <g id="Group_176" data-name="Group 176" transform="translate(19.673 56.277)">
      <path id="Path_346" data-name="Path 346" d="M37.83,199.7c-13.618,19.66-15.07,38.712-10.443,59.192l10.443,3.929L48,258.889c6.317-18.429,13.881-35.94,7.818-59.192l-8.844-5.175Z" transform="translate(-25.011 -194.522)" fill="#d3e5ea" fill-rule="evenodd"/>
    </g>
    <path id="Union_10" data-name="Union 10" d="M-18798.838-1721.816c-1.887,0-2.963-1.576-3.732-4.243q-1.084-3.764-1.93-7.461h20.613q.841,3.554,1.883,7.164c-.7-2.412-1.322-4.795-1.883-7.169-.057-.269-.123-.538-.18-.812l18.75-7.664,16.838,7.664s5.975,1.232,7.117,3.285c1.25,2.246,0,9.231,0,9.231h-36.654c-1.988,0-3.137-1.628-3.949-4.4.813,2.774,1.961,4.407,3.949,4.407Zm-5.664-11.7v0a.005.005,0,0,1,0,0Z" transform="translate(18826.549 1854.166)" fill="url(#linear-gradient)"/>
    <g id="Group_178" data-name="Group 178" transform="translate(34.748 120.644)">
      <path id="Path_348" data-name="Path 348" d="M77.119,417.008q.837,3.555,1.879,7.168c.82,2.838,1.953,4.511,3.954,4.535H90.9c-2.018,0-3.166-1.681-3.987-4.535q-1.046-3.617-1.879-7.168Z" transform="translate(-77.119 -417.008)" fill="#e41e2b" fill-rule="evenodd"/>
    </g>
    <g id="Group_179" data-name="Group 179" transform="translate(72.906 10.568)">
      <path id="Path_349" data-name="Path 349" d="M215.178,75.3l9.992,4.216L237.058,75.3c.131-.845.131-1.854.271-2.78,1.3-8.374,5.587-16.2,3.4-24.31A15.843,15.843,0,0,0,218.8,37.99C213.652,48.095,201.765,63.309,215.178,75.3Z" transform="translate(-209.011 -36.53)" fill="#d3e5ea" fill-rule="evenodd"/>
    </g>
    <g id="Group_180" data-name="Group 180" transform="translate(66.927 43.482)">
      <path id="Path_350" data-name="Path 350" d="M188.35,156.03a11.694,11.694,0,0,0,2.043,7.349H202.4a11.648,11.648,0,0,1-2.051-7.349,42.384,42.384,0,0,1,.632-5.733h-12A42.342,42.342,0,0,0,188.35,156.03Z" transform="translate(-188.345 -150.297)" fill="#fb2a39" fill-rule="evenodd"/>
    </g>
    <g id="Group_181" data-name="Group 181" transform="translate(29.394 10.569)">
      <path id="Path_351" data-name="Path 351" d="M59.226,48.21c-2.19,8.112,2.1,15.936,3.4,24.31.139.927.287,1.813.418,2.657l10.821,6.939,11.05-6.939c8.622-13.894,5.521-30.625-3.757-37.187A15.843,15.843,0,0,0,59.226,48.21Z" transform="translate(-58.613 -36.531)" fill="#d3e5ea" fill-rule="evenodd"/>
    </g>
    <g id="Group_182" data-name="Group 182" transform="translate(42.413 10.569)" opacity="0.5">
      <path id="Path_352" data-name="Path 352" d="M104.267,38.589c-2.338,9.038,2.248,17.773,3.626,27.107.156,1.042.312,2.026.451,2.961a46.247,46.247,0,0,1,.632,5.987c.008.172.008.353.008.533h7.908a43.727,43.727,0,0,0-.632-5.733c-.139-.9-.3-1.845-.451-2.846-1.378-8.948-5.964-17.314-3.626-25.975a17.08,17.08,0,0,1,.952-2.633,15.821,15.821,0,0,0-6.653-1.46q-.8,0-1.575.074a16.529,16.529,0,0,0-.64,1.985Z" transform="translate(-103.614 -36.531)" fill="#fff" fill-rule="evenodd"/>
    </g>
    <g id="Group_183" data-name="Group 183" transform="translate(32.023 61.452)" opacity="0.5">
      <path id="Path_353" data-name="Path 353" d="M78.242,212.41c-11.6,19.3-12.568,38.187-8,58.38l.181.812h7.917c-.057-.271-.123-.541-.181-.812-4.569-20.193-3.6-39.081,8-58.38Z" transform="translate(-67.699 -212.41)" fill="#fff" fill-rule="evenodd"/>
    </g>
    <g id="Group_184" data-name="Group 184" transform="translate(85.135 10.568)">
      <path id="Path_354" data-name="Path 354" d="M262.341,48.209c2.19,8.112-2.1,15.936-3.4,24.31-.139.927-.287,1.813-.418,2.657h8.425c.131-.845.279-1.731.418-2.657,1.3-8.374,5.587-16.2,3.4-24.31A15.844,15.844,0,0,0,251.283,37.1a15.831,15.831,0,0,1,11.059,11.114Z" transform="translate(-251.283 -36.53)" fill="#e9f2f4" fill-rule="evenodd"/>
    </g>
    <path id="Union_12" data-name="Union 12" d="M-18796.967-1729.763c-8.189-4.427-9.332-6.759-5.211-12.238h21.871a38.182,38.182,0,0,0-.6,5.709,10.785,10.785,0,0,0,1.922,6.529l-11.346,1.888Z" transform="translate(18881.111 1791.215)" fill="url(#linear-gradient)"/>
    <g id="Group_188" data-name="Group 188" transform="translate(39.939 2.17)">
      <path id="Path_358" data-name="Path 358" d="M105.605,66.783c-11.6,19.3-12.568,38.187-8,58.38h35.588c13.712-1.863,13.1-37.118,13.1-43.231,0,0-1.8-9.547-7.031-15.149-1.293-1.385-2.026-3.256-3.158-4.888a11.648,11.648,0,0,1-2.051-7.349,42.379,42.379,0,0,1,.632-5.733c.139-.9.3-1.846.451-2.846,1.378-8.948,5.964-17.314,3.626-25.975a16.915,16.915,0,0,0-32.659,0c-2.338,8.661,2.248,17.027,3.626,25.975.156,1,.312,1.944.451,2.846a43.725,43.725,0,0,1,.632,5.733,11.652,11.652,0,0,1-2.051,7.349Q107.066,64.343,105.605,66.783Z" transform="translate(-95.062 -7.501)" fill="#d3e5ea" fill-rule="evenodd"/>
    </g>
    <g id="Group_189" data-name="Group 189" transform="translate(61.312 2.17)" opacity="0.5">
      <path id="Path_359" data-name="Path 359" d="M179.265,19.992c2.338,8.661-2.248,17.027-3.634,25.975-.148,1-.3,1.944-.443,2.846h12c.139-.9.3-1.846.451-2.846,1.378-8.948,5.964-17.314,3.626-25.975a16.945,16.945,0,0,0-22.33-11.4,16.913,16.913,0,0,1,10.328,11.4Z" transform="translate(-168.937 -7.501)" fill="#fff" fill-rule="evenodd"/>
    </g>
    <g id="Group_190" data-name="Group 190" transform="translate(83.796 61.452)">
      <path id="Path_360" data-name="Path 360" d="M247,212.41c-1.37,8.194,1.395,12.918,7.031,15.148,7.621.312,11.871-3.715,15.833-7.185a81.768,81.768,0,0,0-4.873-7.964Z" transform="translate(-246.655 -212.41)" fill="#d3e5ea" fill-rule="evenodd"/>
    </g>
    <g id="Group_191" data-name="Group 191" transform="translate(93.708 61.452)">
      <path id="Path_361" data-name="Path 361" d="M280.915,212.41c1.846,2.666,3.462,8.062,4.881,10.7a38.385,38.385,0,0,1,8.417-2.739,81.768,81.768,0,0,0-4.873-7.964Z" transform="translate(-280.915 -212.41)" fill="#e9f2f4" fill-rule="evenodd"/>
    </g>
    <g id="Group_192" data-name="Group 192" transform="translate(42.566 49.215)">
      <path id="Path_362" data-name="Path 362" d="M109.36,170.113a12.4,12.4,0,0,1-2.051,7.136q-1.7,2.559-3.166,5.1h7.917q1.464-2.436,3.158-4.888a11.649,11.649,0,0,0,2.051-7.349Z" transform="translate(-104.143 -170.113)" fill="#e41e2b" fill-rule="evenodd"/>
    </g>
    <g id="Group_194" data-name="Group 194" transform="translate(32.492 49.215)">
      <path id="Path_364" data-name="Path 364" d="M70.65,170.113c.787,5.02,1.173,8.636-1.329,12.237H90.208q1.464-2.436,3.158-4.888a11.7,11.7,0,0,0,2.051-7.349Z" transform="translate(-69.321 -170.113)" fill-rule="evenodd" fill="url(#linear-gradient)"/>
    </g>
    <path id="Union_11" data-name="Union 11" d="M-18789.168-1728.918h-15.334a11.636,11.636,0,0,0,2.055-7.348,43.483,43.483,0,0,0-.633-5.734h24.508a42.513,42.513,0,0,0-.633,5.734,11.7,11.7,0,0,0,1.9,7.129c.049.073.1.146.148.219Z" transform="translate(18858.141 1785.482)" fill="url(#linear-gradient)"/>
    <g id="Group_197" data-name="Group 197" transform="translate(63.985 56.564)" opacity="0.5">
      <path id="Path_367" data-name="Path 367" d="M186.333,200.4a75.608,75.608,0,0,1,7.031,15.149,38.677,38.677,0,0,0-13.1,43.231h12a38.676,38.676,0,0,1,13.1-43.231,75.625,75.625,0,0,0-7.031-15.149q-1.464-2.436-3.158-4.888h-12.01Q184.864,197.962,186.333,200.4Z" transform="translate(-178.178 -195.514)" fill="#fff" fill-rule="evenodd"/>
    </g>
    <g id="Group_198" data-name="Group 198" transform="translate(75.987 68.656)">
      <path id="Path_368" data-name="Path 368" d="M228.86,301a38.735,38.735,0,0,0,29.476,13.623h.057a38.656,38.656,0,1,0-36.646-26.139A39.12,39.12,0,0,0,228.86,301Z" transform="translate(-219.663 -237.309)" fill-rule="evenodd" fill="url(#linear-gradient)"/>
    </g>
    <g id="Group_199" data-name="Group 199" transform="translate(98.351 82.714)">
      <path id="Path_369" data-name="Path 369" d="M304.151,294.946a4.829,4.829,0,1,0-6.571-1.862A4.829,4.829,0,0,0,304.151,294.946Z" transform="translate(-296.964 -285.903)" fill="#33363a" fill-rule="evenodd"/>
    </g>
    <g id="Group_200" data-name="Group 200" transform="translate(90.971 101.911)">
      <path id="Path_370" data-name="Path 370" d="M272.067,359.441a4.829,4.829,0,1,0,1.862-6.57A4.833,4.833,0,0,0,272.067,359.441Z" transform="translate(-271.455 -352.256)" fill="#33363a" fill-rule="evenodd"/>
    </g>
    <g id="Group_201" data-name="Group 201" transform="translate(118.569 86.508)">
      <path id="Path_371" data-name="Path 371" d="M367.458,306.2a4.829,4.829,0,1,0,1.862-6.57A4.832,4.832,0,0,0,367.458,306.2Z" transform="translate(-366.846 -299.016)" fill="#33363a" fill-rule="evenodd"/>
    </g>
    <g id="Group_202" data-name="Group 202" transform="translate(103.561 68.678)" opacity="0.22">
      <path id="Path_372" data-name="Path 372" d="M327.293,237.386a38.652,38.652,0,0,1-11.026,75.677h-.057c-.41,0-.829-.008-1.239-.016a38.972,38.972,0,0,0,11.1,1.632h.057a38.656,38.656,0,0,0,1.165-77.293Z" transform="translate(-314.971 -237.386)" fill="#fff" fill-rule="evenodd"/>
    </g>
    <g id="Group_203" data-name="Group 203" transform="translate(17.5 0)">
      <path id="Path_373" data-name="Path 373" d="M150.3,87.419a2.17,2.17,0,1,0-3.788,2.116A36.488,36.488,0,0,1,82.788,125.09a36.906,36.906,0,0,1-2.635-5.867c-.014-.046-.03-.091-.046-.136A36.5,36.5,0,0,1,96.865,75.461,36.581,36.581,0,0,1,140.6,81.653a2.17,2.17,0,1,0,3.086-3.051,40.92,40.92,0,0,0-35.517-11.58c-1.271-2.273-2.689-4.546-4.234-6.779l-.006-.009-.013-.019c-2.174-3.131-1.658-6.36-.8-11.71q.125-.784.255-1.615a69.456,69.456,0,0,1,1.829-7.752c1.55-5.605,3.153-11.4,1.518-17.455A18.008,18.008,0,0,0,83.7,9.3a19.083,19.083,0,0,0-32.773,0A18.008,18.008,0,0,0,27.912,21.682c-1.635,6.055-.032,11.851,1.518,17.456a69.455,69.455,0,0,1,1.829,7.752q.129.831.255,1.615c.063.393.123.77.181,1.141,0,0,0,0,0,.007.733,4.675,1.027,7.662-.988,10.565l-.011.016-.007.01a77.8,77.8,0,0,0-8.959,16.918A2.17,2.17,0,1,0,25.8,78.681a72.827,72.827,0,0,1,7.843-15.058h13.1a72.143,72.143,0,0,0-8.627,27.822,88.008,88.008,0,0,0,1.845,27.03H23.8c-2.345-11.18-2.575-20.919-.758-30.126a2.17,2.17,0,1,0-4.257-.84c-2.023,10.246-1.675,21.039,1.122,33.487a2.175,2.175,0,0,0,.059.265q.824,3.628,1.923,7.451c.415,1.436,1.68,5.807,5.817,5.807H84.215a40.852,40.852,0,0,0,50.337,8.435A40.81,40.81,0,0,0,150.3,87.419Zm-46.58-19.43a40.575,40.575,0,0,0-8.973,3.682q-1.277.713-2.489,1.506a76.373,76.373,0,0,0-4.38-9.555h13.1C101.959,65.068,102.873,66.527,103.724,67.989ZM57.859,49.272c0-.019,0-.038,0-.057,0-.046,0-.091-.007-.136a33.3,33.3,0,0,0-.286-3.427H77.056a33.3,33.3,0,0,0-.286,3.43c0,.044-.007.088-.007.132,0,.019,0,.037,0,.055a15.188,15.188,0,0,0,.713,5.124H57.146a15.2,15.2,0,0,0,.713-5.122Zm40.8,10.01h-13.3q-1.218-1.962-2.574-3.926l-.008-.012-.012-.017a8.937,8.937,0,0,1-1.552-3.942H98.3a18.173,18.173,0,0,0,.36,7.9ZM89.344,12.739a13.662,13.662,0,0,1,13.181,10.075c1.326,4.909-.052,9.892-1.511,15.167a72.647,72.647,0,0,0-1.935,8.245q-.064.416-.128.819h-17.7c.145-1.31.376-2.752.636-4.376.088-.551.179-1.117.27-1.7a74.118,74.118,0,0,1,1.957-8.315c1.648-5.966,3.353-12.135,1.619-18.556q-.11-.407-.238-.805a13.63,13.63,0,0,1,3.845-.552ZM67.309,4.34A14.766,14.766,0,0,1,81.548,15.227C82.972,20.5,81.5,25.843,79.935,31.5A77.426,77.426,0,0,0,77.872,40.3c-.053.343-.106.678-.159,1.009h-20.8c-.053-.331-.106-.665-.159-1.007A77.419,77.419,0,0,0,54.69,31.5c-1.562-5.653-3.037-10.992-1.612-16.268A14.761,14.761,0,0,1,67.309,4.34ZM32.1,22.813A13.662,13.662,0,0,1,49.126,13.29q-.127.4-.238.806c-1.733,6.421-.029,12.59,1.619,18.556a74.086,74.086,0,0,1,1.957,8.318q.136.874.27,1.7c.26,1.623.491,3.066.636,4.376h-17.7q-.064-.4-.128-.819a72.643,72.643,0,0,0-1.935-8.245c-1.459-5.275-2.837-10.258-1.511-15.168Zm3.867,36.469a18.173,18.173,0,0,0,.361-7.9H53.41a8.941,8.941,0,0,1-1.552,3.943l-.012.018-.006.008q-1.356,1.958-2.575,3.928Zm16.28,3.429a2.179,2.179,0,0,0,.168-.277q1.124-1.853,2.37-3.7h25.05q1.314,1.948,2.483,3.892l0,.007a73.365,73.365,0,0,1,6.3,13.222,40.895,40.895,0,0,0-13.479,41.807H44.233C39.752,96.4,42.267,79.316,52.248,62.711Zm-26.186,64.8q-.688-2.391-1.261-4.693H40.96q.678,2.742,1.5,5.6a16.673,16.673,0,0,0,.6,1.766H27.709C27.129,130.178,26.574,129.279,26.062,127.508Zm22.468,2.67c-.26,0-1.05,0-1.9-2.967q-.763-2.647-1.4-5.209H76.553a41.423,41.423,0,0,0,2.446,5.2c.573,1.027,1.189,2.015,1.836,2.972H48.53Z" transform="translate(-17.5 0)"/>
      <path id="Path_374" data-name="Path 374" d="M299.868,291.523a7,7,0,0,0,2.7-9.526,7.018,7.018,0,0,0-9.519-2.7l0,0a7,7,0,1,0,6.823,12.221Zm-5.733-4.819a2.654,2.654,0,0,1,1.026-3.614,2.659,2.659,0,0,1,3.856,3.048,2.658,2.658,0,0,1-4.882.566Z" transform="translate(-210.776 -197.869)"/>
      <path id="Path_375" data-name="Path 375" d="M272.861,345.017a7,7,0,1,0,4.2,3.325A6.95,6.95,0,0,0,272.861,345.017Zm.65,7.457a2.66,2.66,0,1,1-3.861-3.042l0,0a2.642,2.642,0,0,1,1.293-.339,2.67,2.67,0,0,1,.729.1,2.665,2.665,0,0,1,1.834,3.282Z" transform="translate(-192.649 -245.01)"/>
      <path id="Path_376" data-name="Path 376" d="M368.251,291.776a7.005,7.005,0,1,0,4.2,3.326,6.951,6.951,0,0,0-4.2-3.326Zm.65,7.458a2.66,2.66,0,1,1-3.861-3.042l0,0a2.643,2.643,0,0,1,1.293-.339,2.67,2.67,0,0,1,.729.1,2.665,2.665,0,0,1,1.834,3.282Z" transform="translate(-260.442 -207.172)"/>
    </g>
  </g>
</svg>
