<svg xmlns="http://www.w3.org/2000/svg" xmlns:xlink="http://www.w3.org/1999/xlink" width="132.261" height="155.126" viewBox="0 0 132.261 155.126">
  <defs>
    <linearGradient id="linear-gradient" x1="0.5" x2="0.5" y2="1" gradientUnits="objectBoundingBox">
      <stop offset="0" stop-color="#4366c9"/>
      <stop offset="0.125" stop-color="#7e3ec9"/>
      <stop offset="0.579" stop-color="#e8486b"/>
      <stop offset="1" stop-color="#ffb84f"/>
    </linearGradient>
  </defs>
  <g id="Layer_15" transform="translate(-18.867)">
    <g id="Group_318" data-name="Group 318" transform="translate(18.867)">
      <g id="Group_205" data-name="Group 205" transform="translate(78.72 43.62)">
        <g id="Group_204" data-name="Group 204">
          <path id="Path_377" data-name="Path 377" d="M150.18,71.985a8.781,8.781,0,0,0-1.351.107V88.025c0,.474-.022.944-.053,1.411a8.783,8.783,0,1,0,1.4-17.452Z" transform="translate(-148.776 -71.985)" fill="#f9d0b4"/>
        </g>
      </g>
      <g id="Group_207" data-name="Group 207" transform="translate(36.682 36.263)">
        <g id="Group_206" data-name="Group 206">
          <path id="Path_378" data-name="Path 378" d="M120.2,64.635a17.434,17.434,0,0,1-7.679-4.42,1.4,1.4,0,0,0-2.005.113C107.309,64.069,95.943,75.42,79.4,70.708V83.241a21.046,21.046,0,0,0,42.093,0v-17a1.654,1.654,0,0,0-1.3-1.6Z" transform="translate(-79.402 -59.844)" fill="#f9d0b4"/>
        </g>
      </g>
      <g id="Group_209" data-name="Group 209" transform="translate(26.544 45.283)">
        <g id="Group_208" data-name="Group 208">
          <path id="Path_379" data-name="Path 379" d="M72.809,89.106V76.572a34.212,34.212,0,0,1-4.451-1.617,2.677,2.677,0,0,0-2.91.5,8.759,8.759,0,0,0,7.414,15.062c-.03-.467-.052-.936-.052-1.411Z" transform="translate(-62.671 -74.729)" fill="#f9d0b4"/>
        </g>
      </g>
      <g id="Group_211" data-name="Group 211" transform="translate(29.109 12.438)">
        <g id="Group_210" data-name="Group 210">
          <path id="Path_380" data-name="Path 380" d="M95.523,20.526A28.7,28.7,0,0,0,66.9,49.145v5.172c.072-.072.137-.149.211-.219a2.677,2.677,0,0,1,2.91-.5,34.27,34.27,0,0,0,4.451,1.617c16.542,4.712,27.908-6.639,31.113-10.38a1.4,1.4,0,0,1,2.005-.113,17.434,17.434,0,0,0,7.679,4.42,1.651,1.651,0,0,1,1.294,1.6v1.07a8.749,8.749,0,0,1,7.573,2.476V49.144A28.7,28.7,0,0,0,95.523,20.526Z" transform="translate(-66.904 -20.526)" fill="#d3e5ea"/>
        </g>
      </g>
      <g id="Group_213" data-name="Group 213" transform="translate(67.738 59.455)">
        <g id="Group_212" data-name="Group 212">
          <path id="Path_381" data-name="Path 381" d="M146.5,112.286c2.485-6.212,2.421-10.987,1.769-14.17a8.606,8.606,0,0,1-6.635,1.617,21.12,21.12,0,0,1-10.982,17.084V123.2a5.85,5.85,0,0,0,3.264,5.248l5.2,2.566a18.444,18.444,0,0,0,2.718,1.08,7.3,7.3,0,0,1,6.982-5.265h2.811c-2.645-5.4-7.07-9.692-5.129-14.543Z" transform="translate(-130.653 -98.116)" fill="#d3e5ea"/>
        </g>
      </g>
      <g id="Group_215" data-name="Group 215" transform="translate(24.939 59.455)">
        <g id="Group_214" data-name="Group 214">
          <path id="Path_382" data-name="Path 382" d="M71.819,99.734a8.608,8.608,0,0,1-6.635-1.617c-.651,3.183-.715,7.958,1.769,14.17,2.821,7.052-7.809,12.912-6.87,22.745l10.611-2.678a18.429,18.429,0,0,0,3.641-1.339l5.2-2.566A5.851,5.851,0,0,0,82.8,123.2v-6.383A21.123,21.123,0,0,1,71.819,99.734Z" transform="translate(-60.024 -98.117)" fill="#d3e5ea"/>
        </g>
      </g>
      <g id="Group_217" data-name="Group 217" transform="translate(78.633 88.167)">
        <g id="Group_216" data-name="Group 216">
          <path id="Path_383" data-name="Path 383" d="M193.474,145.5H182.588a2.647,2.647,0,0,1,.282,1.171v3.718a2.693,2.693,0,0,1-2.686,2.686h-10.99a2.693,2.693,0,0,1-2.686-2.686v-3.718a2.647,2.647,0,0,1,.282-1.171H155.9a7.293,7.293,0,0,0-7.272,7.272v50.9a7.293,7.293,0,0,0,7.272,7.272h37.57a7.293,7.293,0,0,0,7.272-7.272v-50.9A7.293,7.293,0,0,0,193.474,145.5Z" transform="translate(-148.633 -145.5)" fill="#d3e5ea"/>
        </g>
      </g>
      <g id="Group_219" data-name="Group 219" transform="translate(96.509 86.653)">
        <g id="Group_218" data-name="Group 218">
          <path id="Path_384" data-name="Path 384" d="M191.808,143h-10.99a2.693,2.693,0,0,0-2.686,2.686V149.4a2.693,2.693,0,0,0,2.686,2.686h10.99a2.693,2.693,0,0,0,2.686-2.686v-3.718A2.694,2.694,0,0,0,191.808,143Z" transform="translate(-178.133 -143)" fill="#d3e5ea"/>
        </g>
      </g>
      <g id="Group_221" data-name="Group 221" transform="translate(84.693 94.227)">
        <g id="Group_220" data-name="Group 220">
          <path id="Path_385" data-name="Path 385" d="M197.415,155.5H186.528a2.685,2.685,0,0,1-2.4,1.515h-10.99a2.685,2.685,0,0,1-2.4-1.515H159.845a1.228,1.228,0,0,0-1.212,1.212v50.9a1.228,1.228,0,0,0,1.212,1.212h37.57a1.228,1.228,0,0,0,1.212-1.212v-50.9A1.228,1.228,0,0,0,197.415,155.5Z" transform="translate(-158.633 -155.5)" fill="#dae6f1"/>
        </g>
      </g>
      <g id="Group_223" data-name="Group 223" transform="translate(12.385 120.599)">
        <g id="Group_222" data-name="Group 222">
          <path id="Path_386" data-name="Path 386" d="M40.417,199.02,39.309,229.5a2.4,2.4,0,0,0,2.4,2.532H55.029a1.622,1.622,0,0,0,1.622-1.622V206.47C50.516,205.307,44.5,201.833,40.417,199.02Z" transform="translate(-39.305 -199.02)" fill="#f9d0b4"/>
        </g>
      </g>
      <g id="Group_225" data-name="Group 225" transform="translate(36.124 78.156)">
        <g id="Group_224" data-name="Group 224">
          <path id="Path_387" data-name="Path 387" d="M118.562,143.175l-5.2-2.566a5.851,5.851,0,0,1-3.264-5.248v-6.383a20.925,20.925,0,0,1-20.021,0v6.383a5.85,5.85,0,0,1-3.264,5.248l-5.2,2.566a18.38,18.38,0,0,1-3.126,1.194,21.73,21.73,0,0,0,42.509,3.581v-1.689a7.2,7.2,0,0,1,.29-2.006,18.374,18.374,0,0,1-2.718-1.08Z" transform="translate(-78.481 -128.979)" fill="#f9d0b4"/>
        </g>
      </g>
      <g id="Group_227" data-name="Group 227" transform="translate(13.498 93.547)">
        <g id="Group_226" data-name="Group 226">
          <path id="Path_388" data-name="Path 388" d="M106.277,207.17V157.958a21.73,21.73,0,0,1-42.509-3.581c-.171.048-.342.1-.515.144l-15.048,3.8a8.63,8.63,0,0,0-6.51,7.889l-.554,15.22c4.082,2.813,10.1,6.287,16.233,7.45v-4.626l2.353,7.538a51.088,51.088,0,0,1,2.321,15.224v5.805a1.622,1.622,0,0,0,1.622,1.622h43.4a1.622,1.622,0,0,0,1.622-1.622v-.258a7.246,7.246,0,0,1-2.419-5.392Z" transform="translate(-41.142 -154.377)" fill="url(#linear-gradient)"/>
        </g>
      </g>
      <g id="Group_229" data-name="Group 229" transform="translate(53.962 131.116)">
        <g id="Group_228" data-name="Group 228">
          <path id="Path_389" data-name="Path 389" d="M114.263,216.376h-5.158a1.187,1.187,0,0,0-1.187,1.187v4.828h7.532v-4.828A1.187,1.187,0,0,0,114.263,216.376Z" transform="translate(-107.918 -216.376)" fill="#fc657e"/>
        </g>
      </g>
      <g id="Group_231" data-name="Group 231" transform="translate(53.962 137.132)">
        <g id="Group_230" data-name="Group 230">
          <path id="Path_390" data-name="Path 390" d="M107.918,226.3v6.574a1.565,1.565,0,0,0,1.565,1.565h4.4a1.565,1.565,0,0,0,1.565-1.565V226.3Z" transform="translate(-107.918 -226.304)" fill="#fc657e"/>
        </g>
      </g>
      <g id="Group_233" data-name="Group 233" transform="translate(77.751 42.105)">
        <g id="Group_232" data-name="Group 232">
          <path id="Path_391" data-name="Path 391" d="M149.55,69.485c-.305,0-.619.015-.931.044a1.515,1.515,0,1,0,.281,3.017c.215-.02.431-.031.651-.031a7.272,7.272,0,1,1,0,14.544,6.452,6.452,0,0,1-.7-.039,1.515,1.515,0,1,0-.325,3.012,9.381,9.381,0,0,0,1.022.058,10.3,10.3,0,1,0,0-20.6Z" transform="translate(-147.176 -69.485)"/>
        </g>
      </g>
      <g id="Group_235" data-name="Group 235" transform="translate(50.409 65.103)">
        <g id="Group_234" data-name="Group 234">
          <path id="Path_392" data-name="Path 392" d="M116.763,107.791a1.515,1.515,0,0,0-2.134.188,6.935,6.935,0,0,1-9.9,0,1.515,1.515,0,0,0-2.322,1.946,9.945,9.945,0,0,0,14.542,0,1.516,1.516,0,0,0-.188-2.134Z" transform="translate(-102.055 -107.437)"/>
        </g>
      </g>
      <g id="Group_239" data-name="Group 239" transform="translate(35.166 34.748)">
        <g id="Group_238" data-name="Group 238">
          <g id="Group_237" data-name="Group 237">
            <g id="Group_236" data-name="Group 236">
              <path id="Path_393" data-name="Path 393" d="M119.555,62.173a16.224,16.224,0,0,1-7-4.065,2.951,2.951,0,0,0-2.155-.759,2.873,2.873,0,0,0-2.02,1.007c-2.96,3.456-13.84,14.384-29.547,9.909A1.515,1.515,0,0,0,76.9,69.722V82.256a22.561,22.561,0,1,0,45.121,0v-17A3.156,3.156,0,0,0,119.555,62.173Zm-.562,20.082a19.531,19.531,0,1,1-39.062,0V71.666c16.251,3.564,27.42-7.485,30.665-11.242a19.08,19.08,0,0,0,8.275,4.7.142.142,0,0,1,.122.127Z" transform="translate(-76.901 -57.344)"/>
            </g>
          </g>
        </g>
      </g>
      <g id="Group_241" data-name="Group 241" transform="translate(25.029 43.767)">
        <g id="Group_240" data-name="Group 240">
          <path id="Path_394" data-name="Path 394" d="M66.761,75.356a35.977,35.977,0,0,0,4.559,1.662,1.515,1.515,0,1,0,.838-2.912,32.918,32.918,0,0,1-4.173-1.522,4.183,4.183,0,0,0-4.559.78,10.294,10.294,0,0,0,7.047,17.8,9.16,9.16,0,0,0,.925-.047,1.515,1.515,0,0,0-.3-3.015c-.206.021-.414.033-.625.033A7.28,7.28,0,0,1,63.2,80.867a7.187,7.187,0,0,1,2.3-5.292A1.161,1.161,0,0,1,66.761,75.356Z" transform="translate(-60.172 -72.227)"/>
        </g>
      </g>
      <g id="Group_243" data-name="Group 243" transform="translate(27.594 10.923)">
        <g id="Group_242" data-name="Group 242">
          <path id="Path_395" data-name="Path 395" d="M94.538,18.026A30.168,30.168,0,0,0,64.4,48.16v4.782a1.515,1.515,0,1,0,3.03,0V48.16a27.1,27.1,0,0,1,54.208,0v4.429a1.515,1.515,0,1,0,3.03,0V48.16A30.169,30.169,0,0,0,94.538,18.026Z" transform="translate(-64.404 -18.026)"/>
        </g>
      </g>
      <g id="Group_245" data-name="Group 245" transform="translate(81.595 58.866)">
        <g id="Group_244" data-name="Group 244">
          <path id="Path_396" data-name="Path 396" d="M161.716,125.212c-.672-1.3-1.419-2.521-2.14-3.7-2.354-3.846-3.741-6.34-2.658-9.046a26.92,26.92,0,0,0,2.025-14.031,1.515,1.515,0,1,0-3,.452,23.962,23.962,0,0,1-1.843,12.453c-1.7,4.254.63,8.067,2.886,11.753.694,1.134,1.411,2.306,2.033,3.51a1.515,1.515,0,0,0,2.692-1.391Z" transform="translate(-153.52 -97.145)"/>
        </g>
      </g>
      <g id="Group_247" data-name="Group 247" transform="translate(23.423 58.438)">
        <g id="Group_246" data-name="Group 246">
          <path id="Path_397" data-name="Path 397" d="M67.373,111.063a23.639,23.639,0,0,1-1.779-12.847,1.515,1.515,0,0,0-2.985-.523,26.594,26.594,0,0,0,1.95,14.5c1.082,2.706-.3,5.2-2.657,9.045-2.171,3.548-4.631,7.57-4.36,12.671a1.514,1.514,0,0,0,1.511,1.434l.082,0a1.514,1.514,0,0,0,1.432-1.593c-.221-4.161,1.884-7.6,3.919-10.929,2.255-3.687,4.588-7.5,2.886-11.752Z" transform="translate(-57.522 -96.439)"/>
        </g>
      </g>
      <g id="Group_249" data-name="Group 249" transform="translate(64.157 52.113)">
        <g id="Group_248" data-name="Group 248">
          <circle id="Ellipse_60" data-name="Ellipse 60" cx="2.727" cy="2.727" r="2.727"/>
        </g>
      </g>
      <g id="Group_251" data-name="Group 251" transform="translate(45.844 52.113)">
        <g id="Group_250" data-name="Group 250">
          <circle id="Ellipse_61" data-name="Ellipse 61" cx="2.727" cy="2.727" r="2.727"/>
        </g>
      </g>
      <g id="Group_253" data-name="Group 253" transform="translate(19.219 6.666)">
        <g id="Group_252" data-name="Group 252">
          <path id="Path_398" data-name="Path 398" d="M61.7,16.363a6.724,6.724,0,0,1-5.393-5.272c0-.121-.242-.121-.242,0a6.724,6.724,0,0,1-5.393,5.272c-.121,0-.121.182,0,.242a6.724,6.724,0,0,1,5.393,5.272c0,.121.242.121.242,0A6.724,6.724,0,0,1,61.7,16.605C61.824,16.545,61.824,16.363,61.7,16.363Z" transform="translate(-50.583 -11)" fill="#fc657e"/>
        </g>
      </g>
      <g id="Group_255" data-name="Group 255" transform="translate(0 113.315)">
        <g id="Group_254" data-name="Group 254">
          <path id="Path_399" data-name="Path 399" d="M26.669,190.763a4.718,4.718,0,0,1-3.784-3.7c0-.085-.17-.085-.17,0a4.717,4.717,0,0,1-3.784,3.7c-.085,0-.085.128,0,.17a4.718,4.718,0,0,1,3.784,3.7c0,.085.17.085.17,0a4.717,4.717,0,0,1,3.784-3.7C26.754,190.891,26.754,190.763,26.669,190.763Z" transform="translate(-18.867 -187.001)" fill="#f5c84c"/>
        </g>
      </g>
      <g id="Group_257" data-name="Group 257" transform="translate(95.6 56.354)">
        <g id="Group_256" data-name="Group 256">
          <path id="Path_400" data-name="Path 400" d="M185.238,96.333h-1.394V94.939A1.953,1.953,0,0,0,181.9,93a1.914,1.914,0,0,0-1.939,1.939v1.394h-1.394a1.953,1.953,0,0,0-1.939,1.939,1.914,1.914,0,0,0,1.939,1.939h1.394V101.6a1.953,1.953,0,0,0,1.939,1.939,1.914,1.914,0,0,0,1.939-1.939v-1.394h1.394a1.953,1.953,0,0,0,1.939-1.939A1.914,1.914,0,0,0,185.238,96.333Z" transform="translate(-176.633 -93)" fill="#70d6f9"/>
        </g>
      </g>
      <g id="Group_259" data-name="Group 259" transform="translate(39.185)">
        <g id="Group_258" data-name="Group 258">
          <path id="Path_401" data-name="Path 401" d="M85.593,0a2.06,2.06,0,1,0,2.06,2.06A2.06,2.06,0,0,0,85.593,0Z" transform="translate(-83.533)" fill="#f5c84c"/>
        </g>
      </g>
      <g id="Group_261" data-name="Group 261" transform="translate(110.689 71.503)">
        <g id="Group_260" data-name="Group 260">
          <path id="Path_402" data-name="Path 402" d="M203.593,118a2.06,2.06,0,1,0,2.06,2.06A2.06,2.06,0,0,0,203.593,118Z" transform="translate(-201.533 -118)" fill="#b2e26d"/>
        </g>
      </g>
      <g id="Group_263" data-name="Group 263" transform="translate(98.906 94.802)">
        <g id="Group_262" data-name="Group 262">
          <path id="Path_403" data-name="Path 403" d="M192.141,156.449a1.515,1.515,0,0,0-1.515,1.515,2.754,2.754,0,1,1-5.508,0,1.515,1.515,0,1,0-3.03,0,5.784,5.784,0,0,0,11.568,0A1.515,1.515,0,0,0,192.141,156.449Z" transform="translate(-182.088 -156.449)"/>
        </g>
      </g>
      <g id="Group_265" data-name="Group 265" transform="translate(97.024 107.255)">
        <g id="Group_264" data-name="Group 264">
          <path id="Path_404" data-name="Path 404" d="M193.239,177H180.5a1.515,1.515,0,0,0,0,3.03h12.742a1.515,1.515,0,0,0,0-3.03Z" transform="translate(-178.982 -177)"/>
        </g>
      </g>
      <g id="Group_270" data-name="Group 270" transform="translate(91.358 114.527)">
        <g id="Group_267" data-name="Group 267">
          <g id="Group_266" data-name="Group 266">
            <path id="Path_405" data-name="Path 405" d="M172.966,189h-1.818a1.515,1.515,0,1,0,0,3.03h1.818a1.515,1.515,0,1,0,0-3.03Z" transform="translate(-169.633 -189)"/>
          </g>
        </g>
        <g id="Group_269" data-name="Group 269" transform="translate(7.272)">
          <g id="Group_268" data-name="Group 268">
            <path id="Path_406" data-name="Path 406" d="M198.9,189H183.148a1.515,1.515,0,1,0,0,3.03H198.9a1.515,1.515,0,1,0,0-3.03Z" transform="translate(-181.633 -189)"/>
          </g>
        </g>
      </g>
      <g id="Group_275" data-name="Group 275" transform="translate(91.358 121.798)">
        <g id="Group_272" data-name="Group 272">
          <g id="Group_271" data-name="Group 271">
            <path id="Path_407" data-name="Path 407" d="M172.966,201h-1.818a1.515,1.515,0,0,0,0,3.03h1.818a1.515,1.515,0,0,0,0-3.03Z" transform="translate(-169.633 -201)"/>
          </g>
        </g>
        <g id="Group_274" data-name="Group 274" transform="translate(7.272)">
          <g id="Group_273" data-name="Group 273">
            <path id="Path_408" data-name="Path 408" d="M198.9,201H183.148a1.515,1.515,0,0,0,0,3.03H198.9a1.515,1.515,0,1,0,0-3.03Z" transform="translate(-181.633 -201)"/>
          </g>
        </g>
      </g>
      <g id="Group_280" data-name="Group 280" transform="translate(91.358 129.07)">
        <g id="Group_277" data-name="Group 277">
          <g id="Group_276" data-name="Group 276">
            <path id="Path_409" data-name="Path 409" d="M172.966,213h-1.818a1.515,1.515,0,1,0,0,3.03h1.818a1.515,1.515,0,1,0,0-3.03Z" transform="translate(-169.633 -213)"/>
          </g>
        </g>
        <g id="Group_279" data-name="Group 279" transform="translate(7.272)">
          <g id="Group_278" data-name="Group 278">
            <path id="Path_410" data-name="Path 410" d="M198.9,213H183.148a1.515,1.515,0,1,0,0,3.03H198.9a1.515,1.515,0,1,0,0-3.03Z" transform="translate(-181.633 -213)"/>
          </g>
        </g>
      </g>
      <g id="Group_285" data-name="Group 285" transform="translate(91.358 136.341)">
        <g id="Group_282" data-name="Group 282">
          <g id="Group_281" data-name="Group 281">
            <path id="Path_411" data-name="Path 411" d="M172.966,225h-1.818a1.515,1.515,0,1,0,0,3.03h1.818a1.515,1.515,0,1,0,0-3.03Z" transform="translate(-169.633 -225)"/>
          </g>
        </g>
        <g id="Group_284" data-name="Group 284" transform="translate(7.272)">
          <g id="Group_283" data-name="Group 283">
            <path id="Path_412" data-name="Path 412" d="M198.9,225H183.148a1.515,1.515,0,1,0,0,3.03H198.9a1.515,1.515,0,1,0,0-3.03Z" transform="translate(-181.633 -225)"/>
          </g>
        </g>
      </g>
      <g id="Group_287" data-name="Group 287" transform="translate(98.163 79.148)">
        <g id="Group_286" data-name="Group 286">
          <path id="Path_413" data-name="Path 413" d="M193.668,137.145l-2.657-4.468a4.181,4.181,0,0,0-3.622-2.061h0a4.18,4.18,0,0,0-3.623,2.06l-2.69,4.523a1.515,1.515,0,1,0,2.6,1.549l2.69-4.523a1.186,1.186,0,0,1,2.038,0l2.658,4.468a1.515,1.515,0,0,0,2.6-1.548Z" transform="translate(-180.862 -130.616)"/>
        </g>
      </g>
      <g id="Group_289" data-name="Group 289" transform="translate(56.213 124.828)">
        <g id="Group_288" data-name="Group 288">
          <path id="Path_414" data-name="Path 414" d="M113.148,206a1.515,1.515,0,0,0-1.515,1.515v4.309a1.515,1.515,0,0,0,3.03,0v-4.309A1.515,1.515,0,0,0,113.148,206Z" transform="translate(-111.633 -206)"/>
        </g>
      </g>
      <g id="Group_291" data-name="Group 291" transform="translate(41.366 87.864)">
        <g id="Group_290" data-name="Group 290">
          <path id="Path_415" data-name="Path 415" d="M104.9,182.914,90.053,145.95a1.515,1.515,0,0,0-2.812,1.129l14.846,36.964a1.515,1.515,0,0,0,2.812-1.129Z" transform="translate(-87.132 -144.999)"/>
        </g>
      </g>
      <g id="Group_293" data-name="Group 293" transform="translate(56.212 87.864)">
        <g id="Group_292" data-name="Group 292">
          <path id="Path_416" data-name="Path 416" d="M128.558,145.109a1.515,1.515,0,0,0-1.971.841l-14.846,36.964a1.515,1.515,0,0,0,2.812,1.129L129.4,147.079A1.515,1.515,0,0,0,128.558,145.109Z" transform="translate(-111.631 -144.999)"/>
        </g>
      </g>
      <g id="Group_295" data-name="Group 295" transform="translate(77.118 86.653)">
        <g id="Group_294" data-name="Group 294">
          <path id="Path_417" data-name="Path 417" d="M192.489,143h-10.6a1.515,1.515,0,1,0,0,3.03h10.6a5.763,5.763,0,0,1,5.757,5.757v50.9a5.763,5.763,0,0,1-5.757,5.757h-37.57a5.763,5.763,0,0,1-5.757-5.757v-50.9a5.763,5.763,0,0,1,5.757-5.757h10.5a1.515,1.515,0,0,0,0-3.03h-10.5a8.8,8.8,0,0,0-8.786,8.786v50.9a8.8,8.8,0,0,0,8.786,8.786h37.57a8.8,8.8,0,0,0,8.786-8.786v-50.9A8.8,8.8,0,0,0,192.489,143Z" transform="translate(-146.133 -143)"/>
        </g>
      </g>
      <g id="Group_299" data-name="Group 299" transform="translate(94.994 85.138)">
        <g id="Group_298" data-name="Group 298">
          <g id="Group_297" data-name="Group 297">
            <g id="Group_296" data-name="Group 296">
              <path id="Path_418" data-name="Path 418" d="M190.823,140.5h-10.99a4.206,4.206,0,0,0-4.2,4.2v3.718a4.205,4.205,0,0,0,4.2,4.2h10.99a4.206,4.206,0,0,0,4.2-4.2V144.7A4.206,4.206,0,0,0,190.823,140.5Zm1.171,7.919a1.172,1.172,0,0,1-1.171,1.171h-10.99a1.172,1.172,0,0,1-1.171-1.171V144.7a1.172,1.172,0,0,1,1.171-1.171h10.99a1.172,1.172,0,0,1,1.171,1.171Z" transform="translate(-175.632 -140.5)"/>
            </g>
          </g>
        </g>
      </g>
      <g id="Group_301" data-name="Group 301" transform="translate(83.178 92.712)">
        <g id="Group_300" data-name="Group 300">
          <path id="Path_419" data-name="Path 419" d="M196.429,153H186.048a1.515,1.515,0,1,0,0,3.03h10.079v50.295H159.163V156.03h10.069a1.515,1.515,0,1,0,0-3.03H158.86a2.73,2.73,0,0,0-2.727,2.727v50.9a2.73,2.73,0,0,0,2.727,2.727h37.57a2.73,2.73,0,0,0,2.727-2.727v-50.9A2.73,2.73,0,0,0,196.429,153Z" transform="translate(-156.133 -153)"/>
        </g>
      </g>
      <g id="Group_303" data-name="Group 303" transform="translate(10.869 119.424)">
        <g id="Group_302" data-name="Group 302">
          <path id="Path_420" data-name="Path 420" d="M55.665,204.607a1.515,1.515,0,0,0-1.515,1.515v23.525a.107.107,0,0,1-.107.107H40.719a.879.879,0,0,1-.643-.277.9.9,0,0,1-.239-.686l1.1-30.139a1.515,1.515,0,1,0-3.027-.11l-1.1,30.11a3.914,3.914,0,0,0,3.908,4.131H54.042a3.141,3.141,0,0,0,3.137-3.137V206.122A1.514,1.514,0,0,0,55.665,204.607Z" transform="translate(-36.804 -197.083)"/>
        </g>
      </g>
      <g id="Group_305" data-name="Group 305" transform="translate(66.223 77.336)">
        <g id="Group_304" data-name="Group 304">
          <path id="Path_421" data-name="Path 421" d="M140.933,142.157a16.915,16.915,0,0,1-2.129-.874l-5.2-2.566a4.309,4.309,0,0,1-2.418-3.889V129.14a1.515,1.515,0,1,0-3.03,0v5.688a7.32,7.32,0,0,0,4.108,6.606l5.2,2.566a19.918,19.918,0,0,0,2.512,1.031,1.515,1.515,0,0,0,.957-2.875Z" transform="translate(-128.152 -127.625)"/>
        </g>
      </g>
      <g id="Group_307" data-name="Group 307" transform="translate(34.609 77.26)">
        <g id="Group_306" data-name="Group 306">
          <path id="Path_422" data-name="Path 422" d="M89.089,127.5a1.515,1.515,0,0,0-1.515,1.515v5.764a4.309,4.309,0,0,1-2.418,3.889l-5.2,2.566a16.924,16.924,0,0,1-2.868,1.095,1.515,1.515,0,1,0,.825,2.915,20.028,20.028,0,0,0,3.383-1.293l5.2-2.566a7.318,7.318,0,0,0,4.108-6.606v-5.764A1.515,1.515,0,0,0,89.089,127.5Z" transform="translate(-75.981 -127.5)"/>
        </g>
      </g>
      <g id="Group_309" data-name="Group 309" transform="translate(11.982 92.03)">
        <g id="Group_308" data-name="Group 308">
          <path id="Path_423" data-name="Path 423" d="M107.709,210.318a1.515,1.515,0,0,0-1.515,1.515.107.107,0,0,1-.107.107h-43.4a.107.107,0,0,1-.107-.107v-5.805a52.568,52.568,0,0,0-2.389-15.676l-2.353-7.537a1.515,1.515,0,0,0-2.961.451v2.728A45.971,45.971,0,0,1,41.7,179.66l.522-14.354a7.084,7.084,0,0,1,5.368-6.5l13.937-3.518a23.248,23.248,0,0,0,45.163,2.307,1.515,1.515,0,0,0-2.908-.853,20.216,20.216,0,0,1-39.494-3.51,1.515,1.515,0,0,0-1.92-1.3l-.15.043c-.107.031-.213.062-.322.09l-15.047,3.8a10.109,10.109,0,0,0-7.654,9.3l-.554,15.221a1.514,1.514,0,0,0,.654,1.3c4.114,2.835,10.37,6.47,16.811,7.691a1.523,1.523,0,0,0,.6-.007l.587,1.882a49.5,49.5,0,0,1,2.252,14.773v5.805a3.141,3.141,0,0,0,3.137,3.137h43.4a3.141,3.141,0,0,0,3.137-3.137A1.514,1.514,0,0,0,107.709,210.318Z" transform="translate(-38.64 -151.874)"/>
        </g>
      </g>
      <g id="Group_313" data-name="Group 313" transform="translate(52.447 129.601)">
        <g id="Group_312" data-name="Group 312">
          <g id="Group_311" data-name="Group 311">
            <g id="Group_310" data-name="Group 310">
              <path id="Path_424" data-name="Path 424" d="M113.278,213.876H108.12a2.7,2.7,0,0,0-2.7,2.7v4.828a1.515,1.515,0,0,0,1.515,1.515h7.532a1.515,1.515,0,0,0,1.515-1.515v-4.828A2.705,2.705,0,0,0,113.278,213.876Zm-.328,6.016h-4.5v-2.986h4.5Z" transform="translate(-105.418 -213.876)"/>
            </g>
          </g>
        </g>
      </g>
      <g id="Group_317" data-name="Group 317" transform="translate(52.447 135.617)">
        <g id="Group_316" data-name="Group 316">
          <g id="Group_315" data-name="Group 315">
            <g id="Group_314" data-name="Group 314">
              <path id="Path_425" data-name="Path 425" d="M114.465,223.8h-7.532a1.515,1.515,0,0,0-1.515,1.515v6.574a3.083,3.083,0,0,0,3.08,3.08h4.4a3.083,3.083,0,0,0,3.08-3.08v-6.573a1.515,1.515,0,0,0-1.515-1.515Zm-1.515,8.088a.05.05,0,0,1-.05.05h-4.4a.051.051,0,0,1-.05-.05v-5.059h4.5Z" transform="translate(-105.418 -223.804)"/>
            </g>
          </g>
        </g>
      </g>
    </g>
  </g>
</svg>
