<svg id="XMLID_1718_" xmlns="http://www.w3.org/2000/svg" xmlns:xlink="http://www.w3.org/1999/xlink" width="144.5" height="144.5" viewBox="0 0 144.5 144.5">
  <defs>
    <linearGradient id="linear-gradient" x1="0.5" x2="0.5" y2="1" gradientUnits="objectBoundingBox">
      <stop offset="0" stop-color="#4366c9"/>
      <stop offset="0.125" stop-color="#7e3ec9"/>
      <stop offset="0.579" stop-color="#e8486b"/>
      <stop offset="1" stop-color="#ffb84f"/>
    </linearGradient>
  </defs>
  <path id="XMLID_2250_" d="M343.712,260.36a6.838,6.838,0,0,0,.428-13.662,11.991,11.991,0,0,0-19.4-7.671,10.369,10.369,0,0,0-19.014,5.006,9.124,9.124,0,1,0-5.6,16.328Z" transform="translate(-208.873 -168.209)" fill="#d3e5ea"/>
  <path id="XMLID_2249_" d="M62.711,435.846a6.838,6.838,0,0,0,.428-13.662,11.991,11.991,0,0,0-19.4-7.672,10.369,10.369,0,0,0-19.014,5.006,9.125,9.125,0,1,0-5.6,16.328Z" transform="translate(-7.178 -294.168)" fill="#d3e5ea"/>
  <path id="XMLID_2248_" d="M278.251,432.331A11.447,11.447,0,0,0,266.8,420.884H256v5.975a5.472,5.472,0,0,0,5.472,5.472h16.779Z" transform="translate(-183.75 -302.099)" fill="#ff7b79"/>
  <path id="XMLID_1669_" d="M118.592,200.351V181.569a11.854,11.854,0,1,1,23.707,0v18.782Z" transform="translate(-85.122 -121.817)" fill="url(#linear-gradient)"/>
  <path id="XMLID_2220_" d="M118.592,278.265a21.6,21.6,0,0,0,24.89,21.342l13.891-2.145v21.054h13.666V296.731a18.466,18.466,0,0,0-18.466-18.466h-33.98Z" transform="translate(-85.122 -199.731)" fill="url(#linear-gradient)"/>
  <path id="XMLID_1737_" d="M140.6,102.553a9.385,9.385,0,0,0,9.371-9.4l-.01-7.616a9.385,9.385,0,0,0-18.771.028l.01,7.616a9.385,9.385,0,0,0,9.4,9.371Z" transform="translate(-94.165 -54.67)" fill="#f3c9a6"/>
  <path id="XMLID_2082_" d="M212,10h24.836V21.289H212Z" transform="translate(-152.168 -7.178)" fill="#d3e5ea"/>
  <path id="XMLID_1734_" d="M131.2,93.183a5.219,5.219,0,0,1,5.211-5.227l13.552-.021,0-2.4a9.385,9.385,0,0,0-18.771.029Z" transform="translate(-94.165 -54.671)" fill="url(#linear-gradient)"/>
  <g id="XMLID_1914_" transform="translate(46.416 32.158)">
    <path id="XMLID_1916_" d="M202.547,122.148a40.656,40.656,0,0,1-31.627,22.077,5.745,5.745,0,0,1-6.4-4.826,5.644,5.644,0,0,1,4.971-6.373,29.361,29.361,0,0,0,22.979-15.96,5.645,5.645,0,1,1,10.081,5.081Z" transform="translate(-164.464 -113.943)" fill="#f3c9a6"/>
  </g>
  <g id="XMLID_1620_" transform="translate(0 0)">
    <path id="XMLID_1925_" d="M137.63,76.064a14.81,14.81,0,0,0-21.2-8.983,13.192,13.192,0,0,0-21.493,4.572,11.966,11.966,0,0,0-15.145,8.016,21.254,21.254,0,0,0-4.717-2.541V56.254A43.414,43.414,0,0,0,87.019,41.633,8.469,8.469,0,0,0,75.072,30.563V16.934h9.6a2.822,2.822,0,0,0,2.822-2.822V11.289h54.188a2.822,2.822,0,0,0,0-5.645H87.49V2.822A2.822,2.822,0,0,0,84.668,0H59.832A2.822,2.822,0,0,0,57.01,2.822V5.645H2.822a2.822,2.822,0,1,0,0,5.645H57.01v2.822a2.822,2.822,0,0,0,2.822,2.822h9.6V38a26.39,26.39,0,0,1-15.235,9.916q.453-.375.874-.8a12.129,12.129,0,0,0,3.563-8.637l-.01-7.617A12.207,12.207,0,0,0,46.412,18.674h-.019A12.208,12.208,0,0,0,34.2,30.9l.01,7.617A12.128,12.128,0,0,0,37.8,47.143l.008.008a14.681,14.681,0,0,0-7.163,12.6V78.534A24.416,24.416,0,0,0,58.79,102.665l10.638-1.643v23.737a8.3,8.3,0,0,0,8.294,8.294H94.5a2.822,2.822,0,0,0,2.822-2.822,14.288,14.288,0,0,0-8.585-13.085V97a21.383,21.383,0,0,0-.13-2.326,11.923,11.923,0,0,0,2.644.3h8.937a2.822,2.822,0,0,0,0-5.645H91.253a6.3,6.3,0,0,1,0-12.606,6.236,6.236,0,0,1,3.866,1.327,2.822,2.822,0,0,0,4.55-2.042,7.547,7.547,0,0,1,13.841-3.639,2.822,2.822,0,0,0,4.13.645,9.066,9.066,0,0,1,5.752-2.03,9.2,9.2,0,0,1,9.081,7.894,2.822,2.822,0,0,0,2.621,2.428,4.015,4.015,0,0,1-.254,8.023h-9.248a2.822,2.822,0,0,0,0,5.645h9.249a9.66,9.66,0,0,0,2.791-18.909ZM62.654,5.645H81.846v5.645H62.654ZM36.292,67.7H54.355v8.014H36.292ZM60,63.9a43.362,43.362,0,0,0,9.364-3.856L60,70.51Zm9.429,4.535v7.367c-.652-.06-1.31-.1-1.978-.1H62.918Zm7.511-31.889a2.816,2.816,0,0,1,3.372-1.441,2.775,2.775,0,0,1,1.75,1.589,2.81,2.81,0,0,1-.082,2.394A37.708,37.708,0,0,1,52.548,59.637a2.923,2.923,0,0,1-3.283-2.4,2.822,2.822,0,0,1,2.485-3.188,32.061,32.061,0,0,0,25.189-17.5Zm-23.958-.46,0,2.4a6.563,6.563,0,0,1-6.553,6.573h-.01a6.563,6.563,0,0,1-6.563-6.552h0a2.4,2.4,0,0,1,2.393-2.4ZM46.4,24.319h.01a6.55,6.55,0,0,1,6.541,6.128l-10.71.016a8.064,8.064,0,0,0-2.392.365,6.558,6.558,0,0,1,6.55-6.509Zm-1.078,26.4q.431,0,.856.041a8.572,8.572,0,0,0-.793.882,8.4,8.4,0,0,0-1.714,6.352,8.246,8.246,0,0,0,1.751,4.059H36.292v-2.3A9.041,9.041,0,0,1,45.323,50.72ZM36.5,81.356H52.654l-5.905,14a18.736,18.736,0,0,1-10.244-14Zm21.424,15.73a18.763,18.763,0,0,1-5.778-.012l6.63-15.719H67.45a15.712,15.712,0,0,1,1.978.129V95.311ZM91.2,127.409H77.722a2.653,2.653,0,0,1-2.65-2.65v-3.152h7.982a8.64,8.64,0,0,1,8.15,5.8ZM75.072,115.962V83.346A15.652,15.652,0,0,1,83.094,97v18.962H75.072Z" transform="translate(0 0)"/>
    <path id="XMLID_1944_" d="M58.325,412.581a14.81,14.81,0,0,0-21.2-8.983,13.192,13.192,0,0,0-21.493,4.573,11.95,11.95,0,1,0-3.681,23.32H55.534a9.661,9.661,0,0,0,2.791-18.91Zm-2.791,13.265H11.947a6.3,6.3,0,0,1,0-12.606,6.238,6.238,0,0,1,3.866,1.328,2.822,2.822,0,0,0,4.55-2.042A7.547,7.547,0,0,1,34.2,408.886a2.822,2.822,0,0,0,4.129.645,9.067,9.067,0,0,1,5.752-2.03,9.2,9.2,0,0,1,9.081,7.894,2.823,2.823,0,0,0,2.621,2.428,4.015,4.015,0,0,1-.254,8.023Z" transform="translate(0 -286.991)"/>
    <path id="XMLID_1945_" d="M392.822,316.51a2.823,2.823,0,1,0,2,.827A2.844,2.844,0,0,0,392.822,316.51Z" transform="translate(-279.932 -227.182)"/>
  </g>
</svg>
