<svg xmlns="http://www.w3.org/2000/svg" xmlns:xlink="http://www.w3.org/1999/xlink" width="141.244" height="142.324" viewBox="0 0 141.244 142.324">
  <defs>
    <linearGradient id="linear-gradient" x1="0.5" x2="0.5" y2="1" gradientUnits="objectBoundingBox">
      <stop offset="0" stop-color="#4366c9"/>
      <stop offset="0.125" stop-color="#7e3ec9"/>
      <stop offset="0.579" stop-color="#e8486b"/>
      <stop offset="1" stop-color="#ffb84f"/>
    </linearGradient>
  </defs>
  <g id="_048---Karaoke" data-name="048---Karaoke" transform="translate(0.039 -0.515)">
    <g id="Icons" transform="translate(2.406 1.657)">
      <path id="Shape" d="M72.656,84.807c-2.705-.729,1.27,2.07-57.236-45.85L37.957,16.42l44.062,53.8a9.081,9.081,0,0,1-9.363,14.585Z" transform="translate(20.855 22.208)" fill="url(#linear-gradient)"/>
      <path id="Shape-2" data-name="Shape" d="M72.656,82.264c-2.705-.729,1.27,2.07-57.236-45.85L33.534,18.3,74.82,68.714a9.1,9.1,0,0,1-2.164,13.55Z" transform="translate(20.855 24.751)" fill="url(#linear-gradient)"/>
      <path id="Shape-3" data-name="Shape" d="M10.965,22h0Z" transform="translate(13.525 29.755)" fill="#464f5d"/>
      <path id="Shape-4" data-name="Shape" fill="#464f5d"/>
      <path id="Shape-5" data-name="Shape" d="M45.142,21.644a24.678,24.678,0,0,1-24.913,24.7h-.965A24.513,24.513,0,0,1,3.15,39.287c4.7,0,11.762-5.081,21.384-14.7S37.732,8.7,37.732,4a24.536,24.536,0,0,1,7.41,16.467Z" transform="translate(4.26 5.41)" fill="#33363a"/>
      <path id="Shape-6" data-name="Shape" d="M37.23,20.467A24.536,24.536,0,0,0,29.843,4a14.585,14.585,0,0,1-2.023,7.057,25.007,25.007,0,0,1,2.352,9.41V21.6A24.7,24.7,0,0,1,9,46.039c.729,0,1.317.165,2.352.235h1.129A24.7,24.7,0,0,0,37.23,21.644V20.467Z" transform="translate(12.172 5.41)" fill="#fff" opacity="0.1"/>
      <path id="Shape-7" data-name="Shape" d="M45.287,23.723,22.751,46.26a2.353,2.353,0,0,1-3.341,0L10,36.85h1.129a24.7,24.7,0,0,0,24.748-24.7V11.02l9.41,9.41A2.352,2.352,0,0,1,45.287,23.723Z" transform="translate(13.525 14.904)" fill="url(#linear-gradient)"/>
      <path id="Shape-8" data-name="Shape" d="M10,22h0Z" transform="translate(13.525 29.755)" fill="#464f5d"/>
      <path id="Shape-9" data-name="Shape" fill="#464f5d"/>
      <path id="Shape-10" data-name="Shape" d="M30.874,25.24a28.23,28.23,0,0,1,4.305,8.022,2.352,2.352,0,0,1-2.917,2.917,28.23,28.23,0,0,1-8.022-4.305,4.7,4.7,0,0,1,6.634-6.634Z" transform="translate(31.255 32.607)" fill="#ff5722"/>
      <g id="Group_319" data-name="Group 319" transform="translate(0.051 2.283)">
        <path id="Shape-11" data-name="Shape" d="M53.827,14.5V33.975a9.41,9.41,0,0,1-18.538,2.352,9.645,9.645,0,0,1,7.175-11.762,2.352,2.352,0,0,0,1.953-2.352V6.921A2.353,2.353,0,0,1,46.2,4.568L60.32,1.04a2.352,2.352,0,0,1,2.917,2.352v6.916a2.353,2.353,0,0,1-1.788,2.352Z" transform="translate(47.279 -0.971)" fill="#d3e5ea"/>
        <path id="Shape-12" data-name="Shape" d="M64.827,26.5V45.975a9.41,9.41,0,0,1-18.538,2.352,9.645,9.645,0,0,1,7.175-11.762,2.352,2.352,0,0,0,1.953-2.352V18.921A2.352,2.352,0,0,1,57.2,16.568L71.32,13.04a2.353,2.353,0,0,1,2.917,2.352v6.916a2.353,2.353,0,0,1-1.788,2.352Z" transform="translate(62.156 15.259)" fill="#d3e5ea"/>
        <path id="Shape-13" data-name="Shape" d="M47.02,37.375V72.662a9.41,9.41,0,0,1-18.538,2.352,9.645,9.645,0,0,1,7.175-11.762A2.352,2.352,0,0,0,37.61,60.9V51.49a2.352,2.352,0,0,0-2.776-2.352L20.72,52.219a2.352,2.352,0,0,0-1.929,2.352v27.5A9.41,9.41,0,0,1,5.852,90.8,9.575,9.575,0,0,1,7.428,72.662,2.353,2.353,0,0,0,9.381,70.31V44.032A2.352,2.352,0,0,1,11.31,41.68l32.935-6.658a2.353,2.353,0,0,1,2.776,2.352Z" transform="translate(-0.022 45.032)" fill="#d3e5ea"/>
      </g>
      <path id="Shape-14" data-name="Shape" d="M24.439,41.018,10.324,44.1a2.352,2.352,0,0,0-1.929,2.352v27.5a9.41,9.41,0,0,1-5.9,8.728,9.41,9.41,0,0,0,12.962-8.728v-27.5A2.352,2.352,0,0,1,17.381,44.1l9.41-2.047A2.352,2.352,0,0,0,24.439,41.018Z" transform="translate(3.368 55.434)" fill="#fff" opacity="0.66"/>
      <path id="Shape-15" data-name="Shape" d="M24.626,35.025l-4.7.965c.706.965.494-1.976.494,36.628a9.41,9.41,0,0,1-5.9,8.728,9.41,9.41,0,0,0,12.915-8.681V37.377a2.352,2.352,0,0,0-2.8-2.352Z" transform="translate(19.625 47.313)" fill="#fff" opacity="0.66"/>
      <path id="Shape-16" data-name="Shape" d="M41.982,8.055c0,4.7-3.552,10.939-13.174,20.561S12.129,43.342,7.424,43.342A24.7,24.7,0,1,1,41.982,8.054Z" transform="translate(0.01 1.355)" fill="#33363a"/>
    </g>
    <g id="Layer_5" transform="translate(-0.039 0.515)">
      <path id="Shape-17" data-name="Shape" d="M36.045,26.067a7.053,7.053,0,1,0-9.975,9.975A30.583,30.583,0,0,0,35.1,40.934,4.7,4.7,0,0,0,40.938,35.1a30.253,30.253,0,0,0-4.893-9.034Zm-6.658,6.658a2.354,2.354,0,1,1,3.341-3.317,27.971,27.971,0,0,1,3.693,7.057,27.854,27.854,0,0,1-7.034-3.74Z" transform="translate(30.2 31.253)"/>
      <path id="Shape-18" data-name="Shape" d="M136.329,133.655a9.41,9.41,0,0,0-12.186-1.035l-6.587,4.7a4.705,4.705,0,0,1-6.469-.87l-1.129-1.482a4.7,4.7,0,0,1,.753-6.681,14.28,14.28,0,0,0,5.175-9.763c.329-5.693-3.27-8.492-7.057-12.256a11.316,11.316,0,0,0-.8-13.55l-43.051-52.7a4.7,4.7,0,0,0-1.129-4.7l-8.728-8.869A27.078,27.078,0,1,0,1.014,28.734a27.2,27.2,0,0,0,24.8,27.03l8.822,8.822a4.7,4.7,0,0,0,4.7,1.153l52.6,42.957a11.363,11.363,0,0,0,13.6.823c3.317,3.317,5.858,5.128,5.646,8.657a9.41,9.41,0,0,1-3.411,6.328,9.41,9.41,0,0,0-1.529,13.292l1.153,1.482a9.41,9.41,0,0,0,12.868,1.788l6.611-4.587a4.7,4.7,0,0,1,6.116.494l5.152,5.152a2.354,2.354,0,0,0,3.341-3.317ZM28.068,51.059a22.184,22.184,0,0,1-12.139-3.623c4.7-2.023,10.374-6.587,17.926-14.115,6.869-6.869,10.986-12.351,12.774-17.032a22.372,22.372,0,0,1-18.561,34.77Zm0-44.7a22.16,22.16,0,0,1,14.821,5.67c-.541,4.258-4.564,10.139-12.374,17.95C21.9,38.591,15.6,43.225,11.694,43.86a22.349,22.349,0,0,1,16.373-37.5Zm4.14,49.049a27.077,27.077,0,0,0,22.56-22.56l5.74,5.764L37.972,61.175Zm62.741,49.755L43.194,62.821,62.014,44l42.345,51.755a6.728,6.728,0,0,1-9.41,9.41Z" transform="translate(-0.921 -0.515)"/>
      <path id="Shape-19" data-name="Shape" d="M63.1,1.149,48.985,4.678a4.7,4.7,0,0,0-3.576,4.564V24.509A11.762,11.762,0,1,0,59.524,36.272V18.652l5.834-1.482a4.7,4.7,0,0,0,3.576-4.423V5.689A4.7,4.7,0,0,0,63.1,1.149Zm1.129,11.6-7.622,1.906A2.352,2.352,0,0,0,54.819,17V36.272a7.057,7.057,0,0,1-13.9,1.764A7.246,7.246,0,0,1,46.3,29.214a4.7,4.7,0,0,0,3.811-4.7V9.242L64.229,5.689Z" transform="translate(46.431 0.158)"/>
      <path id="Shape-20" data-name="Shape" d="M74.073,13.149,59.958,16.678a4.7,4.7,0,0,0-3.576,4.564V36.509a12,12,0,0,0-9.01,14.585,11.621,11.621,0,0,0,11.363,8.939A11.762,11.762,0,0,0,70.5,48.272V30.628l5.834-1.482a4.7,4.7,0,0,0,3.576-4.4V17.689a4.7,4.7,0,0,0-5.834-4.54Zm1.129,11.6L67.58,26.652A2.352,2.352,0,0,0,65.792,29V48.272a7.057,7.057,0,0,1-13.9,1.764,7.246,7.246,0,0,1,5.387-8.822,4.7,4.7,0,0,0,3.811-4.7V21.242L75.2,17.689Z" transform="translate(61.335 16.387)"/>
      <path id="Shape-21" data-name="Shape" d="M47.186,35.052,14.251,41.71a4.7,4.7,0,0,0-3.882,4.7V72.692A11.762,11.762,0,1,0,24.484,84.454v-27.5l14.209-3.082v9.41A11.974,11.974,0,0,0,29.73,77.867a11.762,11.762,0,0,0,23.078-2.823V39.757a4.7,4.7,0,0,0-5.622-4.7ZM48.1,75.044a7.057,7.057,0,1,1-12.962-3.952,6.893,6.893,0,0,1,4.446-3.105,4.7,4.7,0,0,0,3.811-4.7v-9.41a4.7,4.7,0,0,0-5.646-4.7L23.637,52.225a4.7,4.7,0,0,0-3.858,4.7V84.454A7.057,7.057,0,1,1,6.817,80.5a6.893,6.893,0,0,1,4.54-3.105,4.7,4.7,0,0,0,3.811-4.7V46.438L48.1,39.757Z" transform="translate(-0.961 46.075)"/>
    </g>
  </g>
</svg>
